<svg width="40" height="40" viewBox="0 0 40 40" fill="none" xmlns="http://www.w3.org/2000/svg">
<g clip-path="url(#clip0_3144_31019)">
<path d="M28.9829 2.93341L27.1829 4.73341M13.8496 2.93341L15.5163 4.60008M21.4163 1.66675V4.01675M24.3029 37.5751C27.8179 37.9984 31.4829 36.8717 34.1796 34.1734C37.0029 31.3501 38.2279 27.3017 37.4463 23.3867L35.3763 13.0401C35.1346 11.8301 34.0713 10.9584 32.8363 10.9584C31.4063 10.9584 30.2463 12.1184 30.2463 13.5484V16.0201M25.6163 13.3984L22.5863 10.3684C21.6096 9.39175 20.0263 9.39175 19.0513 10.3684C18.0746 11.3451 18.0746 12.9284 19.0513 13.9034" stroke="#3A3A3A" stroke-width="1.5" stroke-linecap="round" stroke-linejoin="round"/>
<path d="M11.3038 13.2284C10.3271 12.2518 10.3271 10.6684 11.3038 9.69344C12.2805 8.71677 13.8638 8.71677 14.8388 9.69344L21.3205 16.1751L24.8555 19.7101V15.2284C24.8555 13.7984 26.0155 12.6384 27.4455 12.6384C28.6805 12.6384 29.7438 13.5101 29.9855 14.7201L31.8505 24.0484C32.6338 27.9634 31.4088 32.0118 28.5838 34.8351C23.9205 39.4984 16.3588 39.4984 11.6955 34.8351L7.17879 30.3168L3.05379 26.1918C2.07712 25.2151 2.07712 23.6318 3.05379 22.6568C4.03046 21.6801 5.61379 21.6801 6.58879 22.6568" stroke="#3A3A3A" stroke-width="1.5" stroke-linecap="round" stroke-linejoin="round"/>
<path d="M11.8935 27.96L4.23348 20.3C3.25681 19.3233 3.25681 17.74 4.23348 16.765C5.21014 15.7883 6.79348 15.7883 7.76848 16.765M15.4285 24.4233L5.41181 14.4067C4.43514 13.43 4.43514 11.8467 5.41181 10.8717C6.38848 9.89499 7.97181 9.89499 8.94681 10.8717L18.9635 20.8883" stroke="#3A3A3A" stroke-width="1.5" stroke-linecap="round" stroke-linejoin="round"/>
</g>
<defs>
<clipPath id="clip0_3144_31019">
<rect width="40" height="40" fill="white"/>
</clipPath>
</defs>
</svg>
