<svg width="165" height="119" viewBox="0 0 165 119" fill="none" xmlns="http://www.w3.org/2000/svg">
<g clip-path="url(#clip0_3144_23250)">
<path d="M76.0786 34.8058V23.8058H78.9744V34.9185C78.9744 35.5538 79.2494 35.7435 79.4969 35.7435C79.6165 35.7476 79.7361 35.7337 79.8516 35.7023L80.1981 37.883C79.7351 38.0635 79.2401 38.1477 78.7434 38.1305C76.7579 38.1498 76.0786 36.827 76.0786 34.8058Z" fill="#0C419A"/>
<path d="M57.5355 31.2858C57.794 30.48 60.357 24.7958 60.357 24.7958H63.3985V37.9078H60.6485V29.8035L58.3605 35.6995H56.6225L54.3345 29.8035V37.9078H51.5845V24.7958H54.626C54.626 24.7958 57.189 30.48 57.4475 31.2858H57.5355Z" fill="#0C419A"/>
<path d="M81.3999 35.1385C81.3999 33.0375 83.1654 31.8688 87.0292 31.4535C86.9714 30.579 86.4187 30.04 85.3572 30.04C84.5322 30.04 83.7209 30.392 82.7721 30.942L81.7437 29.0005C82.9818 28.1763 84.4284 27.7205 85.9154 27.686C88.4152 27.686 89.7984 29.1435 89.7984 32.2015V37.9078H87.0484V36.9425C87.0484 36.9425 85.9127 38.1498 84.3232 38.1498C82.5164 38.1498 81.3999 36.8215 81.3999 35.1385ZM87.0402 34.9653V33.2218C84.9804 33.4968 84.1719 34.1485 84.1719 34.9048C84.1719 35.5483 84.6064 35.8618 85.2939 35.8618C85.9814 35.8618 86.5122 35.4878 87.0264 34.957L87.0402 34.9653Z" fill="#0C419A"/>
<path d="M65.4277 35.1385C65.4277 33.0375 67.1905 31.8688 71.057 31.4535C70.9965 30.579 70.4465 30.04 69.385 30.04C68.56 30.04 67.735 30.392 66.8 30.942L65.7715 29.0005C67.0092 28.1755 68.4561 27.7196 69.9432 27.686C72.4402 27.686 73.8262 29.1435 73.8262 32.2015V37.9078H71.0762V36.9425C71.0762 36.9425 69.9405 38.1498 68.351 38.1498C66.5497 38.1498 65.4277 36.8215 65.4277 35.1385ZM71.068 34.9653V33.2218C69.0082 33.4968 68.1997 34.1485 68.1997 34.9048C68.1997 35.5483 68.6315 35.8618 69.3217 35.8618C70.012 35.8618 70.5537 35.4878 71.068 34.957V34.9653Z" fill="#0C419A"/>
<path d="M97.9712 23.814V28.632C97.6635 28.3107 97.2904 28.0593 96.8772 27.8947C96.464 27.7301 96.0202 27.6561 95.576 27.6777C93.519 27.6777 91.5225 29.6495 91.5225 32.9027C91.5225 36.156 93.0927 38.1277 95.521 38.1277C96.852 38.1277 97.8777 37.135 97.9712 37.0277V37.872H100.867V23.814H97.9712ZM96.2745 35.7297C95.1525 35.7297 94.4897 34.847 94.4897 32.889C94.4897 30.9887 95.3147 30.106 96.2497 30.106C96.8782 30.1157 97.4849 30.3376 97.9712 30.7357V34.836C97.3882 35.4905 96.8905 35.7297 96.2745 35.7297Z" fill="#0C419A"/>
<path d="M103.086 24.9222C103.086 24.0147 103.79 23.3767 104.761 23.3767C105.732 23.3767 106.439 24.0147 106.439 24.9222C106.439 25.8297 105.735 26.4677 104.761 26.4677C103.788 26.4677 103.086 25.8215 103.086 24.9222ZM103.315 27.928H106.21V37.9077H103.315V27.928Z" fill="#0C419A"/>
<path d="M108.006 32.922C108.006 29.6825 110.047 27.697 112.5 27.697C115.283 27.697 116.817 29.7623 116.817 32.4875C116.819 32.9258 116.778 33.3632 116.696 33.7938H110.85C111.125 35.243 112.082 35.9058 113.385 35.9058C114.125 35.9058 114.76 35.6115 115.475 35.188L116.454 37.036C115.436 37.7455 114.23 38.1369 112.989 38.1608C110.099 38.1498 108.006 36.2248 108.006 32.922ZM114.331 31.822C114.331 30.722 113.71 29.9355 112.552 29.9355C111.639 29.9355 111.004 30.5598 110.809 31.822H114.331Z" fill="#0C419A"/>
<path d="M51.5952 18.303V7.30298H54.491V18.4212C54.491 19.0565 54.766 19.2462 55.0135 19.2462C55.1329 19.25 55.2523 19.2371 55.3682 19.2077L55.7147 21.3885C55.2519 21.5662 54.7582 21.6494 54.2627 21.6332C52.2745 21.6442 51.5952 20.3215 51.5952 18.303Z" fill="#0C419A"/>
<path d="M66.957 18.281L67.7518 21.4022H70.7438L66.7123 8.28198H63.3958L59.3643 21.4022H62.359L63.151 18.281H66.957ZM63.7368 15.982L65.0018 11.0072H65.1063L66.3713 15.982H63.7368Z" fill="#0C419A"/>
<path d="M71.3267 20.25L72.6274 18.4075C73.5129 19.0923 74.3324 19.458 75.1492 19.458C76.0099 19.458 76.3839 19.1198 76.3839 18.5973C76.3839 17.94 75.4159 17.643 74.4094 17.2388C73.2132 16.7658 71.8244 15.9545 71.8244 14.3045C71.8244 12.4483 73.3039 11.1805 75.5562 11.1805C76.8157 11.1952 78.0321 11.6417 79.0019 12.4455L77.7039 14.2193C77.0109 13.705 76.3289 13.3695 75.6469 13.3695C74.8989 13.3695 74.5304 13.6665 74.5304 14.1643C74.5304 14.8023 75.4462 15.047 76.4554 15.421C77.6929 15.8885 79.0872 16.6008 79.0872 18.4268C79.0872 20.2528 77.6929 21.6443 75.0749 21.6443C73.7064 21.603 72.3895 21.1131 71.3267 20.25Z" fill="#0C419A"/>
<path d="M79.9922 20.25L81.2957 18.4075C82.1784 19.0923 82.9979 19.458 83.8147 19.458C84.6782 19.458 85.0494 19.1198 85.0494 18.5973C85.0494 17.94 84.0814 17.643 83.0749 17.2388C81.8787 16.7658 80.4899 15.9545 80.4899 14.3045C80.4899 12.4483 81.9694 11.1805 84.2244 11.1805C85.483 11.1958 86.6983 11.6423 87.6674 12.4455L86.3722 14.2193C85.6764 13.705 84.9972 13.3695 84.3152 13.3695C83.5672 13.3695 83.1987 13.6665 83.1987 14.1643C83.1987 14.8023 84.1117 15.047 85.1237 15.421C86.3584 15.8885 87.7554 16.6008 87.7554 18.4268C87.7554 20.2528 86.3584 21.6443 83.7404 21.6443C82.3721 21.6023 81.0553 21.1125 79.9922 20.25Z" fill="#0C419A"/>
<path d="M100.482 11.4307H103.378V12.8497C103.928 11.7497 105.27 11.3564 105.952 11.3729C106.35 11.3562 106.746 11.4247 107.115 11.5737L106.816 14.2632C106.421 14.1029 106.005 14.0019 105.581 13.9634C105.001 13.9991 104.455 14.2486 104.049 14.6636C103.642 15.0787 103.404 15.6298 103.381 16.2102V21.4022H100.482V11.4307Z" fill="#0C419A"/>
<path d="M118.291 11.4307H121.187V12.682C122.012 11.8762 122.837 11.1777 124.173 11.1777C126.299 11.1777 127.198 12.7095 127.198 15.2037V21.4022H124.3V15.586C124.3 14.1505 123.92 13.6995 123.084 13.6995C122.358 13.6995 121.811 14.046 121.176 14.6702V21.4022H118.291V11.4307Z" fill="#0C419A"/>
<path d="M137.225 16.4165C137.225 13.1798 139.266 11.1915 141.719 11.1915C144.502 11.1915 146.036 13.2595 146.036 15.982C146.038 16.4203 145.997 16.8578 145.915 17.2883H140.071C140.333 18.7375 141.303 19.4003 142.607 19.4003C143.347 19.4003 143.982 19.106 144.697 18.6825L145.676 20.5305C144.658 21.2412 143.452 21.6327 142.211 21.6553C139.321 21.6443 137.225 19.7193 137.225 16.4165ZM143.55 15.3165C143.55 14.2165 142.929 13.43 141.771 13.43C140.858 13.43 140.223 14.057 140.025 15.3165H143.55Z" fill="#0C419A"/>
<path d="M107.742 18.6358C107.742 16.532 109.505 15.3633 113.371 14.948C113.311 14.0735 112.761 13.5345 111.699 13.5345C110.874 13.5345 110.049 13.8865 109.114 14.4365L108.075 12.495C109.313 11.67 110.76 11.2141 112.247 11.1805C114.744 11.1805 116.13 12.638 116.13 15.696V21.4023H113.38V20.4398C113.38 20.4398 112.244 21.6443 110.654 21.6443C108.872 21.6443 107.742 20.316 107.742 18.6358ZM113.382 18.457V16.7163C111.323 16.9913 110.514 17.6458 110.514 18.3993C110.514 19.0428 110.946 19.3563 111.636 19.3563C112.326 19.3563 112.868 18.9823 113.382 18.457Z" fill="#0C419A"/>
<path d="M58.3002 7.25073C57.7007 7.25073 56.8839 7.70723 56.8839 8.55423C56.8817 8.71111 56.9109 8.86685 56.9697 9.01229C57.0286 9.15772 57.1159 9.28993 57.2266 9.40113C57.3373 9.51232 57.4691 9.60027 57.6143 9.65979C57.7594 9.71931 57.915 9.74921 58.0719 9.74773C58.1003 9.74925 58.1288 9.74925 58.1572 9.74773C58.1269 10.6167 57.3322 11.1227 56.9334 11.329L57.6979 12.396C60.2252 11.582 60.7504 7.26723 58.3002 7.25073Z" fill="#0C419A"/>
<path d="M95.2049 11.4308V18.0308C94.6384 18.8173 94.1956 19.1308 93.4669 19.1308C92.6419 19.1308 92.2541 18.6798 92.2541 17.2443V11.4308H89.3584V17.7145C89.3584 20.0768 90.3676 21.658 92.4274 21.6525C92.9588 21.66 93.4853 21.55 93.9692 21.3304C94.4532 21.1107 94.8826 20.7869 95.2269 20.382V21.4105H98.0979V11.4308H95.2049Z" fill="#0C419A"/>
<path d="M133.925 19.2572C132.668 19.2572 131.725 18.1572 131.725 16.4165C131.725 14.6757 132.619 13.5675 134.01 13.5675C134.486 13.5859 134.938 13.7822 135.275 14.1175L136.65 12.2172C135.877 11.5437 134.882 11.1785 133.856 11.1915C131.159 11.1915 128.805 13.1165 128.805 16.4165C128.805 19.7165 130.87 21.6415 133.598 21.6415C134.781 21.655 135.927 21.2321 136.818 20.4535L135.751 18.457C135.171 18.93 134.588 19.2572 133.925 19.2572Z" fill="#0C419A"/>
<path d="M52.558 42.657H53.5837L55.1925 47.5905H54.2657L53.515 44.9642C53.3582 44.4417 53.2125 43.8807 53.0695 43.339H53.0392C52.9017 43.889 52.7642 44.439 52.602 44.9642L51.843 47.5905H50.9492L52.558 42.657ZM51.9007 45.5665H54.2245V46.254H51.9007V45.5665Z" fill="#0C419A"/>
<path d="M55.7148 48.2588C55.7255 48.0913 55.7806 47.9297 55.8743 47.7905C55.9681 47.6513 56.0972 47.5396 56.2483 47.4668V47.4365C56.143 47.3719 56.0566 47.2807 55.9977 47.1721C55.9388 47.0635 55.9096 46.9413 55.9128 46.8178C55.9228 46.6788 55.965 46.544 56.0361 46.4242C56.1073 46.3044 56.2053 46.2028 56.3226 46.1275V46.0973C56.1717 45.9848 56.0484 45.8394 55.9622 45.6722C55.8759 45.5049 55.829 45.3202 55.8248 45.132C55.8248 44.2823 56.5151 43.801 57.2906 43.801C57.4777 43.8008 57.6635 43.8315 57.8406 43.8918H59.1661V44.538H58.4896C58.6298 44.7145 58.7046 44.9341 58.7013 45.1595C58.7013 45.9845 58.0771 46.4245 57.2933 46.4245C57.1218 46.423 56.952 46.3895 56.7928 46.3255C56.736 46.3654 56.6897 46.4186 56.6581 46.4804C56.6265 46.5422 56.6104 46.6108 56.6113 46.6803C56.6113 46.8893 56.7626 47.0158 57.2108 47.0158H57.8708C58.7563 47.0158 59.2266 47.2908 59.2266 47.9315C59.2266 48.6603 58.4593 49.2378 57.2493 49.2378C56.3748 49.224 55.7148 48.905 55.7148 48.2588ZM58.3933 48.058C58.3933 47.783 58.1651 47.6868 57.7388 47.6868H57.2328C57.0635 47.6916 56.8943 47.674 56.7296 47.6345C56.6486 47.6888 56.5814 47.7614 56.5337 47.8465C56.4859 47.9315 56.4588 48.0266 56.4546 48.124C56.4546 48.4623 56.8176 48.6575 57.4006 48.6575C57.9836 48.6575 58.3933 48.377 58.3933 48.058ZM57.9396 45.132C57.9499 45.0416 57.9409 44.95 57.9133 44.8633C57.8857 44.7765 57.8401 44.6966 57.7795 44.6287C57.7189 44.5608 57.6446 44.5065 57.5615 44.4693C57.4785 44.4321 57.3885 44.4129 57.2975 44.4129C57.2064 44.4129 57.1165 44.4321 57.0334 44.4693C56.9503 44.5065 56.876 44.5608 56.8154 44.6287C56.7548 44.6966 56.7092 44.7765 56.6816 44.8633C56.654 44.95 56.6451 45.0416 56.6553 45.132C56.6418 45.2242 56.6483 45.3183 56.6744 45.4077C56.7004 45.4972 56.7454 45.58 56.8064 45.6505C56.8673 45.7211 56.9427 45.7776 57.0274 45.8164C57.1122 45.8552 57.2043 45.8752 57.2975 45.8752C57.3907 45.8752 57.4828 45.8552 57.5675 45.8164C57.6522 45.7776 57.7276 45.7211 57.7886 45.6505C57.8495 45.58 57.8945 45.4972 57.9206 45.4077C57.9466 45.3183 57.9531 45.2242 57.9396 45.132Z" fill="#0C419A"/>
<path d="M60.0629 42.7395C60.0507 42.629 60.0722 42.5173 60.1248 42.4193C60.1773 42.3212 60.2583 42.2414 60.3571 42.1904C60.4559 42.1393 60.5679 42.1194 60.6782 42.1333C60.7886 42.1472 60.8921 42.1942 60.9752 42.2682C61.0583 42.3421 61.117 42.4395 61.1436 42.5475C61.1702 42.6555 61.1634 42.769 61.1242 42.8731C61.085 42.9772 61.0151 43.0669 60.9238 43.1304C60.8325 43.194 60.7241 43.2283 60.6129 43.229C60.5439 43.2367 60.474 43.2298 60.4079 43.2088C60.3417 43.1878 60.2807 43.153 60.2288 43.1068C60.1769 43.0607 60.1354 43.0041 60.1068 42.9408C60.0782 42.8776 60.0632 42.809 60.0629 42.7395ZM60.1619 43.878H61.0309V47.585H60.1619V43.878Z" fill="#0C419A"/>
<path d="M62.3945 43.8779H63.1068L63.1728 44.5407H63.1975C63.2887 44.3317 63.4347 44.1512 63.6202 44.0186C63.8056 43.8859 64.0235 43.8059 64.2508 43.7872C64.3942 43.7799 64.5374 43.8063 64.6688 43.8642L64.5175 44.6177C64.3949 44.5783 64.2669 44.5579 64.138 44.5572C63.8438 44.5572 63.4863 44.7607 63.2635 45.3244V47.5849H62.3945V43.8779Z" fill="#0C419A"/>
<path d="M66.9844 45.7342C66.9844 44.5297 67.8094 43.7872 68.6921 43.7872C69.6959 43.7872 70.2239 44.5132 70.2239 45.5472C70.2243 45.6893 70.2114 45.8311 70.1854 45.9707H67.8341C67.8369 46.1112 67.8678 46.2497 67.9249 46.3781C67.9821 46.5064 68.0643 46.6221 68.1668 46.7182C68.2693 46.8143 68.39 46.8889 68.5218 46.9376C68.6536 46.9864 68.7938 47.0082 68.9341 47.002C69.2417 46.9963 69.541 46.9007 69.7949 46.727L70.0891 47.277C69.7148 47.5337 69.2726 47.6735 68.8186 47.6785C67.7874 47.6757 66.9844 46.958 66.9844 45.7342ZM69.4594 45.3795C69.4594 44.8075 69.2036 44.461 68.6976 44.461C68.2659 44.461 67.8726 44.7855 67.8094 45.3795H69.4594Z" fill="#0C419A"/>
<path d="M71.3101 43.878H72.0223L72.0883 44.3812H72.1131C72.2654 44.2056 72.4515 44.0625 72.6603 43.9605C72.8692 43.8584 73.0964 43.7995 73.3286 43.7872C74.1233 43.7872 74.4698 44.3372 74.4698 45.2612V47.585H73.6008V45.385C73.6008 44.7745 73.4248 44.5435 73.0233 44.5435C72.6988 44.5435 72.4733 44.7057 72.1791 45.0055V47.596H71.3101V43.878Z" fill="#0C419A"/>
<path d="M75.4243 47.1587L75.8286 46.6087C76.1104 46.8627 76.4725 47.0096 76.8516 47.024C77.2558 47.024 77.4456 46.8342 77.4456 46.5785C77.4456 46.2677 77.0441 46.1302 76.6481 45.979C76.1613 45.7975 75.6086 45.517 75.6086 44.8982C75.6086 44.2795 76.1256 43.7982 76.9561 43.7982C77.4051 43.8041 77.8391 43.9611 78.1881 44.2437L77.7893 44.7772C77.561 44.5847 77.2763 44.4718 76.9781 44.4555C76.6041 44.4555 76.4281 44.6315 76.4281 44.8652C76.4281 45.1567 76.8021 45.2695 77.2036 45.4152C77.7041 45.6022 78.2651 45.8415 78.2651 46.5345C78.2651 47.1697 77.7618 47.684 76.8268 47.684C76.3138 47.6701 75.8202 47.4852 75.4243 47.1587Z" fill="#0C419A"/>
<path d="M79.0542 45.7342C79.0542 44.5297 79.8792 43.7872 80.7619 43.7872C81.7629 43.7872 82.2909 44.5132 82.2909 45.5472C82.2921 45.6892 82.2801 45.831 82.2552 45.9707H79.9012C79.9044 46.1111 79.9355 46.2494 79.9928 46.3776C80.05 46.5058 80.1323 46.6213 80.2347 46.7173C80.3371 46.8133 80.4577 46.888 80.5893 46.9368C80.7209 46.9857 80.8609 47.0079 81.0012 47.002C81.308 46.9967 81.6065 46.9011 81.8592 46.727L82.1562 47.277C81.7816 47.5333 81.3395 47.673 80.8857 47.6785C79.8572 47.6757 79.0542 46.958 79.0542 45.7342ZM81.5292 45.3795C81.5292 44.8075 81.2762 44.461 80.7702 44.461C80.3384 44.461 79.959 44.7855 79.882 45.3795H81.5292Z" fill="#0C419A"/>
<path d="M83.3799 43.878H84.0921L84.1581 44.384H84.1829C84.3204 44.2111 84.4925 44.0689 84.688 43.9661C84.8835 43.8634 85.0983 43.8025 85.3186 43.7872C85.5387 43.7694 85.7586 43.825 85.9437 43.9454C86.1288 44.0658 86.2687 44.2442 86.3416 44.4527C86.6964 44.076 87.0649 43.7872 87.5351 43.7872C88.3161 43.7872 88.6791 44.3372 88.6791 45.2612V47.585H87.8101V45.385C87.8101 44.7745 87.6286 44.5435 87.2381 44.5435C87.0844 44.5643 86.9365 44.616 86.8033 44.6954C86.67 44.7747 86.5541 44.8802 86.4626 45.0055V47.596H85.5936V45.396C85.5936 44.7855 85.4121 44.5545 85.0244 44.5545C84.8707 44.5753 84.7228 44.627 84.5895 44.7063C84.4562 44.7857 84.3404 44.8912 84.2489 45.0165V47.607H83.3799V43.878Z" fill="#0C419A"/>
<path d="M90.78 47.1945H90.7497L90.6755 47.585H89.9907V42.2555H90.8597V43.6305L90.835 44.2465C91.1253 43.9702 91.5046 43.8064 91.9047 43.7845C92.8315 43.7845 93.365 44.527 93.365 45.6682C93.365 46.9387 92.6087 47.673 91.7837 47.673C91.3999 47.6489 91.0403 47.4775 90.78 47.1945ZM92.4795 45.6847C92.4795 44.945 92.2375 44.5077 91.6737 44.5077C91.5179 44.5188 91.366 44.5614 91.227 44.6327C91.0881 44.7041 90.965 44.8028 90.8652 44.923V46.65C91.0666 46.8385 91.3293 46.9479 91.605 46.958C92.1 46.958 92.4795 46.5235 92.4795 45.682V45.6847Z" fill="#0C419A"/>
<path d="M94.4541 46.6307V42.2555H95.3231V46.6775C95.3231 46.8892 95.4194 46.9525 95.5101 46.9525C95.5556 46.9537 95.601 46.9481 95.6448 46.936L95.7549 47.585C95.6084 47.6408 95.4523 47.6669 95.2956 47.662C94.6796 47.6757 94.4541 47.277 94.4541 46.6307Z" fill="#0C419A"/>
<path d="M96.5083 45.7342C96.5083 44.5297 97.3333 43.7872 98.216 43.7872C99.2198 43.7872 99.7478 44.5132 99.7478 45.5472C99.7482 45.6893 99.7353 45.8311 99.7093 45.9707H97.3498C97.3526 46.1112 97.3835 46.2497 97.4406 46.3781C97.4977 46.5064 97.58 46.6221 97.6825 46.7182C97.785 46.8143 97.9057 46.8889 98.0375 46.9376C98.1692 46.9864 98.3094 47.0082 98.4498 47.002C98.7574 46.9963 99.0566 46.9007 99.3106 46.727L99.6048 47.277C99.2304 47.5337 98.7882 47.6735 98.3343 47.6785C97.3113 47.6757 96.5083 46.958 96.5083 45.7342ZM98.9833 45.3795C98.9833 44.8075 98.7303 44.461 98.2243 44.461C97.7925 44.461 97.3993 44.7855 97.3361 45.3795H98.9833Z" fill="#0C419A"/>
<path d="M101.351 46.5069C101.278 46.5029 101.204 46.5135 101.135 46.5383C101.066 46.5631 101.002 46.6015 100.948 46.6512C100.894 46.701 100.851 46.761 100.82 46.8279C100.79 46.8947 100.773 46.967 100.771 47.0404C100.77 47.1121 100.784 47.1832 100.811 47.2494C100.839 47.3156 100.88 47.3755 100.931 47.4254C100.983 47.4753 101.044 47.5142 101.111 47.5398C101.178 47.5653 101.249 47.5769 101.321 47.5739H101.387C101.387 47.9699 101.112 48.3082 100.625 48.4952L100.815 48.9737C101.155 48.8777 101.455 48.6721 101.667 48.3888C101.88 48.1055 101.993 47.7602 101.989 47.4062C102 46.8342 101.763 46.5069 101.351 46.5069Z" fill="#0C419A"/>
<path d="M105.009 43.878H105.721L105.787 44.274H105.812C106.115 43.9858 106.51 43.8135 106.928 43.7872C107.855 43.7872 108.386 44.5297 108.386 45.6737C108.386 46.9415 107.627 47.6757 106.804 47.6757C106.448 47.6592 106.109 47.5147 105.85 47.2687L105.875 47.882V49.0507H105.006L105.009 43.878ZM107.484 45.6847C107.484 44.945 107.242 44.5077 106.678 44.5077C106.522 44.5194 106.37 44.5622 106.232 44.6335C106.093 44.7049 105.97 44.8033 105.869 44.923V46.65C106.072 46.838 106.336 46.9473 106.612 46.958C107.115 46.958 107.492 46.5235 107.492 45.682L107.484 45.6847Z" fill="#0C419A"/>
<path d="M109.488 43.8779H110.201L110.267 44.5407H110.291C110.383 44.3318 110.529 44.1516 110.714 44.0189C110.9 43.8863 111.117 43.8062 111.345 43.7872C111.488 43.7799 111.631 43.8063 111.763 43.8642L111.611 44.6177C111.489 44.5783 111.361 44.5579 111.232 44.5572C110.938 44.5572 110.58 44.7607 110.357 45.3244V47.5849H109.488V43.8779Z" fill="#0C419A"/>
<path d="M112.098 45.7342C112.098 44.4995 112.937 43.7872 113.861 43.7872C114.785 43.7872 115.624 44.4995 115.624 45.7342C115.624 46.969 114.785 47.6757 113.861 47.6757C112.937 47.6757 112.098 46.9635 112.098 45.7342ZM114.73 45.7342C114.73 44.9917 114.403 44.4967 113.861 44.4967C113.319 44.4967 112.992 44.9917 112.992 45.7342C112.992 46.4767 113.316 46.9662 113.861 46.9662C114.405 46.9662 114.73 46.4767 114.73 45.7342Z" fill="#0C419A"/>
<path d="M116.735 46.3365V44.582H116.207V43.9303L116.781 43.889L116.883 42.8798H117.604V43.889H118.55V44.582H117.604V46.3448C117.604 46.782 117.774 46.9938 118.129 46.9938C118.262 46.9879 118.393 46.96 118.517 46.9113L118.662 47.5493C118.42 47.6368 118.164 47.6833 117.906 47.6868C117.051 47.6758 116.735 47.134 116.735 46.3365Z" fill="#0C419A"/>
<path d="M119.221 45.7342C119.221 44.5297 120.046 43.7872 120.928 43.7872C121.929 43.7872 122.457 44.5132 122.457 45.5472C122.459 45.6893 122.446 45.8312 122.419 45.9707H120.068C120.07 46.1112 120.101 46.2497 120.159 46.378C120.216 46.5064 120.298 46.622 120.4 46.7181C120.503 46.8142 120.624 46.8888 120.755 46.9376C120.887 46.9863 121.027 47.0082 121.168 47.0019C121.475 46.9967 121.775 46.9011 122.028 46.7269L122.325 47.2769C121.951 47.5332 121.509 47.6729 121.055 47.6784C120.024 47.6757 119.221 46.9579 119.221 45.7342ZM121.696 45.3794C121.696 44.8074 121.443 44.4609 120.934 44.4609C120.505 44.4609 120.123 44.7854 120.048 45.3794H121.696ZM120.469 42.8357L121.583 41.5184L122.182 42.0959L120.904 43.2647L120.469 42.8357Z" fill="#0C419A"/>
<path d="M123.247 48.2587C123.258 48.0911 123.313 47.9294 123.408 47.7902C123.502 47.6511 123.631 47.5394 123.783 47.4667V47.4365C123.677 47.3723 123.59 47.2812 123.531 47.1725C123.472 47.0637 123.443 46.9413 123.447 46.8177C123.457 46.6788 123.5 46.544 123.571 46.4242C123.642 46.3044 123.74 46.2028 123.857 46.1275V46.0972C123.706 45.9825 123.583 45.8346 123.498 45.6648C123.413 45.495 123.369 45.308 123.368 45.1182C123.368 44.2685 124.055 43.7872 124.831 43.7872C125.018 43.7873 125.203 43.818 125.381 43.878H126.706V44.5242H126.03C126.17 44.7007 126.245 44.9203 126.241 45.1457C126.241 45.9707 125.617 46.4107 124.831 46.4107C124.659 46.4087 124.489 46.3752 124.33 46.3117C124.274 46.3521 124.228 46.4054 124.196 46.4671C124.165 46.5288 124.148 46.5972 124.149 46.6665C124.149 46.8755 124.3 47.002 124.751 47.002H125.4C126.285 47.002 126.756 47.277 126.756 47.9177C126.756 48.6465 125.988 49.224 124.778 49.224C123.907 49.224 123.247 48.905 123.247 48.2587ZM125.928 48.058C125.928 47.783 125.697 47.6867 125.273 47.6867H124.765C124.596 47.6913 124.428 47.6737 124.264 47.6345C124.183 47.6888 124.116 47.7614 124.068 47.8464C124.02 47.9314 123.993 48.0265 123.989 48.124C123.989 48.4622 124.352 48.6575 124.932 48.6575C125.513 48.6575 125.928 48.377 125.928 48.058ZM125.474 45.132C125.484 45.0415 125.475 44.95 125.448 44.8632C125.42 44.7765 125.375 44.6966 125.314 44.6287C125.253 44.5608 125.179 44.5064 125.096 44.4693C125.013 44.4321 124.923 44.4128 124.832 44.4128C124.741 44.4128 124.651 44.4321 124.568 44.4693C124.485 44.5064 124.411 44.5608 124.35 44.6287C124.289 44.6966 124.244 44.7765 124.216 44.8632C124.189 44.95 124.18 45.0415 124.19 45.132C124.176 45.2242 124.183 45.3182 124.209 45.4077C124.235 45.4972 124.28 45.58 124.341 45.6505C124.402 45.721 124.477 45.7776 124.562 45.8164C124.647 45.8551 124.739 45.8752 124.832 45.8752C124.925 45.8752 125.017 45.8551 125.102 45.8164C125.187 45.7776 125.262 45.721 125.323 45.6505C125.384 45.58 125.429 45.4972 125.455 45.4077C125.481 45.3182 125.488 45.2242 125.474 45.132Z" fill="#0C419A"/>
<path d="M127.284 45.7342C127.284 44.5297 128.109 43.7872 128.991 43.7872C129.992 43.7872 130.52 44.5132 130.52 45.5472C130.522 45.6892 130.51 45.831 130.485 45.9707H128.131C128.134 46.1111 128.165 46.2494 128.222 46.3776C128.28 46.5058 128.362 46.6213 128.464 46.7173C128.567 46.8133 128.687 46.888 128.819 46.9368C128.95 46.9857 129.09 47.0079 129.231 47.002C129.538 46.9967 129.836 46.9011 130.089 46.727L130.386 47.277C130.011 47.5337 129.569 47.6735 129.115 47.6785C128.087 47.6757 127.284 46.958 127.284 45.7342ZM129.759 45.3795C129.759 44.8075 129.506 44.461 129 44.461C128.568 44.461 128.188 44.7855 128.111 45.3795H129.759Z" fill="#0C419A"/>
<path d="M131.609 43.8779H132.322L132.388 44.5407H132.412C132.504 44.3318 132.65 44.1516 132.835 44.0189C133.021 43.8863 133.238 43.8062 133.466 43.7872C133.609 43.7799 133.752 43.8063 133.884 43.8642L133.732 44.6177C133.61 44.5783 133.482 44.5579 133.353 44.5572C133.059 44.5572 132.701 44.7607 132.478 45.3244V47.5849H131.609V43.8779Z" fill="#0C419A"/>
<path d="M136.199 45.7343C136.183 45.4819 136.219 45.2289 136.306 44.9913C136.393 44.7537 136.528 44.5366 136.702 44.3537C136.877 44.1708 137.087 44.026 137.321 43.9285C137.554 43.8311 137.805 43.7829 138.058 43.7873C138.459 43.7844 138.846 43.9338 139.141 44.2053L138.718 44.769C138.556 44.6025 138.337 44.5041 138.105 44.494C137.505 44.494 137.093 44.989 137.093 45.7315C137.093 46.474 137.5 46.9635 138.077 46.9635C138.361 46.9495 138.632 46.8367 138.842 46.6445L139.196 47.2165C138.862 47.5112 138.432 47.6735 137.986 47.673C136.974 47.6758 136.199 46.9635 136.199 45.7343Z" fill="#0C419A"/>
<path d="M140.154 42.2555H141.023V43.6305L140.987 44.3482C141.294 44.015 141.72 43.8172 142.172 43.7982C142.967 43.7982 143.314 44.3482 143.314 45.2722V47.596H142.45V45.396C142.45 44.7855 142.277 44.5545 141.875 44.5545C141.548 44.5545 141.325 44.7167 141.028 45.0165V47.607H140.159L140.154 42.2555Z" fill="#0C419A"/>
<path d="M144.359 46.5895C144.359 45.7947 145.016 45.3822 146.537 45.2145C146.537 44.8157 146.366 44.483 145.866 44.483C145.491 44.5068 145.13 44.6333 144.823 44.8487L144.504 44.2685C144.955 43.9668 145.482 43.7981 146.025 43.7817C146.952 43.7817 147.4 44.3537 147.4 45.385V47.585H146.688L146.622 47.1752H146.597C146.287 47.4758 145.879 47.6537 145.448 47.6757C145.303 47.6828 145.158 47.6595 145.023 47.6075C144.888 47.5554 144.765 47.4757 144.663 47.3734C144.56 47.2712 144.48 47.1486 144.428 47.0136C144.375 46.8786 144.352 46.7341 144.359 46.5895ZM146.537 46.5895V45.7645C145.533 45.891 145.197 46.155 145.197 46.529C145.197 46.8562 145.42 46.9992 145.731 46.9992C145.885 46.9881 146.036 46.9463 146.174 46.8765C146.313 46.8066 146.436 46.71 146.537 46.5922V46.5895Z" fill="#0C419A"/>
<path d="M148.431 45.7343C148.415 45.4819 148.452 45.2289 148.538 44.9913C148.625 44.7537 148.76 44.5366 148.935 44.3537C149.109 44.1708 149.32 44.026 149.553 43.9285C149.787 43.8311 150.038 43.7829 150.29 43.7873C150.691 43.7844 151.079 43.9338 151.374 44.2053L150.95 44.769C150.788 44.6021 150.567 44.5037 150.334 44.494C149.738 44.494 149.325 44.989 149.325 45.7315C149.325 46.474 149.732 46.9635 150.307 46.9635C150.592 46.9497 150.863 46.8369 151.074 46.6445L151.426 47.2165C151.093 47.5108 150.664 47.6731 150.219 47.673C149.207 47.6758 148.431 46.9635 148.431 45.7343Z" fill="#0C419A"/>
<path d="M152.35 46.2018V43.878H153.219V46.0918C153.219 46.6995 153.392 46.9168 153.794 46.9168C154.121 46.9168 154.344 46.7655 154.619 46.4025V43.8643H155.488V47.5713H154.776L154.71 47.0213H154.685C154.549 47.2133 154.371 47.371 154.164 47.4818C153.957 47.5925 153.726 47.6533 153.491 47.6593C152.691 47.6758 152.35 47.1368 152.35 46.2018Z" fill="#0C419A"/>
<path d="M156.775 43.878H157.487L157.553 44.3812H157.575C157.727 44.2051 157.913 44.0617 158.122 43.9596C158.331 43.8575 158.558 43.7989 158.79 43.7872C159.582 43.7872 159.932 44.3372 159.932 45.2612V47.585H159.063V45.385C159.063 44.7745 158.887 44.5435 158.485 44.5435C158.161 44.5435 157.935 44.7057 157.641 45.0055V47.596H156.772L156.775 43.878Z" fill="#0C419A"/>
<path d="M2.51349 25.0872L2.17249 24.782C2.32672 24.6372 2.42423 24.4422 2.44749 24.232C2.44749 24.0175 2.37599 23.9075 2.24124 23.902C2.10649 23.8965 2.04599 24.023 1.96624 24.2182L1.80399 24.507C1.7549 24.6369 1.66654 24.7483 1.55122 24.8256C1.43589 24.903 1.29932 24.9425 1.16049 24.9387C1.06209 24.9266 0.967118 24.8949 0.88117 24.8455C0.795222 24.7961 0.720042 24.7299 0.660065 24.651C0.600087 24.572 0.556528 24.4819 0.531955 24.3858C0.507383 24.2898 0.502296 24.1898 0.516993 24.0917C0.529316 23.8151 0.6498 23.5544 0.852493 23.3657L1.16599 23.6407C1.0451 23.7677 0.973018 23.9333 0.962493 24.1082C0.962493 24.287 1.02299 24.4025 1.15499 24.408C1.28699 24.4135 1.35299 24.2677 1.42999 24.0725L1.56199 23.7975C1.60725 23.6656 1.69498 23.5525 1.81144 23.4759C1.92789 23.3992 2.06648 23.3634 2.20549 23.374C2.58499 23.3905 2.89849 23.7232 2.87374 24.2677C2.85781 24.5757 2.72966 24.8672 2.51349 25.0872Z" fill="#0C419A"/>
<path d="M0.396 21.8258L0 21.1603L0.3685 20.932L0.6875 21.6388L0.396 21.8258ZM0.671 22.351L0.89375 20.932L1.32275 20.9953L1.18525 21.9L1.65 21.9715L1.7545 21.207L2.1835 21.273L2.07075 22.032L2.5905 22.109L2.73075 21.1685L3.15975 21.2318L2.9425 22.6838L0.671 22.351Z" fill="#0C419A"/>
<path d="M2.13658 20.3517C1.39958 20.1647 1.09983 19.557 1.24008 19.007C1.27364 18.8825 1.3315 18.766 1.41032 18.664C1.48914 18.5621 1.58737 18.4768 1.69933 18.413L1.95233 18.7595C1.88597 18.7963 1.82753 18.8459 1.78034 18.9053C1.73315 18.9648 1.69815 19.033 1.67733 19.106C1.60033 19.4085 1.80658 19.7192 2.24933 19.832C2.69208 19.9447 3.02483 19.8045 3.10733 19.48C3.12692 19.3997 3.1297 19.3162 3.1155 19.2348C3.10131 19.1534 3.07044 19.0759 3.02483 19.007L3.40708 18.8227C3.48872 18.9372 3.5439 19.0683 3.56863 19.2067C3.59337 19.3451 3.58703 19.4873 3.55008 19.623C3.39333 20.173 2.88183 20.5442 2.13658 20.3517Z" fill="#0C419A"/>
<path d="M2.86013 17.9346L1.71338 17.5001L1.89488 17.0161L3.09388 17.4698C3.51188 17.6293 3.70713 17.5523 3.79788 17.3131C3.88863 17.0738 3.79788 16.8786 3.37713 16.7191L2.18088 16.2571L2.35688 15.7896L3.50638 16.2268C4.22413 16.5018 4.42488 16.9088 4.21588 17.4616C4.00688 18.0143 3.57513 18.2068 2.86013 17.9346Z" fill="#0C419A"/>
<path d="M2.81055 14.7005L3.19005 13.969C3.41555 13.54 3.74005 13.2622 4.22955 13.5152C4.71905 13.7682 4.71355 14.2137 4.4908 14.6455L4.3478 14.9205L5.0793 15.3L4.84005 15.7592L2.81055 14.7005ZM4.1058 14.4942C4.2323 14.2522 4.19655 14.068 3.9958 13.9635C3.79505 13.859 3.6603 13.9635 3.53655 14.1972L3.4128 14.431L3.9848 14.728L4.1058 14.4942ZM4.3258 14.6647L4.19655 14.1972L5.6788 14.1422L5.4038 14.6565L4.3258 14.6647Z" fill="#0C419A"/>
<path d="M4.15527 12.22L4.43027 11.7855L6.35527 13.0258L6.08027 13.4603L4.15527 12.22Z" fill="#0C419A"/>
<path d="M5.5991 10.8478L5.2251 11.3483L4.88135 11.0733L5.9566 9.65979L6.3031 9.93479L5.9126 10.4353L7.3866 11.56L7.0731 11.9698L5.5991 10.8478Z" fill="#0C419A"/>
<path d="M6.50635 8.997L7.4826 7.94925L7.8016 8.2435L7.17735 8.9145L7.51285 9.228L8.0436 8.656L8.3626 8.953L7.8291 9.525L8.21685 9.8825L8.8631 9.18675L9.1821 9.48375L8.1811 10.559L6.50635 8.997ZM6.5696 8.403L6.6191 7.63025L7.0481 7.65775L6.91335 8.41125L6.5696 8.403Z" fill="#0C419A"/>
<path d="M10.3457 7.96302L10.3649 7.50102C10.5732 7.51767 10.781 7.46234 10.9534 7.34427C11.1267 7.21227 11.1569 7.06927 11.0744 6.97302C10.9919 6.87677 10.8544 6.90427 10.6454 6.97302L10.3347 7.05552C10.2037 7.10254 10.0614 7.10769 9.92735 7.07024C9.79334 7.0328 9.67428 6.95462 9.58666 6.84652C9.5323 6.76375 9.49499 6.67096 9.4769 6.5736C9.45881 6.47623 9.4603 6.37624 9.48129 6.27946C9.50229 6.18268 9.54236 6.09105 9.59917 6.00993C9.65598 5.92882 9.72839 5.85984 9.81216 5.80702C10.0308 5.6396 10.3059 5.56367 10.5794 5.59527V6.01052C10.4053 6.00258 10.234 6.05612 10.0954 6.16177C9.95516 6.26902 9.91116 6.39827 9.99091 6.50277C10.0707 6.60727 10.2247 6.56052 10.4309 6.50277L10.7334 6.41752C10.863 6.36589 11.0061 6.35895 11.1401 6.3978C11.2741 6.43665 11.3913 6.51907 11.4732 6.63202C11.7069 6.93177 11.6574 7.38552 11.2284 7.71827C10.9756 7.90826 10.6602 7.99568 10.3457 7.96302Z" fill="#0C419A"/>
<path d="M11.7697 5.76574C11.382 5.12499 11.5222 4.53924 12.0447 4.22024C12.5672 3.90124 13.1447 4.05524 13.5435 4.69049C13.9422 5.32574 13.7992 5.93349 13.2685 6.25249C12.7377 6.57149 12.1547 6.40649 11.7697 5.76574ZM13.0952 4.96549C12.8587 4.57224 12.5452 4.44299 12.2702 4.60249C11.9952 4.76199 11.9732 5.09749 12.2125 5.49074C12.4517 5.88399 12.7625 6.04074 13.0375 5.87024C13.3125 5.69974 13.3317 5.35874 13.0952 4.96549Z" fill="#0C419A"/>
<path d="M14.2176 4.33578C13.8959 3.64828 14.1654 3.03778 14.6906 2.79303C14.8082 2.74121 14.935 2.71354 15.0635 2.71165C15.192 2.70976 15.3196 2.73369 15.4386 2.78203L15.3314 3.19728C15.2616 3.1666 15.1862 3.15076 15.11 3.15076C15.0338 3.15076 14.9584 3.1666 14.8886 3.19728C14.6136 3.32928 14.4954 3.68403 14.6906 4.09928C14.8859 4.51453 15.2021 4.68228 15.5156 4.53928C15.5906 4.50075 15.6566 4.44676 15.7092 4.38087C15.7618 4.31498 15.7999 4.23869 15.8209 4.15703L16.2059 4.33578C16.1684 4.47095 16.1013 4.5961 16.0095 4.70217C15.9178 4.80823 15.8035 4.89255 15.6751 4.94903C15.1499 5.19378 14.5421 5.03428 14.2176 4.33578Z" fill="#0C419A"/>
<path d="M16.2388 2.18253L16.7255 2.00378L17.5148 4.15703L17.028 4.33578L16.2388 2.18253Z" fill="#0C419A"/>
<path d="M18.2986 1.50044L18.8981 1.34094L20.1769 3.36769L19.6489 3.50794L19.0631 2.46569C18.9421 2.26219 18.8129 2.01469 18.6946 1.80019C18.6946 2.05044 18.7111 2.32269 18.6946 2.56194V3.75819L18.1831 3.89294L18.2986 1.50044ZM18.4059 2.85894L19.4701 2.58394L19.5719 2.97169L18.5076 3.24669L18.4059 2.85894Z" fill="#0C419A"/>
<path d="M20.4546 0.980751L20.9661 0.901001L21.2411 2.73525L22.1321 2.6005L22.1981 3.0295L20.7928 3.24125L20.4546 0.980751Z" fill="#0C419A"/>
<path d="M22.6821 0.672781L24.1121 0.582031L24.1396 1.01378L23.2266 1.07428L23.2569 1.53078L24.0351 1.48128L24.0626 1.91578L23.2844 1.95703L23.3174 2.48228L24.2661 2.42178L24.2936 2.85628L22.8251 2.95803L22.6821 0.672781Z" fill="#0C419A"/>
<path d="M26.4273 7.38271C26.3832 7.3192 26.3255 7.26628 26.2585 7.22776C26.1914 7.18924 26.1166 7.16608 26.0396 7.15996L25.7838 7.13521C25.6051 7.08571 21.7606 7.14896 20.8586 7.72921C20.7623 7.11871 20.5533 6.38171 19.5001 6.15621C18.7576 5.99946 17.1571 6.70621 17.6933 8.30396C17.7409 8.43558 17.814 8.55652 17.9083 8.65986C18.0027 8.7632 18.1165 8.84692 18.2433 8.90621C18.3808 8.97771 18.5981 8.94471 18.7603 9.36271C18.8071 9.48646 18.8978 9.47271 18.9776 9.44796C19.0573 9.42321 19.0518 9.43421 19.1481 9.51396C19.1658 9.53145 19.1884 9.54318 19.213 9.54759C19.2375 9.55201 19.2628 9.54891 19.2856 9.53871C19.2973 9.5498 19.3111 9.55843 19.3262 9.5641C19.3413 9.56977 19.3574 9.57235 19.3736 9.57171C19.4121 9.57171 19.5001 9.54421 19.5221 9.57171C19.8273 9.81646 20.1821 9.43146 20.3168 9.18946L20.8091 10.6827C20.6908 10.581 19.4808 10.2317 18.9006 10.8807C18.3946 11.4307 18.0261 12.198 17.5998 13.4987C17.5425 13.6653 17.4442 13.8149 17.314 13.9336C17.1838 14.0523 17.0258 14.1363 16.8546 14.178C16.1946 14.42 16.5796 14.728 16.7473 14.7582C17.261 14.8312 17.7837 14.8107 18.2901 14.6977C18.5348 14.5767 18.3533 14.013 18.6256 13.6637L19.2278 12.8855C19.2492 13.2874 19.1757 13.6887 19.0133 14.057C18.8153 14.541 18.2131 14.7967 18.0343 15.0277C17.7181 15.4347 18.4441 15.4677 18.6366 15.4017C19.1178 15.2367 19.4616 15.245 19.6623 15.1267C19.9373 14.9672 19.7421 14.5355 19.8328 14.3595C20.0803 13.87 20.9328 12.8002 21.0291 12.6297C21.0425 12.6076 21.0545 12.5847 21.0648 12.561C21.5654 12.7175 22.0888 12.7891 22.6131 12.7727C24.0183 12.605 24.3318 11.6122 24.1888 10.8477C24.0652 10.3388 23.8209 9.86722 23.4766 9.47271C23.0998 8.87321 22.8908 8.55696 22.7671 8.39746C23.1713 8.30121 25.4071 7.68521 25.4153 7.70446C25.5006 7.88596 25.6903 7.92721 25.7563 7.97946C25.9021 8.05921 25.9846 7.93546 25.9268 7.89971C25.8665 7.86468 25.8184 7.81185 25.7893 7.74846C25.9523 7.74676 26.1151 7.75872 26.2761 7.78421C26.4328 7.80621 26.5373 7.45696 26.4273 7.38271Z" fill="#0C419A"/>
<path fill-rule="evenodd" clip-rule="evenodd" d="M46.3126 20.8687C45.9523 18.9437 44.1538 17.7475 43.2271 17.3542C42.8989 17.2096 42.5596 17.0919 42.2123 17.0022L41.9043 16.9005C41.9703 16.4825 42.4543 16.4495 42.7458 15.8527C43.5708 14.1587 41.8768 12.9652 40.6228 13.2402C40.0316 13.3722 39.6191 13.584 39.5228 14.035C39.4733 14.2797 39.2836 14.288 38.9728 14.6125C38.8738 14.717 39.0938 14.8875 39.1296 14.959C39.1296 14.9782 39.0746 15.069 39.0526 15.1707C39.0306 15.2725 39.0526 15.256 39.0526 15.2697C39.0122 15.343 38.9914 15.4254 38.9921 15.509C38.9466 15.5989 38.923 15.6983 38.923 15.7991C38.923 15.8999 38.9466 15.9993 38.9921 16.0892C39.1182 16.2832 39.2051 16.4999 39.2478 16.7272C39.2478 16.7795 39.2478 16.807 39.0168 16.7272C38.9591 16.7107 36.6903 16.0425 36.4373 15.872C36.1843 15.7015 33.9073 13.243 33.6598 12.7645C33.5251 12.4895 33.3848 12.3272 33.3106 12.3327C32.7798 12.3657 33.6956 13.3227 33.1813 12.9955C33.0493 12.9102 32.6533 12.6325 32.6313 12.6105C32.5323 12.5307 32.5571 12.5692 32.4856 12.4537C32.4433 12.3679 32.3844 12.2912 32.3123 12.2282C32.2546 12.187 32.2188 12.176 32.1776 12.187C32.1363 12.198 32.1088 12.2667 32.0896 12.2722C32.0594 12.269 32.029 12.269 31.9988 12.2722C31.8668 12.3052 31.9658 12.6435 31.9988 12.8002C32.1267 13.1569 32.2869 13.5012 32.4773 13.8287C33.0521 14.2247 33.6186 14.5575 33.6378 14.5795C34.2566 15.2972 34.9826 16.1965 35.6316 16.8785C36.1486 17.4285 38.5081 18.8035 38.5878 18.8392C38.7418 18.9327 38.9866 19.436 38.6346 23.0385C38.5026 24.3942 37.5346 27.2762 37.9938 28.7667C38.5 30.1421 38.8343 31.5747 38.9893 33.032C39.0663 33.6232 38.6071 33.9807 37.9498 34.4565C37.6941 34.6435 36.9736 35.089 36.8993 35.155C36.7783 35.265 36.8993 35.43 37.0478 35.507C37.2434 35.6081 37.4466 35.6936 37.6556 35.7627C38.0416 35.8198 38.4356 35.7431 38.7721 35.5455C39.2506 35.2705 39.2946 35.232 39.5751 35.0615C39.8996 34.8662 40.2901 34.803 40.4001 34.473C40.5348 34.033 40.1636 33.4032 40.2021 33.1172C40.4771 31.0547 40.8263 30.0345 40.3066 28.7695C40.2021 28.5165 41.0601 25.761 41.1316 26.1322C41.2636 26.8582 41.3158 29.017 41.3406 30.623C41.3406 31.3242 41.9153 33.8157 42.0968 34.7095C42.3718 36.0845 40.0481 37.1845 40.5596 37.597C40.7673 37.7389 41.0041 37.8328 41.2526 37.872C41.499 37.9282 41.7565 37.9086 41.9916 37.8158C42.2267 37.7231 42.4282 37.5615 42.5698 37.3522C43.0648 36.7362 42.9136 36.9067 43.3041 36.4667C43.6423 36.0872 43.4003 35.4327 43.3563 35.0917C43.2683 34.3905 43.3426 34.2062 43.3371 32.9467C43.3107 32.1383 43.3669 31.3293 43.5048 30.5322C43.8706 28.1177 44.0961 26.806 44.2088 25.7802V25.7225C44.2088 25.7225 44.3848 25.7857 44.4618 25.6592C44.5457 25.4874 44.5934 25.3002 44.6021 25.1092C44.6323 24.9745 44.6873 25.1477 44.6873 25.1477C44.7432 25.2885 44.7828 25.4352 44.8056 25.585C44.7671 25.7904 44.7024 25.9901 44.6131 26.179C44.5196 26.454 44.7561 26.4925 44.8166 26.5145C45.1556 26.3483 45.4548 26.111 45.6938 25.8187C45.7667 25.617 45.8003 25.4033 45.7928 25.189C45.7607 24.7264 45.6945 24.2668 45.5948 23.814C45.8148 23.1017 46.4006 21.35 46.3126 20.8687ZM44.6626 23.6517C44.5856 23.9955 44.5636 23.6682 44.2391 24.9415L44.2748 24.76C44.2748 24.5812 44.2748 24.4025 44.2748 24.21C44.2748 22.6315 43.0676 19.26 43.7991 19.9777C43.7991 19.9777 44.6791 20.591 44.8496 21.0585C44.9926 21.4297 44.9431 22.439 44.6626 23.6517Z" fill="#0C419A"/>
<path d="M15.2432 27.4192C14.9682 27.1827 14.0195 25.882 13.398 25.3705C13.0844 25.0269 12.7984 24.6591 12.5427 24.2705C11.418 22.7717 11.1677 22.6865 10.3867 22.5545C10.2272 22.4472 10.2795 22.3235 10.296 22.318C10.4306 22.2838 10.5565 22.2214 10.6652 22.1349C10.774 22.0485 10.8631 21.9399 10.9268 21.8165C10.9905 21.693 11.0273 21.5574 11.0347 21.4187C11.0421 21.28 11.0199 21.1413 10.9697 21.0117C10.923 20.8165 11.055 20.7367 11.0522 20.5497C11.0486 20.2961 10.9982 20.0453 10.9037 19.81C10.9349 19.7215 10.9429 19.6266 10.927 19.5342C10.9111 19.4418 10.8719 19.3549 10.813 19.282C10.263 18.589 8.88799 18.556 8.18124 19.0482C7.60924 19.4442 7.94474 19.7192 7.76599 20.2802C7.71888 20.4345 7.7158 20.5989 7.7571 20.7549C7.7984 20.9109 7.88243 21.0522 7.99974 21.163C8.02724 21.35 8.59099 21.713 8.48099 22.109C8.37099 22.505 7.69999 22.604 7.71649 22.604C7.64548 22.6203 7.57701 22.6462 7.51299 22.681C6.46249 23.2805 5.44499 24.1522 5.31299 25.112C5.37074 25.8847 6.56699 26.9985 7.33699 27.587C7.44974 28.9042 8.28574 30.92 8.32424 30.9997C8.43699 31.2417 8.08774 30.8182 7.24624 30.5322C6.83649 30.3947 6.29749 29.8365 6.18199 30.491C6.13249 30.766 6.25074 31.239 5.99224 31.8275C5.79699 32.2757 6.02524 32.9935 6.52024 32.9797C6.87774 32.9797 7.08949 31.8797 7.08949 31.8797C7.08949 31.8797 8.81924 32.7405 9.64424 32.4545C10.1255 32.2867 10.2355 30.359 9.75974 28.6402C9.59199 28.038 10.0705 29.622 11.2255 31.0162C11.4812 31.3242 11.2557 31.5662 11.4235 32.713C11.4707 32.9566 11.4901 33.2047 11.4812 33.4527C11.4482 34.0027 10.9175 34.6655 12.1302 34.9762C13.343 35.287 13.266 35.584 14.0415 35.0642C14.388 34.8305 12.9745 34.6875 12.6995 33.8515C12.6834 33.792 12.6724 33.7313 12.6665 33.67C12.6335 33.01 12.9415 31.47 12.8425 30.953C12.4025 28.3405 11.3052 27.1332 11.165 26.5227C11.165 24.6995 11.033 24.1275 11.2062 24.5372C11.4391 24.9598 11.7048 25.3635 12.001 25.7445C12.0422 25.7967 12.0917 25.8517 12.144 25.9095C12.2416 26.0263 12.3523 26.1315 12.474 26.223C13.2357 26.8885 14.4485 27.6832 14.6107 27.8565C14.6107 27.8565 14.7015 28.6595 15.0315 28.6017C15.3615 28.544 16.7832 27.9115 16.7557 27.752C16.698 27.455 15.2927 27.4632 15.2432 27.4192ZM7.32874 26.4072C7.10874 25.9837 6.50374 25.1972 6.54774 25.068C6.88324 24.518 7.24349 24.3585 7.35074 24.3942C7.45799 24.43 7.32874 26.4072 7.32874 26.4072Z" fill="#0C419A"/>
<path d="M39.3523 42.1977C39.2891 42.1647 38.4338 41.8485 37.6776 40.6385C37.3393 40.0885 34.7983 35.3887 34.4518 34.4702C33.7643 32.6525 28.4018 29.3827 28.1763 29.193C28.0168 29.0637 28.0361 28.7475 28.0966 28.5412C28.5476 27.0122 28.3716 25.6427 28.4568 25.4365C28.6768 24.9167 29.0068 24.1605 28.7621 23.6682L28.2121 22.7937C28.2121 22.7937 31.0473 23.8195 31.7046 23.682C32.2711 23.561 35.1256 21.6002 35.2796 21.515C35.6756 21.3142 36.6243 21.6112 37.5841 20.5662C37.9443 20.173 37.6831 20.0382 37.6171 20.107C37.5844 20.0522 37.5316 20.0123 37.47 19.9959C37.4083 19.9795 37.3427 19.9877 37.2871 20.019C37.0588 20.1482 36.2696 20.3765 36.4153 20.2692C36.9873 19.8402 36.5913 19.7192 36.5913 19.7192C36.3411 19.9255 35.2026 20.2142 34.9826 20.3957C34.7076 20.6075 34.5508 20.789 34.4326 20.8632C33.4652 21.4063 32.4279 21.8143 31.3498 22.076C31.1078 22.131 28.8446 20.6515 27.5356 20.4507C27.0914 20.3496 26.6285 20.3676 26.1936 20.503C25.7261 20.635 25.7618 19.953 26.1083 19.7962C26.2898 19.711 26.5923 19.656 26.7051 19.425C26.7405 19.3336 26.7568 19.236 26.753 19.1381C26.7492 19.0402 26.7254 18.9441 26.6831 18.8557C26.6914 18.8293 26.6939 18.8014 26.6906 18.7739C26.6873 18.7464 26.6782 18.7199 26.6638 18.6962C26.6308 18.6165 26.6363 18.6577 26.6473 18.578C26.6583 18.4982 26.6116 18.4735 26.5923 18.4075C26.5825 18.3563 26.5892 18.3033 26.6116 18.2562C26.8866 18.0252 26.7683 17.918 26.7326 17.885C26.6748 17.8135 26.2513 17.632 26.2156 17.357C26.1662 17.0529 26.0736 16.7575 25.9406 16.4797C25.9131 16.3972 25.8663 15.8857 25.6408 15.6795C25.3658 15.4292 24.7856 15.1295 23.5343 15.4595C23.1328 15.5695 23.2071 15.762 22.2006 15.949C20.9988 16.1717 20.3361 17.9592 20.4433 18.699C20.5313 19.2985 21.0456 19.007 21.0236 19.2737C20.9906 19.689 20.9466 20.3737 21.8266 20.6295C22.0163 20.6845 23.1686 20.5002 23.6058 20.5772C23.6058 20.5772 23.9633 20.6075 23.7846 20.965C23.6966 21.141 22.5416 21.5975 22.2583 21.7185C21.4993 22.032 19.5606 25.2137 18.9748 25.5135C18.6328 25.677 18.3053 25.8693 17.9958 26.0882C17.1983 26.5887 16.4201 27.1882 15.9911 27.1882C15.4191 27.1525 14.9543 27.4275 14.5721 28.2882C14.4593 28.5412 14.5253 28.6705 14.7316 28.7227C14.7746 28.7763 14.8284 28.8201 14.8895 28.8514C14.9507 28.8827 15.0177 28.9007 15.0863 28.9042C15.2568 29.0637 15.4493 28.962 15.5951 28.885C16.0433 28.6402 16.1451 28.4477 16.3211 28.3762C16.7583 28.2332 19.3461 27.235 19.9208 26.7895C20.7953 26.311 22.5553 24.5042 22.9458 24.485C23.3033 24.452 24.1998 25.244 23.9248 26.7675C23.8286 27.2872 23.1796 28.225 22.8248 28.7722C22.1098 29.8557 22.6626 30.8017 22.5223 31.03C21.7826 32.2372 20.8723 33.8515 19.3378 35.232C18.7411 35.6197 17.4816 35.7077 16.8161 35.903C15.2871 36.3512 13.6591 37.4485 12.4958 38.103C12.1108 38.3175 11.7423 37.8555 11.2583 37.8005C10.7743 37.7455 10.7331 38.477 10.4856 39.1397C10.4086 39.3432 10.3756 39.4395 10.0071 40.2562C9.86133 40.5752 9.47908 41.5597 9.86408 41.9667C10.2161 42.4562 11.0521 40.9217 11.6983 40.1737C12.0421 39.7777 12.2483 39.6485 12.9936 39.478C13.4666 39.368 17.2148 38.3505 19.6898 37.8087C19.7503 37.8087 19.8163 37.784 19.8878 37.7647C23.1026 36.9397 26.4356 32.7322 26.4878 32.7515L31.9466 35.4575C32.4966 35.7545 32.4966 36.8187 33.1538 38.0287C33.5443 38.7602 34.1191 39.4037 36.4538 41.689C36.7536 41.9832 36.5061 42.47 36.6436 42.9237C36.7811 43.3775 37.0176 43.4187 37.4548 43.383C37.8921 43.3472 38.2276 43.284 38.6346 43.2565C39.1543 43.2262 39.0141 43.2812 39.6218 43.372C39.9161 43.416 40.5898 43.5122 41.0656 43.0392C41.9098 42.1867 40.1498 42.6157 39.3523 42.1977Z" fill="#0C419A"/>
<path d="M33.4263 39.83C33.4071 39.7908 33.3802 39.7558 33.3472 39.7271C33.3142 39.6985 33.2758 39.6767 33.2343 39.6631C33.1928 39.6496 33.149 39.6444 33.1054 39.6481C33.0619 39.6517 33.0195 39.664 32.9808 39.6842C30.4972 40.9456 27.7386 41.5686 24.954 41.4971C22.1694 41.4255 19.4464 40.6617 17.0308 39.2745C16.993 39.2492 16.9504 39.2319 16.9056 39.2238C16.8609 39.2156 16.8149 39.2167 16.7706 39.227C16.7263 39.2373 16.6845 39.2566 16.648 39.2837C16.6114 39.3108 16.5808 39.345 16.558 39.3844C16.5352 39.4238 16.5207 39.4674 16.5154 39.5126C16.5102 39.5578 16.5142 39.6036 16.5273 39.6472C16.5405 39.6907 16.5624 39.7311 16.5918 39.7659C16.6211 39.8006 16.6573 39.829 16.6981 39.8492C19.2088 41.2902 22.0385 42.0839 24.9324 42.1588C27.8262 42.2337 30.6932 41.5874 33.2751 40.2782C33.3149 40.2592 33.3504 40.2324 33.3797 40.1994C33.4089 40.1664 33.4312 40.1278 33.4453 40.086C33.4594 40.0443 33.465 40.0001 33.4618 39.9561C33.4585 39.9121 33.4464 39.8692 33.4263 39.83Z" fill="#0C419A"/>
<path d="M9.81748 17.9868C9.77013 17.9857 9.72343 17.9754 9.67998 17.9565C9.59984 17.9199 9.53747 17.8531 9.50654 17.7706C9.47561 17.6881 9.47864 17.5968 9.51498 17.5165C11.0052 14.2218 13.4865 11.4743 16.6127 9.65701C16.6504 9.63044 16.6931 9.61197 16.7382 9.60277C16.7834 9.59357 16.8299 9.59385 16.8749 9.60357C16.92 9.6133 16.9625 9.63226 16.9998 9.65927C17.0371 9.68628 17.0684 9.72074 17.0917 9.76047C17.115 9.8002 17.1298 9.84434 17.1352 9.89009C17.1405 9.93583 17.1363 9.9822 17.1228 10.0262C17.1094 10.0703 17.0869 10.111 17.0568 10.1459C17.0268 10.1809 16.9898 10.2091 16.9482 10.229C13.9419 11.9786 11.556 14.6222 10.1227 17.7915C10.0953 17.8495 10.0522 17.8985 9.99819 17.933C9.9442 17.9676 9.88157 17.9862 9.81748 17.9868Z" fill="#0C419A"/>
<path d="M38.2251 13.727C38.1782 13.727 38.1318 13.717 38.0891 13.6975C38.0464 13.6781 38.0083 13.6497 37.9776 13.6142C35.3355 10.6246 31.7143 8.67463 27.7641 8.11422C27.7207 8.10808 27.679 8.09347 27.6414 8.07121C27.6037 8.04896 27.5707 8.0195 27.5444 7.98451C27.4913 7.91386 27.4684 7.825 27.4808 7.73747C27.4932 7.64995 27.5399 7.57094 27.6105 7.51782C27.6812 7.4647 27.7701 7.44183 27.8576 7.45422C31.9647 8.03685 35.7294 10.065 38.4753 13.1742C38.5168 13.2224 38.5437 13.2814 38.5527 13.3443C38.5617 13.4072 38.5525 13.4714 38.5262 13.5293C38.4998 13.5871 38.4575 13.6362 38.4041 13.6708C38.3508 13.7053 38.2886 13.7239 38.2251 13.7242V13.727Z" fill="#0C419A"/>
</g>
<g clip-path="url(#clip1_3144_23250)">
<mask id="mask0_3144_23250" style="mask-type:luminance" maskUnits="userSpaceOnUse" x="-181" y="29" width="506" height="122">
<path d="M-180.471 150.65H324.002V29.8371H-180.471V150.65Z" fill="white"/>
</mask>
<g mask="url(#mask0_3144_23250)">
<mask id="mask1_3144_23250" style="mask-type:luminance" maskUnits="userSpaceOnUse" x="-179" y="34" width="498" height="733">
<path d="M-178.871 34.9976H318.471V766.382H-178.871V34.9976Z" fill="white"/>
</mask>
<g mask="url(#mask1_3144_23250)">
<mask id="mask2_3144_23250" style="mask-type:luminance" maskUnits="userSpaceOnUse" x="-179" y="34" width="498" height="117">
<path d="M-178.871 150.65H318.584V34.9056H-178.871V150.65Z" fill="white"/>
</mask>
<g mask="url(#mask2_3144_23250)">
<mask id="mask3_3144_23250" style="mask-type:luminance" maskUnits="userSpaceOnUse" x="-179" y="34" width="498" height="733">
<path d="M-178.871 766.381H318.47V34.9977H-178.871V766.381Z" fill="white"/>
</mask>
<g mask="url(#mask3_3144_23250)">
<mask id="mask4_3144_23250" style="mask-type:luminance" maskUnits="userSpaceOnUse" x="-179" y="34" width="498" height="117">
<path d="M-178.868 150.654H318.591V34.9109H-178.868V150.654Z" fill="white"/>
</mask>
<g mask="url(#mask4_3144_23250)">
<mask id="mask5_3144_23250" style="mask-type:luminance" maskUnits="userSpaceOnUse" x="0" y="65" width="140" height="54">
<path d="M0 65.2239V118.039H140V65.2239" fill="white"/>
</mask>
<g mask="url(#mask5_3144_23250)">
<path d="M4.70428 113.927C4.70428 113.131 4.66715 112.326 4.62963 111.529C4.78803 111.556 4.93603 111.576 5.08419 111.576C5.23239 111.576 5.3804 111.556 5.53781 111.529C5.50066 112.326 5.4635 113.131 5.4635 113.927V115.521C5.4635 116.317 5.50066 117.123 5.53781 117.919C5.3804 117.89 5.23239 117.872 5.08419 117.872C4.93603 117.872 4.78803 117.89 4.62963 117.919C4.66715 117.123 4.70428 116.317 4.70428 115.521V114.687C4.0565 114.678 3.41679 114.668 2.76899 114.668C2.12061 114.668 1.48169 114.678 0.83311 114.687V115.521C0.83311 116.317 0.870238 117.123 0.907599 117.919C0.749976 117.89 0.601585 117.872 0.453973 117.872C0.305406 117.872 0.157623 117.89 0 117.919C0.0369482 117.123 0.0742841 116.317 0.0742841 115.521V113.927C0.0742841 113.131 0.0369482 112.326 0 111.529C0.157623 111.556 0.305406 111.576 0.453973 111.576C0.601585 111.576 0.749976 111.556 0.907599 111.529C0.870238 112.326 0.83311 113.131 0.83311 113.927V114.252C1.48169 114.261 2.12061 114.28 2.76899 114.28C3.41679 114.28 4.0565 114.261 4.70428 114.252V113.927Z" fill="#1B458F"/>
<path d="M10.2231 112.659L9.21388 115.011C9.5378 115.011 9.89 115.03 10.2143 115.03C10.5568 115.03 10.9088 115.02 11.2516 115.011L10.2231 112.659ZM10.5285 111.409C11.4366 113.558 12.8251 116.928 13.3158 117.919C13.1498 117.89 12.9921 117.872 12.8251 117.872C12.6586 117.872 12.5016 117.89 12.3345 117.919C12.1588 117.279 11.7138 116.261 11.3807 115.436C10.9825 115.428 10.5747 115.418 10.1675 115.418C9.78779 115.418 9.41755 115.428 9.03821 115.436C8.64927 116.391 8.29782 117.335 8.13945 117.919C8.01913 117.89 7.9085 117.872 7.79707 117.872C7.68625 117.872 7.57496 117.89 7.4541 117.919C8.44502 115.752 9.40829 113.595 10.3526 111.409H10.5285Z" fill="#1B458F"/>
<path d="M19.8699 111.529C19.99 111.556 20.1199 111.576 20.2494 111.576C20.3428 111.576 20.444 111.556 20.5275 111.529C20.4534 112.391 20.3791 114.02 20.3607 115.371C20.3428 117.012 19.3888 118.039 17.7215 118.039C15.8884 118.039 15.0734 117.187 15.0734 115.39C15.0734 114.816 15.1196 114.39 15.1196 113.927C15.1196 112.908 15.0824 112.067 15.064 111.529C15.2116 111.556 15.3975 111.576 15.5457 111.576C15.6748 111.576 15.8232 111.556 15.9435 111.529C15.8884 112.076 15.8326 113.335 15.8326 114.706C15.8326 115.965 15.8326 117.604 17.8974 117.604C19.9255 117.604 19.9255 115.706 19.9255 114.539C19.9255 112.78 19.9255 111.89 19.8699 111.529Z" fill="#1B458F"/>
<path d="M24.5188 113.927C24.5188 113.289 24.5094 112.649 24.4913 112.011C23.8521 112.011 23.0277 112.048 22.5098 112.113C22.5369 112.02 22.5556 111.919 22.5556 111.816C22.5556 111.723 22.5369 111.631 22.5098 111.529C23.3058 111.556 24.1021 111.576 24.8985 111.576C25.6948 111.576 26.4906 111.556 27.2878 111.529C27.2597 111.631 27.2412 111.723 27.2412 111.826C27.2412 111.919 27.2597 112.02 27.2878 112.113C26.7689 112.048 25.9451 112.011 25.3057 112.011C25.2876 112.649 25.2778 113.289 25.2778 113.927V115.521C25.2778 116.317 25.3152 117.123 25.3523 117.919C25.1947 117.89 25.0465 117.872 24.8985 117.872C24.7503 117.872 24.6025 117.89 24.4447 117.919C24.4817 117.123 24.5188 116.317 24.5188 115.521V113.927Z" fill="#1B458F"/>
<path d="M29.3743 113.918C29.3743 113.123 29.3375 112.317 29.3008 111.529C29.8562 111.556 30.4026 111.576 30.9584 111.576C31.514 111.576 32.06 111.556 32.6066 111.529C32.5887 111.622 32.5787 111.714 32.5787 111.807C32.5787 111.9 32.5887 111.992 32.6066 112.085C31.829 112.03 31.3748 111.964 30.1711 111.964C30.1616 112.363 30.1343 112.687 30.1343 113.14C30.1343 113.622 30.1434 114.131 30.1434 114.363C31.2359 114.363 31.8468 114.316 32.3937 114.27C32.3752 114.363 32.366 114.465 32.366 114.557C32.366 114.65 32.3752 114.743 32.3937 114.835C31.755 114.77 30.5881 114.751 30.1434 114.751C30.1343 114.974 30.1343 115.205 30.1343 116.095C30.1343 116.798 30.1434 117.252 30.1528 117.483C30.9765 117.483 32.0698 117.474 32.6531 117.363C32.6343 117.447 32.6253 117.567 32.6253 117.651C32.6253 117.733 32.6343 117.835 32.6531 117.919C32.1062 117.89 31.5507 117.872 30.9865 117.872C30.4217 117.872 29.8651 117.89 29.3008 117.919C29.3375 117.113 29.3743 116.307 29.3743 115.511V113.918Z" fill="#1B458F"/>
<path d="M40.4159 112.659L39.4068 115.011C39.7307 115.011 40.0823 115.03 40.407 115.03C40.7488 115.03 41.1014 115.02 41.4431 115.011L40.4159 112.659ZM40.7218 111.409C41.6295 113.558 43.0181 116.928 43.5088 117.919C43.3421 117.89 43.1848 117.872 43.0181 117.872C42.8515 117.872 42.6941 117.89 42.5275 117.919C42.3512 117.279 41.9068 116.261 41.5735 115.436C41.1758 115.428 40.7677 115.418 40.3604 115.418C39.981 115.418 39.6102 115.428 39.2313 115.436C38.8419 116.391 38.4901 117.335 38.3325 117.919C38.212 117.89 38.1008 117.872 37.9897 117.872C37.8785 117.872 37.7674 117.89 37.647 117.919C38.6379 115.752 39.6009 113.595 40.5451 111.409H40.7218Z" fill="#1B458F"/>
<path d="M50.0627 111.529C50.183 111.556 50.3118 111.576 50.4419 111.576C50.5352 111.576 50.6367 111.556 50.7204 111.529C50.6459 112.391 50.5711 114.02 50.5534 115.371C50.534 117.012 49.5813 118.039 47.9137 118.039C46.0799 118.039 45.2656 117.187 45.2656 115.39C45.2656 114.816 45.3123 114.39 45.3123 113.927C45.3123 112.908 45.2753 112.067 45.2563 111.529C45.4041 111.556 45.5892 111.576 45.7373 111.576C45.8674 111.576 46.0155 111.556 46.1358 111.529C46.0799 112.076 46.0247 113.335 46.0247 114.706C46.0247 115.965 46.0247 117.604 48.09 117.604C50.1175 117.604 50.1175 115.706 50.1175 114.539C50.1175 112.78 50.1175 111.89 50.0627 111.529Z" fill="#1B458F"/>
<path d="M54.711 113.927C54.711 113.289 54.7022 112.649 54.6837 112.011C54.0445 112.011 53.2202 112.048 52.7021 112.113C52.7295 112.02 52.7476 111.919 52.7476 111.816C52.7476 111.723 52.7295 111.631 52.7021 111.529C53.4983 111.556 54.2949 111.576 55.091 111.576C55.8872 111.576 56.6838 111.556 57.4799 111.529C57.4521 111.631 57.4332 111.723 57.4332 111.826C57.4332 111.919 57.4521 112.02 57.4799 112.113C56.9619 112.048 56.1371 112.011 55.498 112.011C55.4795 112.649 55.471 113.289 55.471 113.927V115.521C55.471 116.317 55.5076 117.123 55.5447 117.919C55.3869 117.89 55.2392 117.872 55.091 117.872C54.9425 117.872 54.7936 117.89 54.6374 117.919C54.6745 117.123 54.711 116.317 54.711 115.521V113.927Z" fill="#1B458F"/>
<path d="M62.3059 111.752C60.8613 111.752 59.7496 112.668 59.7496 114.724C59.7496 116.78 60.8613 117.697 62.3059 117.697C63.7598 117.697 64.8703 116.78 64.8703 114.724C64.8703 112.668 63.7598 111.752 62.3059 111.752ZM62.3059 111.409C64.3519 111.409 65.7788 112.621 65.7788 114.724C65.7788 116.826 64.3519 118.039 62.3059 118.039C60.268 118.039 58.8428 116.826 58.8428 114.724C58.8428 112.621 60.268 111.409 62.3059 111.409Z" fill="#1B458F"/>
<path d="M68.7991 114.456C68.9649 114.492 69.1782 114.501 69.4193 114.501C70.1785 114.501 71.1868 114.187 71.1868 113.085C71.1868 112.113 70.3829 111.872 69.7526 111.872C69.3259 111.872 69.0494 111.9 68.8542 111.919C68.8264 112.594 68.7991 113.262 68.7991 113.927V114.456ZM68.0375 113.927C68.0375 113.131 68.0009 112.326 67.9639 111.529C68.3157 111.556 68.6683 111.576 69.0205 111.576C69.3727 111.576 69.7256 111.529 70.0766 111.529C71.1236 111.529 72.003 111.89 72.003 112.993C72.003 114.187 70.8084 114.668 70.1048 114.762C70.5577 115.325 72.1049 117.317 72.6418 117.919C72.4559 117.89 72.2719 117.872 72.0856 117.872C71.9105 117.872 71.7237 117.89 71.5486 117.919C71.1787 117.354 69.947 115.65 69.1505 114.844H68.7991V115.521C68.7991 116.317 68.8357 117.123 68.8719 117.919C68.7137 117.89 68.566 117.872 68.4179 117.872C68.2694 117.872 68.1213 117.89 67.9639 117.919C68.0009 117.123 68.0375 116.317 68.0375 115.521V113.927Z" fill="#1B458F"/>
<path d="M74.6581 113.927C74.6581 113.131 74.6203 112.326 74.5845 111.529C74.7407 111.556 74.8892 111.576 75.0369 111.576C75.185 111.576 75.3327 111.556 75.4921 111.529C75.4535 112.326 75.4177 113.131 75.4177 113.927V115.521C75.4177 116.317 75.4535 117.123 75.4921 117.919C75.3327 117.89 75.185 117.872 75.0369 117.872C74.8892 117.872 74.7407 117.89 74.5845 117.919C74.6203 117.123 74.6581 116.317 74.6581 115.521V113.927Z" fill="#1B458F"/>
<path d="M79.3775 113.927C79.3775 113.289 79.3671 112.649 79.3497 112.011C78.711 112.011 77.8862 112.048 77.3662 112.113C77.3956 112.02 77.4145 111.919 77.4145 111.816C77.4145 111.723 77.3956 111.631 77.3662 111.529C78.1632 111.556 78.9589 111.576 79.7559 111.576C80.5533 111.576 81.3486 111.556 82.1456 111.529C82.119 111.631 82.0997 111.723 82.0997 111.826C82.0997 111.919 82.119 112.02 82.1456 112.113C81.6259 112.048 80.8028 112.011 80.164 112.011C80.1455 112.649 80.1346 113.289 80.1346 113.927V115.521C80.1346 116.317 80.1729 117.123 80.2107 117.919C80.0525 117.89 79.904 117.872 79.7559 117.872C79.6082 117.872 79.46 117.89 79.3035 117.919C79.3397 117.123 79.3775 116.317 79.3775 115.521V113.927Z" fill="#1B458F"/>
<path d="M86.3832 109.724C86.5125 109.594 86.6601 109.502 86.7998 109.502C86.9202 109.502 87.1045 109.603 87.1045 109.797C87.1045 110.02 86.9202 110.14 86.7705 110.233L85.41 111.103H85.0211L86.3832 109.724ZM84.0942 113.918C84.0942 113.123 84.0584 112.317 84.0205 111.529C84.5768 111.556 85.1222 111.576 85.678 111.576C86.2347 111.576 86.7809 111.556 87.3287 111.529C87.309 111.622 87.2986 111.714 87.2986 111.807C87.2986 111.9 87.309 111.992 87.3287 112.085C86.5503 112.03 86.0958 111.964 84.8916 111.964C84.8815 112.363 84.8537 112.687 84.8537 113.14C84.8537 113.622 84.8646 114.131 84.8646 114.363C85.9558 114.363 86.5688 114.316 87.1134 114.27C87.0957 114.363 87.0872 114.465 87.0872 114.557C87.0872 114.65 87.0957 114.743 87.1134 114.835C86.4742 114.77 85.3082 114.751 84.8646 114.751C84.8537 114.974 84.8537 115.205 84.8537 116.095C84.8537 116.798 84.8646 117.252 84.873 117.483C85.6982 117.483 86.789 117.474 87.3726 117.363C87.3541 117.447 87.3456 117.567 87.3456 117.651C87.3456 117.733 87.3541 117.835 87.3726 117.919C86.8272 117.89 86.2706 117.872 85.7066 117.872C85.1415 117.872 84.5856 117.89 84.0205 117.919C84.0584 117.113 84.0942 116.307 84.0942 115.511V113.918Z" fill="#1B458F"/>
<path d="M93.8424 115.521C93.8424 116.178 93.8605 116.845 93.8983 117.483C94.1567 117.539 94.6394 117.576 95.1103 117.576C96.4728 117.576 97.9544 117.04 97.9544 114.594C97.9544 112.445 96.8427 111.919 95.324 111.919C94.7782 111.919 94.2775 111.964 93.8983 112.011C93.8605 112.603 93.8424 113.262 93.8424 113.927V115.521ZM93.0825 113.927C93.0825 113.131 93.0462 112.326 93.0088 111.529C93.4713 111.556 93.9454 111.576 94.4067 111.576C94.8696 111.576 95.3429 111.529 95.8066 111.529C97.9717 111.529 98.8624 112.687 98.8624 114.594C98.8624 117.067 96.9546 117.919 95.491 117.919C95.0749 117.919 94.6663 117.872 94.2497 117.872C93.8331 117.872 93.425 117.89 93.0088 117.919C93.0462 117.123 93.0825 116.317 93.0825 115.521V113.927Z" fill="#1B458F"/>
<path d="M101.077 113.918C101.077 113.123 101.041 112.317 101.002 111.529C101.558 111.556 102.104 111.576 102.659 111.576C103.215 111.576 103.761 111.556 104.309 111.529C104.29 111.622 104.281 111.714 104.281 111.807C104.281 111.9 104.29 111.992 104.309 112.085C103.531 112.03 103.078 111.964 101.872 111.964C101.864 112.363 101.836 112.687 101.836 113.14C101.836 113.622 101.844 114.131 101.844 114.363C102.938 114.363 103.549 114.316 104.095 114.27C104.076 114.363 104.067 114.465 104.067 114.557C104.067 114.65 104.076 114.743 104.095 114.835C103.456 114.77 102.288 114.751 101.844 114.751C101.836 114.974 101.836 115.205 101.836 116.095C101.836 116.798 101.844 117.252 101.854 117.483C102.678 117.483 103.771 117.474 104.355 117.363C104.336 117.447 104.327 117.567 104.327 117.651C104.327 117.733 104.336 117.835 104.355 117.919C103.807 117.89 103.251 117.872 102.688 117.872C102.122 117.872 101.567 117.89 101.002 117.919C101.041 117.113 101.077 116.307 101.077 115.511V113.918Z" fill="#1B458F"/>
<path d="M109.861 116.687C110.064 117.123 110.528 117.651 111.323 117.651C112.147 117.651 112.649 117.048 112.649 116.307C112.649 114.604 109.73 115.335 109.73 113.159C109.73 112.131 110.509 111.409 111.739 111.409C112.324 111.409 112.74 111.548 113.11 111.844C112.999 112.057 112.934 112.27 112.861 112.621H112.75C112.62 112.28 112.342 111.752 111.649 111.752C110.952 111.752 110.453 112.224 110.453 112.899C110.453 114.631 113.37 113.909 113.37 115.956C113.37 117.085 112.528 118.039 111.101 118.039C110.333 118.039 109.897 117.77 109.574 117.512C109.686 117.224 109.713 117.04 109.749 116.687H109.861Z" fill="#1B458F"/>
<path d="M117.604 112.659L116.595 115.011C116.92 115.011 117.272 115.03 117.595 115.03C117.938 115.03 118.291 115.02 118.633 115.011L117.604 112.659ZM117.91 111.409C118.817 113.558 120.206 116.928 120.698 117.919C120.531 117.89 120.373 117.872 120.206 117.872C120.04 117.872 119.881 117.89 119.716 117.919C119.541 117.279 119.095 116.261 118.763 115.436C118.363 115.428 117.957 115.418 117.549 115.418C117.17 115.418 116.798 115.428 116.419 115.436C116.031 116.391 115.679 117.335 115.52 117.919C115.399 117.89 115.29 117.872 115.177 117.872C115.068 117.872 114.956 117.89 114.834 117.919C115.826 115.752 116.79 113.595 117.735 111.409H117.91Z" fill="#1B458F"/>
<path d="M127.798 118.039C126.392 116.382 124.706 114.604 123.122 112.918C123.112 113.262 123.094 113.817 123.094 114.799C123.094 115.594 123.132 117.549 123.179 117.919C123.075 117.891 122.965 117.872 122.854 117.872C122.743 117.872 122.631 117.891 122.51 117.919C122.584 117.483 122.705 115.114 122.705 113.89C122.705 112.724 122.705 111.826 122.677 111.409H122.825C124.335 113.048 126.381 115.28 127.511 116.419C127.511 114.762 127.511 112.955 127.438 111.529C127.54 111.556 127.65 111.576 127.753 111.576C127.854 111.576 127.946 111.556 128.05 111.529C127.992 112.076 127.901 113.909 127.901 114.631C127.901 115.576 127.921 117.622 127.929 118.039H127.798Z" fill="#1B458F"/>
<path d="M131.968 113.927C131.968 113.289 131.96 112.649 131.941 112.011C131.302 112.011 130.477 112.048 129.959 112.113C129.987 112.02 130.005 111.919 130.005 111.816C130.005 111.723 129.987 111.631 129.959 111.529C130.756 111.556 131.551 111.576 132.349 111.576C133.144 111.576 133.942 111.556 134.737 111.529C134.709 111.631 134.692 111.723 134.692 111.826C134.692 111.919 134.709 112.02 134.737 112.113C134.218 112.048 133.394 112.011 132.756 112.011C132.737 112.649 132.727 113.289 132.727 113.927V115.521C132.727 116.317 132.766 117.123 132.801 117.919C132.645 117.89 132.497 117.872 132.349 117.872C132.199 117.872 132.053 117.89 131.894 117.919C131.932 117.123 131.968 116.317 131.968 115.521V113.927Z" fill="#1B458F"/>
<path d="M139.008 109.724C139.14 109.594 139.287 109.502 139.425 109.502C139.545 109.502 139.731 109.603 139.731 109.797C139.731 110.02 139.545 110.14 139.398 110.233L138.037 111.103H137.649L139.008 109.724ZM136.722 113.918C136.722 113.123 136.684 112.317 136.647 111.529C137.203 111.556 137.749 111.576 138.305 111.576C138.86 111.576 139.408 111.556 139.953 111.529C139.935 111.622 139.926 111.714 139.926 111.807C139.926 111.9 139.935 111.992 139.953 112.085C139.176 112.03 138.721 111.964 137.517 111.964C137.509 112.363 137.481 112.687 137.481 113.14C137.481 113.622 137.49 114.131 137.49 114.363C138.584 114.363 139.194 114.316 139.74 114.27C139.721 114.363 139.712 114.465 139.712 114.557C139.712 114.65 139.721 114.743 139.74 114.835C139.101 114.77 137.936 114.751 137.49 114.751C137.481 114.974 137.481 115.205 137.481 116.095C137.481 116.798 137.49 117.252 137.5 117.483C138.323 117.483 139.416 117.474 140 117.363C139.981 117.447 139.973 117.567 139.973 117.651C139.973 117.733 139.981 117.835 140 117.919C139.454 117.89 138.898 117.872 138.334 117.872C137.767 117.872 137.213 117.89 136.647 117.919C136.684 117.113 136.722 116.307 136.722 115.511V113.918Z" fill="#1B458F"/>
<path d="M49.3945 73.6471C49.3406 72.1688 49.2838 70.6618 49.2222 69.1237H52.6488C52.5711 70.659 52.4987 72.1702 52.4343 73.6471C52.3694 75.125 52.3694 87.2168 52.4343 88.7062C52.4987 90.1955 52.5711 91.6644 52.6488 93.1056H49.2222C49.2838 91.6623 49.3406 90.1972 49.3945 88.7062C49.4448 87.2166 49.4018 81.0211 49.4018 81.0211C48.1411 81.0006 36.1612 81.0006 34.9016 81.0211C34.9016 81.0211 34.8643 87.2166 34.9297 88.7062C34.9947 90.1972 35.0661 91.6623 35.1441 93.1056H31.7183C31.7802 91.6644 31.8368 90.1955 31.8885 88.7062C31.941 87.2168 31.941 75.125 31.8885 73.6471C31.8368 72.1702 31.7802 70.659 31.7183 69.1237H35.1441C35.0661 70.6618 34.9947 72.1688 34.9297 73.6471C34.8643 75.1278 34.9016 79.4017 34.9016 79.4017C36.1612 79.4303 48.1411 79.4303 49.4018 79.4017C49.4018 79.4017 49.4448 75.1278 49.3945 73.6471Z" fill="#1B458F"/>
<path d="M104.102 89.6475C105.664 89.4257 107.008 89.0743 107.692 88.7343C108.153 87.8238 108.373 86.846 108.373 85.817C108.373 78.0906 94.14 80.8175 94.14 74.28C94.14 71.7274 96.5796 70.0826 99.9675 70.0826C103.087 70.0826 105.213 71.9239 105.846 73.2179L107.108 70.2943C105.3 69.176 103.267 68.6517 100.42 68.6517C94.4101 68.6517 90.6152 71.3784 90.6152 75.2589C90.6152 83.4745 104.849 80.7124 104.849 87.1454C104.849 88.0612 104.596 88.9053 104.102 89.6475Z" fill="#1B458F"/>
<path d="M81.9204 99.8796H87.504C86.9719 99.0149 85.1485 95.2237 84.754 94.3311L79.2119 93.0874C79.5854 93.8529 81.2281 97.7854 81.9204 99.8796Z" fill="#1B458F"/>
<path d="M81.2404 86.6183C80.7208 85.4884 71.7847 65.2239 71.7847 65.2239H70.5092C70.5092 65.2239 56.9974 94.1043 54.1528 99.8796H58.0515C59.9385 93.6452 64.9678 83.1954 69.9094 71.9698C69.9094 71.9698 73.8492 80.9119 76.1894 86.2229C77.9109 86.2229 79.5857 86.3752 81.2404 86.6183Z" fill="#1B458F"/>
<path d="M62.4448 92.269C64.6956 89.5498 68.0091 86.2228 76.1893 86.2228C84.6081 86.2228 91.9298 89.8762 100.977 89.8762C103.689 89.8762 106.573 89.2899 107.692 88.7343C105.86 92.1129 101.733 93.6722 96.6806 93.6722C88.799 93.6722 79.5253 90.1311 72.0483 90.1311C68.4297 90.1311 65.1348 90.7735 62.4448 92.269Z" fill="#E51B24"/>
</g>
</g>
</g>
</g>
</g>
</g>
</g>
<defs>
<clipPath id="clip0_3144_23250">
<rect width="165" height="48.642" fill="white" transform="translate(0 0.582031)"/>
</clipPath>
<clipPath id="clip1_3144_23250">
<rect width="140" height="52.8151" fill="white" transform="translate(0 65.224)"/>
</clipPath>
</defs>
</svg>
