<svg width="32" height="32" viewBox="0 0 32 32" fill="none" xmlns="http://www.w3.org/2000/svg">
<g clip-path="url(#clip0_3144_2886)">
<rect width="32" height="32" rx="16" fill="#2D6DEA" fill-opacity="0.2"/>
<g clip-path="url(#clip1_3144_2886)">
<path d="M8.00084 14.2222C7.78751 14.2222 7.60084 14.3022 7.4764 14.4445C7.35195 14.5778 7.29862 14.7733 7.32529 14.9867L7.76973 17.6445C7.84084 18.2222 8.3564 18.6667 8.88973 18.6667H11.5564C12.1253 18.6667 12.7653 18.1689 12.8897 17.6178L13.832 14.7822C13.8675 14.6667 13.8408 14.4978 13.7786 14.3911C13.6808 14.2845 13.5297 14.2222 13.3342 14.2222H8.00084ZM11.5564 20.4445H8.88973C7.44973 20.4445 6.18751 19.3245 6.00973 17.9022L5.56529 15.2445C5.46751 14.4889 5.68084 13.7778 6.14306 13.2622C6.60529 12.7467 7.28084 12.4445 8.00084 12.4445H13.3342C14.072 12.4445 14.7386 12.7556 15.1653 13.2978C15.2631 13.4311 15.352 13.5733 15.4231 13.7333C15.8053 13.6533 16.1964 13.6533 16.5697 13.7333C16.6408 13.5733 16.7297 13.4311 16.8364 13.2978C17.2542 12.7556 17.9208 12.4445 18.6675 12.4445H24.0008C24.7208 12.4445 25.3964 12.7467 25.8586 13.2622C26.312 13.7778 26.5253 14.4889 26.4364 15.2089L25.9831 17.9378C25.8142 19.3245 24.5431 20.4445 23.112 20.4445H20.4453C19.0586 20.4445 17.7075 19.3867 17.3697 18.0445L16.5697 15.6356C16.232 15.3867 15.7608 15.3867 15.4231 15.6356L14.6053 18.1067C14.2853 19.3956 12.9431 20.4445 11.5564 20.4445ZM18.6675 14.2222C18.472 14.2222 18.3208 14.2845 18.2231 14.3911C18.152 14.4978 18.1342 14.6667 18.1786 14.8445L19.0764 17.5556C19.2364 18.1689 19.8764 18.6667 20.4453 18.6667H23.112C23.6364 18.6667 24.1608 18.2222 24.2231 17.68L24.6764 14.9511C24.7031 14.7733 24.6497 14.5778 24.5253 14.4445C24.459 14.3719 24.3778 14.3145 24.2873 14.2761C24.1968 14.2378 24.0991 14.2194 24.0008 14.2222H18.6675Z" fill="#2D6DEA"/>
</g>
</g>
<defs>
<clipPath id="clip0_3144_2886">
<rect width="32" height="32" fill="white"/>
</clipPath>
<clipPath id="clip1_3144_2886">
<rect width="21.3333" height="21.3333" fill="white" transform="translate(5.3335 5.33337)"/>
</clipPath>
</defs>
</svg>
