<svg width="41" height="40" viewBox="0 0 41 40" fill="none" xmlns="http://www.w3.org/2000/svg">
<g clip-path="url(#clip0_3144_560)">
<path d="M24.002 20.675L24.667 23.3334" stroke="#4C1691" stroke-width="2" stroke-linecap="round" stroke-linejoin="round"/>
<path d="M27.1663 11.6667H13.833" stroke="#4C1691" stroke-width="2" stroke-linecap="round" stroke-linejoin="round"/>
<path d="M17.1663 5H23.833C24.7171 5 25.5649 5.35119 26.19 5.97631C26.8152 6.60143 27.1663 7.44928 27.1663 8.33333V15C27.1663 16.7681 26.464 18.4638 25.2137 19.714C23.9635 20.9643 22.2678 21.6667 20.4997 21.6667C18.7316 21.6667 17.0359 20.9643 15.7856 19.714C14.5354 18.4638 13.833 16.7681 13.833 15V8.33333C13.833 7.44928 14.1842 6.60143 14.8093 5.97631C15.4344 5.35119 16.2823 5 17.1663 5Z" stroke="#4C1691" stroke-width="2" stroke-linecap="round" stroke-linejoin="round"/>
<path d="M17.002 20.675L15.7637 25.6284" stroke="#4C1691" stroke-width="2" stroke-linecap="round" stroke-linejoin="round"/>
<path d="M22.1667 26.7738C21.0031 27.0047 19.8053 27.002 18.6428 26.7659C17.4803 26.5298 16.3763 26.065 15.395 25.3984C15.0623 25.177 14.6552 25.0967 14.2633 25.1751L9.52 26.1234C8.38639 26.35 7.36632 26.9624 6.63338 27.8564C5.90045 28.7504 5.49993 29.8707 5.5 31.0267V31.6667" stroke="#4C1691" stroke-width="2" stroke-linecap="round" stroke-linejoin="round"/>
<path d="M13.833 25.2617V31.6667" stroke="#4C1691" stroke-width="2" stroke-linecap="round" stroke-linejoin="round"/>
<path d="M13.833 36.6667C15.2137 36.6667 16.333 35.5475 16.333 34.1667C16.333 32.786 15.2137 31.6667 13.833 31.6667C12.4523 31.6667 11.333 32.786 11.333 34.1667C11.333 35.5475 12.4523 36.6667 13.833 36.6667Z" stroke="#4C1691" stroke-width="2" stroke-linecap="round" stroke-linejoin="round"/>
<path d="M30.2171 27.5286L30.4999 27.8158L30.7923 27.5068C31.0378 27.2448 31.3338 27.0353 31.6626 26.8909C31.9913 26.7465 32.3458 26.6702 32.7049 26.6666C33.0639 26.663 33.4199 26.7322 33.7514 26.87C34.083 27.0077 34.3832 27.2112 34.6339 27.4682L34.6934 27.5286C35.2105 28.06 35.4999 28.7723 35.4999 29.5139C35.4999 30.2555 35.2105 30.9678 34.6934 31.4993L31.7696 34.4681C31.6038 34.6365 31.4061 34.7703 31.1882 34.8616C30.9702 34.9529 30.7362 34.9999 30.4999 34.9999C30.2636 34.9999 30.0296 34.9529 29.8117 34.8616C29.5937 34.7703 29.3961 34.6365 29.2303 34.4681L26.3066 31.4994C25.7894 30.9679 25.5 30.2556 25.5 29.514C25.5 28.7724 25.7894 28.0601 26.3066 27.5286C26.5619 27.2692 26.8662 27.0633 27.2019 26.9227C27.5376 26.7821 27.8979 26.7097 28.2618 26.7097C28.6258 26.7097 28.9861 26.7821 29.3217 26.9227C29.6574 27.0633 29.9618 27.2692 30.2171 27.5286Z" stroke="#4C1691" stroke-width="2" stroke-linecap="round" stroke-linejoin="round"/>
</g>
<defs>
<clipPath id="clip0_3144_560">
<rect width="40" height="40" fill="white" transform="translate(0.5)"/>
</clipPath>
</defs>
</svg>
