<svg width="40" height="40" viewBox="0 0 40 40" fill="none" xmlns="http://www.w3.org/2000/svg">
<path d="M3.82864 19.522C4.08096 19.1176 4.51301 18.9125 4.95313 18.9851C5.68475 19.1049 6.41751 19.3112 7.12723 19.5117C7.83235 19.7098 8.49714 19.8976 9.10662 19.9875C9.98802 20.1177 11.0088 20.2467 11.9582 20.1269C13.0815 19.9863 13.8765 19.6741 14.3201 19.2006C14.6669 18.8307 15.0379 18.2731 15.3374 17.6717C15.4918 17.3629 15.6554 17.0656 15.8167 16.7741C15.8363 16.7396 15.8548 16.7039 15.8743 16.6693C15.5402 16.4907 15.2695 16.2557 15.0667 15.9699C14.8028 15.5978 14.6796 15.1289 14.7199 14.6761C14.0148 14.4099 13.4756 14.0562 13.0735 13.5988C12.5469 12.9986 12.3015 12.1356 12.4237 11.374C11.8476 11.162 11.3268 10.859 10.8602 10.5883C10.5364 10.4005 10.0468 10.1159 9.74722 9.61586C9.61127 9.39004 9.53061 9.12735 9.51218 8.86005C8.5847 8.5651 7.76668 7.98787 7.18945 7.22054C6.40369 6.17324 6.0903 4.7826 6.35184 3.50026C6.39101 3.31015 6.45899 3.06359 6.64218 2.83777C6.83574 2.60043 7.20673 2.31931 7.87728 2.33659C9.80828 2.37807 11.5238 2.29511 12.8384 2.09349C13.8016 1.94601 14.7533 2.00477 15.569 2.07275C17.4539 2.22829 19.2628 2.89308 20.7998 3.99453C21.6524 4.60517 22.3897 5.32756 23.1041 6.02692L25.7056 8.57432C25.8807 8.74599 26.0616 8.92226 26.2252 9.00176C26.4868 9.12735 26.8773 9.09278 27.3255 9.02826C28.0088 8.29089 28.8314 7.75629 29.7116 7.47747C30.8304 7.12376 32.0355 7.20096 33.0194 7.69062C33.2706 7.8162 33.6255 8.03281 33.8847 8.23904C34.5403 8.10885 35.5761 8.11922 35.9206 8.87503C36.0657 9.19302 36.0024 9.56171 35.7581 9.81287C35.674 9.90044 35.5818 9.9903 35.4885 10.0813C35.3145 10.2518 35.0818 10.4788 34.9746 10.6355C34.9516 11.5457 34.8295 12.623 34.1751 13.7717C33.7971 14.4341 33.2706 15.0793 32.5644 15.7441C32.3984 15.9008 32.2256 16.0229 32.0735 16.1313C31.9203 16.2407 31.7751 16.3432 31.7002 16.4389C31.5666 16.6071 31.4744 16.8629 31.3834 17.1313C31.2739 17.4574 31.1679 17.7984 31.0643 18.1291L31.0228 18.2604C30.9018 18.8192 30.9387 19.5773 31.1149 20.1085C31.1956 20.3516 31.3108 20.5993 31.4341 20.8654C31.5343 21.082 31.638 21.3055 31.7313 21.544C32.471 23.452 32.1484 25.413 31.7475 26.7229C31.2578 28.3233 30.4386 29.7542 29.6471 31.1391C28.9074 32.433 28.1424 33.7695 27.1504 34.9654C25.9902 36.363 24.6952 37.3342 23.3022 37.8538C23.1087 37.9264 22.8748 38.0002 22.6075 38.0002C22.5418 38.0002 22.475 37.9956 22.4093 37.9863C21.6719 37.8838 21.1408 37.2351 21.0244 36.295C20.8931 35.2442 21.1051 34.2303 21.354 33.357C21.2076 33.2602 21.0763 33.1392 20.9691 32.9987C20.6949 32.6404 20.5647 32.1853 20.5728 31.608C20.5786 31.1944 20.6419 30.7854 20.7641 30.3879C20.5186 30.0941 20.3735 29.7093 20.3689 29.3245C20.3631 28.7922 20.5751 28.3532 20.7456 27.9995L20.756 27.9788C20.7272 27.9246 20.6811 27.8451 20.6108 27.7311L20.5889 27.6942C20.2629 27.1608 20.1488 26.5732 20.2513 25.9764C17.901 25.9153 15.4446 25.3565 12.9421 24.3126C12.3879 24.4532 10.6044 24.9325 9.40503 25.3853C9.32784 25.4141 9.20571 25.4671 9.064 25.527C8.98104 25.5627 8.89117 25.6007 8.799 25.6388C8.33469 25.8335 7.82313 25.8312 7.35997 25.6342C6.88874 25.4337 6.52581 25.0569 6.33916 24.5753C6.30921 24.4981 6.29078 24.4209 6.28156 24.3391C5.97624 24.1813 5.72046 23.9463 5.55225 23.664C5.4163 23.437 5.34026 23.187 5.32873 22.9324C4.61671 22.5464 4.40586 22.3033 3.81251 21.4645C3.43114 20.9253 3.51295 20.0244 3.82748 19.522H3.82864ZM7.05465 22.8356C7.08576 22.8529 7.12839 22.8667 7.17447 22.8644C7.46366 22.8425 7.74363 22.9681 7.91991 23.1974C8.16417 23.5142 8.11463 23.8437 8.04319 24.0845C8.07776 24.0937 8.11347 24.0914 8.14688 24.0776C8.2356 24.0407 8.32201 24.0039 8.40727 23.967C8.56511 23.9002 8.69992 23.8426 8.80591 23.8022C9.6274 23.4912 10.662 23.1824 11.3844 22.9785C12.9433 22.5383 13.0539 22.5199 13.3534 22.6489C16.1889 23.8679 18.9287 24.4117 21.4968 24.2666C24.4233 24.1018 27.0191 22.6939 28.2738 20.5935C28.8037 19.7052 29.1183 18.6948 29.4547 17.6175C29.5595 17.2811 29.6679 16.9331 29.7831 16.591C29.9179 16.1912 30.0746 15.7695 30.3764 15.3881C30.6011 15.1047 30.8742 14.91 31.0954 14.7521C31.214 14.668 31.3258 14.5885 31.4076 14.5113C31.9906 13.9629 32.4157 13.4456 32.7084 12.9317C33.175 12.1126 33.2787 11.3349 33.2891 10.4189C33.2902 10.3267 33.3063 10.2357 33.3374 10.1481L32.8731 9.59281C32.7648 9.49373 32.4653 9.29902 32.2682 9.20108C31.6737 8.90498 30.9283 8.8635 30.2243 9.08702C29.5526 9.30017 28.9247 9.73914 28.4074 10.359C28.2738 10.5191 28.0871 10.6228 27.882 10.6528L27.7518 10.6724C27.0917 10.7715 26.2713 10.8947 25.4971 10.5237C25.0823 10.3244 24.7735 10.0226 24.527 9.78061L21.9254 7.23322C21.2572 6.5788 20.567 5.90248 19.8193 5.36674C18.53 4.44271 17.0138 3.88623 15.4342 3.75488C14.7141 3.69497 13.88 3.64197 13.0988 3.7618C11.7197 3.97379 9.9523 4.06481 7.97982 4.02679C7.87844 4.78836 8.08352 5.5891 8.54438 6.2032C9.04441 6.86914 9.83709 7.30695 10.6666 7.37378C11.0226 7.40258 11.3245 7.65375 11.4155 7.99939C11.4893 8.27706 11.4144 8.57201 11.2266 8.7817C11.3222 8.89807 11.5365 9.0225 11.7116 9.12389C12.328 9.48221 13.0274 9.88892 13.6991 9.94998C14.0274 9.97994 14.3097 10.2 14.4192 10.5111C14.5286 10.8222 14.4468 11.1713 14.2095 11.3994C13.9652 11.6356 14.0839 12.184 14.3443 12.4801C14.7498 12.9421 15.4538 13.1656 16.0898 13.3223C16.4078 13.4018 16.6543 13.661 16.7166 13.9825C16.7765 14.2936 16.6566 14.6127 16.4089 14.8074C16.4009 14.8489 16.4089 14.9365 16.447 14.9883C16.5656 15.1554 16.8468 15.2844 17.2177 15.3432C17.4804 15.3847 17.712 15.5506 17.8353 15.7856C17.9586 16.0218 17.9632 16.3052 17.848 16.546C17.6728 16.9089 17.4827 17.2534 17.2984 17.5876C17.1405 17.8744 16.9908 18.1441 16.8525 18.4229C16.6348 18.8584 16.1774 19.6891 15.5563 20.3516C14.8363 21.1212 13.6968 21.6086 12.1702 21.7998C11.0088 21.945 9.85322 21.801 8.86122 21.6558C8.14458 21.5498 7.39453 21.339 6.66868 21.135C6.25736 21.0198 5.83568 20.9011 5.42321 20.8021C5.75848 21.2595 5.88061 21.3205 6.66983 21.7146C6.88298 21.8217 7.04198 22.0141 7.1065 22.2434C7.16065 22.4393 7.14221 22.6478 7.05695 22.831L7.05465 22.8356ZM22.9612 32.0171C23.2423 32.2337 23.3587 32.6047 23.2515 32.9434C22.9359 33.9377 22.5775 35.0645 22.7054 36.0864C22.7146 36.1556 22.7273 36.2143 22.7411 36.2593C23.8449 35.841 24.891 35.0426 25.8531 33.8847C26.7518 32.8028 27.4788 31.5297 28.1827 30.2992C28.9282 28.995 29.699 27.647 30.1333 26.2275C30.4559 25.1733 30.7221 23.611 30.1575 22.1547C30.0849 21.9657 29.9962 21.7756 29.9017 21.574C29.866 21.4968 29.8303 21.4196 29.7957 21.3424C29.7727 21.3827 29.7497 21.4231 29.7266 21.4611C28.2645 23.9105 25.3277 25.6111 22.0383 25.9222C21.8678 26.246 21.8667 26.5386 22.0326 26.8105L22.0533 26.8439C22.2745 27.2034 22.4738 27.5571 22.4842 27.9246C22.4946 28.268 22.3621 28.5433 22.2907 28.692L22.2699 28.7334C22.18 28.9201 22.0867 29.1113 22.0683 29.2519C22.2653 29.3153 22.4358 29.4512 22.5407 29.6356C22.6835 29.8844 22.6904 30.1863 22.5603 30.4421C22.3725 30.8073 22.2711 31.2186 22.2653 31.6288C22.2642 31.7313 22.2711 31.8039 22.2791 31.8569C22.5142 31.8097 22.7642 31.8638 22.9612 32.0159V32.0171Z" fill="#4C1691" stroke="#4C1691" stroke-width="0.2"/>
<path d="M30.8133 9.47983H30.819C31.0875 9.4614 31.364 9.58583 31.5011 9.7863C31.6463 9.9741 31.6624 10.2011 31.6751 10.3843L31.6797 10.4499L31.6774 10.4741C31.6578 10.6907 31.5679 10.8808 31.4147 11.026C31.2672 11.1597 31.0932 11.2253 30.8824 11.2253C30.864 11.2253 30.8444 11.2253 30.8259 11.2242C30.5241 11.2138 30.3536 11.0663 30.2637 10.9408C30.122 10.7564 30.0459 10.5525 30.0448 10.3497C30.0379 10.1515 30.1128 9.94991 30.2602 9.76556C30.387 9.58813 30.5967 9.47983 30.8133 9.47983Z" fill="#4C1691"/>
</svg>
