<svg width="40" height="40" viewBox="0 0 40 40" fill="none" xmlns="http://www.w3.org/2000/svg">
<g clip-path="url(#clip0_3144_572)">
<path d="M21.667 26.6666H28.3337M11.667 26.21L13.1987 27.59L16.2837 24.8133M21.667 18.3333H28.3337M11.667 17.8766L13.1987 19.2566L16.282 16.48" stroke="#4C1691" stroke-width="2" stroke-linecap="round" stroke-linejoin="round"/>
<path d="M26.6667 5V10M20 5V10M13.3333 5V10M31.6667 6.66667H8.33333C6.49167 6.66667 5 8.15833 5 10V31.6667C5 33.5083 6.49167 35 8.33333 35H31.6667C33.5083 35 35 33.5083 35 31.6667V10C35 8.15833 33.5083 6.66667 31.6667 6.66667Z" stroke="#4C1691" stroke-width="2" stroke-linecap="round" stroke-linejoin="round"/>
</g>
<defs>
<clipPath id="clip0_3144_572">
<rect width="40" height="40" fill="white"/>
</clipPath>
</defs>
</svg>
