<svg width="520" height="472" viewBox="0 0 520 472" fill="none" xmlns="http://www.w3.org/2000/svg">
<g clip-path="url(#clip0_2773_31947)">
<path d="M462.849 632.097C458.926 671.364 428.998 723.887 382.885 740.574C336.767 757.265 270.037 740.574 251.394 731.737C232.752 722.9 206.258 706.702 206.258 706.702C206.258 706.702 144.439 747.446 88.9939 732.724C33.5545 717.998 1.17412 662.044 8.5366 598.724C15.8939 535.404 38.9529 480.922 79.6778 440.667C110.359 410.33 162.91 389.064 186.956 380.424C191.341 404.492 198.813 446.255 200.86 462.26C203.806 485.335 209.204 562.888 209.204 562.888L273.965 556.998C273.965 556.998 279.358 470.12 283.775 428.887C286.445 403.92 289.838 384.895 292.099 373.771C313.412 379.541 358.143 396.248 400.546 441.16C458.926 503.009 466.777 592.835 462.849 632.097Z" stroke="white" stroke-width="2" stroke-miterlimit="10"/>
<path d="M292.099 373.771C289.839 384.895 286.446 403.92 283.775 428.888C279.359 470.12 273.965 556.998 273.965 556.998L209.205 562.888C209.205 562.888 203.801 485.335 200.86 462.26C198.813 446.255 191.347 404.492 186.956 380.424C194.823 377.591 199.634 376.115 199.634 376.115L279.359 370.964C279.359 370.964 284.061 371.587 292.099 373.771Z" fill="#EB8B8B"/>
<path d="M179.516 474.861C178.336 474.861 177.276 474.029 177.032 472.828C176.689 471.123 168.667 430.707 175.567 398.415C183.87 359.553 218.598 354.568 243.996 354.194C260.118 353.965 274.552 358.618 285.734 367.673C295.627 375.684 302.345 386.615 304.657 398.457C308.834 419.832 308.637 431.17 308.626 431.637C308.595 433.036 307.452 434.138 306.034 434.117C304.636 434.086 303.524 432.927 303.555 431.523C303.555 431.414 303.732 420.186 299.679 399.424C295.881 379.967 277.218 359.252 245.165 359.252C244.801 359.252 244.437 359.252 244.068 359.262C226.06 359.527 212.384 362.438 202.258 368.167C190.739 374.686 183.631 384.926 180.524 399.471C173.847 430.717 181.916 471.409 181.999 471.82C182.274 473.192 181.391 474.533 180.014 474.809C179.843 474.845 179.677 474.861 179.51 474.861H179.516Z" fill="#F3A8A3"/>
<path d="M132.307 456.272L131.813 456.351C132.943 463.362 135.763 481.863 138.364 500.413C140.967 518.976 143.342 537.544 143.591 544.72C143.593 544.797 143.536 544.855 143.468 544.859H143.457C143.385 544.859 143.325 544.799 143.323 544.73L143.323 544.728C143.075 537.517 140.693 518.92 138.096 500.41C135.498 481.885 132.679 463.403 131.548 456.395L131.548 456.395L131.548 456.393C131.536 456.32 131.582 456.253 131.66 456.24L131.66 456.24L131.663 456.24C131.726 456.229 131.801 456.277 131.813 456.353L132.307 456.272ZM132.307 456.272C132.25 455.923 131.917 455.689 131.579 455.747L143.478 545.359C143.831 545.349 144.101 545.052 144.091 544.704C143.592 530.289 134.567 470.302 132.307 456.272Z" stroke="white" stroke-miterlimit="10"/>
<path d="M203.006 251.259C198.221 259.726 189.024 276.662 191.046 300.772C193.072 324.886 212.39 335.376 226.003 339.795C239.616 344.213 269.975 347.156 286.534 344.026C303.093 340.897 315.054 325.619 315.418 323.597C315.787 321.57 304.933 319.548 300.698 313.289C296.469 307.03 296.1 301.323 297.201 294.331C298.303 287.334 298.121 274.266 298.121 274.266L203.001 251.259H203.006Z" fill="#303145"/>
<path d="M211.657 224.202C205.032 225.184 199.389 230.83 197.919 238.684C196.448 246.539 199.389 254.393 206.014 256.353C206.014 256.353 204.299 272.062 210.186 282.859C210.186 282.859 208.96 308.382 207.978 325.562C206.996 342.742 202.829 373.422 202.829 373.422L199.639 376.12L242.322 435.76L279.363 370.969L276.173 367.288C276.173 367.288 273.721 344.219 273.721 325.812C273.721 307.405 274.947 293.416 274.947 293.416C274.947 293.416 281.753 285.499 284.881 280.53C284.881 280.53 294.774 285.141 302.542 276.111C310.512 266.848 305.852 254.393 299.232 249.975L283.042 208.009L231.775 210.707L211.662 224.207L211.657 224.202Z" fill="#F7E5DD"/>
<path d="M284.481 242.801C284.221 242.801 283.956 242.723 283.733 242.557C278.6 238.778 270.676 237.062 262.004 237.863C261.308 237.925 260.69 237.416 260.627 236.714C260.565 236.017 261.074 235.399 261.776 235.336C271.201 234.468 279.53 236.308 285.24 240.514C285.801 240.93 285.926 241.725 285.51 242.286C285.261 242.624 284.876 242.801 284.486 242.801H284.481Z" fill="#303145"/>
<path d="M247.41 233.449C247.181 233.449 246.952 233.387 246.744 233.257C239.99 229.078 235.573 226.931 230.154 226.822C229.453 226.806 228.897 226.229 228.912 225.527C228.928 224.826 229.52 224.28 230.206 224.285C236.213 224.41 240.936 226.676 248.08 231.1C248.677 231.469 248.859 232.249 248.49 232.846C248.251 233.236 247.836 233.449 247.41 233.449Z" fill="#303145"/>
<path d="M229.686 241.522C228.434 241.086 228.122 239.932 228.767 238.097C229.406 236.262 230.367 235.555 231.619 235.991C232.871 236.428 233.183 237.582 232.539 239.417C231.9 241.252 230.939 241.959 229.686 241.522Z" fill="#100C27"/>
<path d="M264.499 252.376C263.247 251.94 262.935 250.786 263.579 248.951C264.223 247.116 265.179 246.409 266.432 246.845C267.684 247.282 267.996 248.436 267.351 250.271C266.712 252.106 265.751 252.813 264.499 252.376Z" fill="#100C27"/>
<path d="M219.3 264.784C216.374 264.249 215.283 261.795 216.068 257.507C216.852 253.218 218.738 251.31 221.664 251.851C224.589 252.387 225.68 254.84 224.895 259.129C224.111 263.417 222.225 265.325 219.3 264.784Z" fill="#F3A8A3"/>
<path d="M264.903 278.435C262.243 277.109 261.874 274.448 263.812 270.549C265.755 266.65 268.093 265.341 270.759 266.666C273.419 267.992 273.788 270.653 271.85 274.552C269.907 278.45 267.569 279.76 264.903 278.435Z" fill="#F3A8A3"/>
<path d="M205.952 249.132C205.614 249.132 205.333 248.867 205.318 248.524C205.318 248.441 204.944 240.223 204.221 235.711C204.164 235.362 204.403 235.04 204.746 234.983C205.089 234.926 205.416 235.165 205.474 235.508C206.206 240.093 206.58 248.384 206.585 248.467C206.601 248.815 206.331 249.112 205.978 249.127C205.967 249.127 205.957 249.127 205.952 249.127V249.132Z" fill="#F3A8A3"/>
<path d="M288.742 275.638C288.623 275.638 288.508 275.607 288.399 275.54C288.103 275.352 288.02 274.957 288.207 274.661C288.451 274.282 294.213 265.315 299.399 261.426C299.679 261.218 300.074 261.27 300.287 261.551C300.495 261.832 300.443 262.227 300.163 262.44C295.164 266.193 289.335 275.254 289.277 275.342C289.158 275.529 288.95 275.633 288.742 275.633V275.638Z" fill="#F3A8A3"/>
<path d="M248.345 304.327C246.963 304.327 245.518 304.275 243.996 304.171C227.515 303.023 213.98 292.47 209.615 283.129C209.465 282.812 209.605 282.432 209.922 282.287C210.239 282.136 210.613 282.276 210.764 282.593C214.977 291.607 228.087 301.791 244.084 302.908C259.807 304.005 267.18 299.041 274.542 292.928C274.813 292.704 275.213 292.74 275.436 293.011C275.659 293.281 275.623 293.681 275.353 293.905C268.489 299.597 261.615 304.332 248.345 304.332V304.327Z" fill="#F3A8A3"/>
<path d="M284.881 281.159C284.772 281.159 284.658 281.128 284.559 281.07C284.258 280.894 284.159 280.504 284.336 280.202C287.864 274.256 291.714 263.895 292.924 260.085C293.028 259.752 293.387 259.565 293.719 259.674C294.052 259.778 294.239 260.137 294.13 260.47C292.904 264.327 289.007 274.807 285.422 280.847C285.302 281.044 285.094 281.159 284.876 281.159H284.881Z" fill="#F3A8A3"/>
<path d="M206.014 256.987C205.973 256.987 205.936 256.987 205.895 256.977C205.552 256.909 205.323 256.576 205.391 256.233C206.435 250.765 211.595 238.986 211.813 238.487C211.953 238.164 212.327 238.019 212.649 238.159C212.971 238.299 213.117 238.674 212.977 238.996C212.925 239.116 207.656 251.139 206.643 256.467C206.586 256.769 206.321 256.982 206.019 256.982L206.014 256.987Z" fill="#F3A8A3"/>
<path d="M190.312 222.544C190.312 224.015 198.039 228.064 203.006 229.171C207.973 230.273 210.363 230.46 210.363 230.46L209.075 245.738L219.378 227.882C219.378 227.882 233.547 221.623 243.481 222.362C253.416 223.1 260.96 224.389 269.055 222.362C277.15 220.334 282.668 214.445 282.668 214.445C282.668 214.445 280.829 222.913 284.326 228.62C287.822 234.328 293.522 240.769 293.891 244.267C294.26 247.765 292.603 259.727 291.683 264.332L300.698 250.526C300.698 250.526 307.987 236.62 304.563 220.891C301.436 206.533 287.267 206.715 287.267 206.715C287.267 206.715 284.689 189.966 268.317 185.179C251.945 180.391 238.145 181.867 226.372 191.988C216.188 200.747 214.598 208.737 206.134 215.365C199.265 220.745 190.312 222.544 190.312 222.544Z" fill="#303145"/>
<path d="M233.755 252.594C226.585 252.594 218.578 248.602 216.266 244.501C213.164 238.996 217.092 229.244 217.549 228.152C217.856 227.425 218.526 226.915 219.305 226.811C219.523 226.78 224.787 226.13 234.041 228.371C243.18 230.59 247.415 235.846 247.591 236.069C247.981 236.558 248.142 237.192 248.038 237.811C247.95 238.325 245.835 250.474 237.127 252.267C236.041 252.491 234.908 252.594 233.755 252.594ZM221.15 231.147C219.898 234.655 218.765 239.906 220.131 242.323C221.654 245.021 229.884 249.231 236.233 247.921C240.78 246.986 242.801 240.639 243.435 238.117C242.084 236.818 238.68 234.068 232.996 232.69C227.146 231.271 223.083 231.115 221.155 231.152L221.15 231.147Z" fill="#76C99F"/>
<path d="M274.859 264.81C269.169 264.81 261.932 262.689 257.921 257.73C252.408 250.905 257.546 240.898 257.77 240.477C258.045 239.958 258.513 239.568 259.069 239.391C259.614 239.219 264.706 237.805 275.566 240.742C286.648 243.737 289.864 248.571 290.192 249.112C290.535 249.673 290.613 250.359 290.4 250.983C290.363 251.092 289.485 253.65 287.859 256.478C285.547 260.506 282.928 263.058 280.07 264.057C278.662 264.55 276.854 264.81 274.859 264.81ZM261.277 243.472C260.347 245.691 258.461 251.331 261.376 254.939C265.314 259.815 274.542 261.291 278.605 259.867C281.868 258.723 284.591 253.541 285.765 250.692C284.518 249.45 281.265 246.876 274.412 245.021C267.273 243.092 263.012 243.253 261.277 243.472Z" fill="#76C99F"/>
<path d="M260.279 244.22C259.822 244.22 259.365 244.08 258.97 243.794C253.499 239.791 245.903 239.672 245.83 239.667C244.604 239.656 243.622 238.653 243.632 237.426C243.642 236.199 244.65 235.212 245.871 235.227C246.24 235.227 254.985 235.373 261.589 240.207C262.576 240.93 262.794 242.318 262.067 243.31C261.63 243.903 260.96 244.22 260.274 244.22H260.279Z" fill="#76C99F"/>
<path d="M301.347 252.834C301.311 252.834 301.275 252.834 301.238 252.834C301.145 252.834 291.813 252.381 288.368 252.485C287.121 252.522 286.118 251.56 286.082 250.333C286.046 249.107 287.007 248.083 288.233 248.046C291.855 247.937 301.062 248.379 301.457 248.4C302.683 248.457 303.623 249.502 303.566 250.723C303.509 251.908 302.527 252.834 301.353 252.834H301.347Z" fill="#76C99F"/>
<path d="M245.139 257.049C245.04 257.049 244.941 257.029 244.848 256.977C244.38 256.732 240.275 254.513 240.275 251.815C240.275 250.032 242.577 247.833 245.009 245.504C246.277 244.293 247.477 243.144 248.121 242.24C248.324 241.954 248.719 241.886 249.004 242.094C249.29 242.297 249.358 242.692 249.15 242.978C248.438 243.976 247.196 245.161 245.882 246.419C243.949 248.27 241.538 250.572 241.538 251.815C241.538 253.457 244.349 255.287 245.43 255.854C245.741 256.015 245.861 256.4 245.7 256.712C245.586 256.93 245.367 257.055 245.139 257.055V257.049Z" fill="#F3A8A3"/>
<path d="M279.114 206.923C278.901 206.923 278.688 206.814 278.568 206.616C275.066 200.778 263.256 192.706 248.994 193.912C235.043 195.097 228.943 205.275 228.881 205.379C228.704 205.68 228.32 205.784 228.013 205.608C227.712 205.431 227.608 205.046 227.784 204.739C227.847 204.63 234.253 193.886 248.885 192.648C263.833 191.38 275.882 199.671 279.654 205.961C279.836 206.263 279.737 206.652 279.436 206.829C279.332 206.892 279.223 206.918 279.109 206.918L279.114 206.923Z" fill="#100C27"/>
<path d="M239.865 207.9C239.6 207.9 239.35 207.729 239.262 207.464C239.153 207.131 239.335 206.772 239.667 206.663C250.449 203.144 257.889 204.698 265.761 206.341L267.221 206.642C267.564 206.715 267.782 207.048 267.714 207.391C267.642 207.734 267.309 207.957 266.966 207.885L265.506 207.583C257.801 205.977 250.527 204.454 240.062 207.869C240 207.89 239.932 207.9 239.865 207.9Z" fill="#100C27"/>
<path d="M204.013 224.285C203.016 224.285 202.018 224.223 201.026 224.093C200.678 224.046 200.434 223.729 200.48 223.381C200.527 223.032 200.844 222.788 201.192 222.835C209.027 223.869 217.159 220.256 224.329 217.065C228.907 215.027 233.23 213.104 237.075 212.527C242.057 211.778 246.458 212.573 250.708 213.348C254.959 214.117 258.975 214.845 263.298 214.003C263.641 213.935 263.973 214.159 264.041 214.502C264.108 214.845 263.885 215.178 263.542 215.245C258.99 216.129 254.86 215.386 250.485 214.59C246.333 213.837 242.042 213.062 237.267 213.779C233.593 214.33 229.343 216.223 224.849 218.224C218.416 221.088 211.231 224.285 204.019 224.285H204.013Z" fill="#100C27"/>
<path d="M298.988 240.051C298.957 240.051 298.926 240.051 298.894 240.046C298.546 239.994 298.313 239.672 298.365 239.323C299.549 231.495 294.281 217.99 290.077 215.417C289.776 215.235 289.682 214.845 289.864 214.543C290.046 214.247 290.436 214.148 290.737 214.335C295.325 217.143 300.89 231.136 299.617 239.516C299.57 239.828 299.3 240.056 298.993 240.056L298.988 240.051Z" fill="#100C27"/>
<path d="M204.544 316.133C204.378 316.133 204.206 316.065 204.081 315.935C198.823 310.352 198.091 297.492 198.023 292.226C197.893 282.443 199.473 273.673 201.858 270.913C202.086 270.648 202.486 270.617 202.751 270.846C203.016 271.074 203.047 271.475 202.814 271.74C200.647 274.25 199.166 282.859 199.286 292.21C199.426 302.877 201.561 311.423 205.001 315.067C205.24 315.322 205.23 315.722 204.975 315.961C204.85 316.075 204.695 316.133 204.539 316.133H204.544Z" fill="#100C27"/>
<path d="M302.912 327.423C302.839 327.423 302.766 327.413 302.693 327.382C297.43 325.443 290.249 319.735 287.34 310.035C285.142 302.7 286.295 295.646 287.064 290.984C287.329 289.362 287.563 287.958 287.563 287.028C287.563 286.679 287.849 286.394 288.197 286.394C288.545 286.394 288.831 286.679 288.831 287.028C288.831 288.062 288.602 289.44 288.316 291.186C287.568 295.735 286.441 302.612 288.555 309.671C291.33 318.924 298.142 324.351 303.13 326.191C303.457 326.311 303.629 326.675 303.504 327.007C303.41 327.262 303.166 327.423 302.912 327.423Z" fill="#100C27"/>
<path d="M289.418 336.26C289.241 336.26 289.065 336.187 288.94 336.042C284.69 331.119 281.313 324.616 279.426 317.723C277.805 311.813 277.457 306.095 278.512 302.789C278.621 302.456 278.974 302.269 279.307 302.378C279.64 302.487 279.827 302.841 279.717 303.173C277.79 309.193 280.798 324.668 289.896 335.205C290.125 335.47 290.094 335.87 289.834 336.099C289.714 336.203 289.569 336.255 289.418 336.255V336.26Z" fill="#100C27"/>
<path d="M252.564 270.263C252.486 270.263 252.408 270.258 252.325 270.243C251.945 270.17 243.014 268.454 235.355 264.998C234.716 264.712 234.435 263.958 234.721 263.318C235.007 262.679 235.76 262.398 236.399 262.684C243.783 266.022 252.704 267.732 252.792 267.747C253.478 267.877 253.935 268.543 253.8 269.229C253.686 269.837 253.151 270.263 252.558 270.263H252.564Z" fill="#F3A8A3"/>
<path d="M332.704 448.511L332.704 448.511C332.657 449.07 328.317 504.415 330.984 541.055L330.486 541.091L330.984 541.052C330.99 541.123 331.051 541.179 331.12 541.179H331.12H331.12H331.12H331.12H331.12H331.12H331.12H331.12H331.12H331.12H331.121H331.121H331.121H331.121H331.121H331.121H331.121H331.121H331.121H331.121H331.121H331.122H331.122H331.122H331.122H331.122H331.122H331.122H331.122H331.122H331.122H331.122H331.123H331.123H331.123H331.123H331.123H331.123H331.123H331.123H331.123H331.123H331.123H331.124H331.124H331.124H331.124H331.124H331.124H331.124H331.124H331.124H331.124H331.124H331.125H331.125H331.125H331.125H331.125H331.125H331.125H331.125H331.125H331.125H331.125H331.126H331.126H331.126H331.126H331.126H331.126H331.126H331.126H331.126H331.126H331.126H331.127H331.127H331.127H331.127H331.127H331.127H331.127H331.127H331.127H331.127H331.127H331.128H331.128H331.128H331.128H331.128H331.128H331.128H331.128H331.128H331.128H331.128H331.129H331.129H331.129H331.129H331.129H331.129H331.129H331.129H331.129H331.129H331.129H331.13H331.13H331.13H331.13H331.13H331.13H331.13H331.13H331.13H331.13H331.131H331.131H331.131H331.131H331.131H331.131H331.131H331.131H331.131H331.131H331.131H331.132H331.132H331.132H331.132H331.132H331.132H331.132H331.132H331.132H331.132H331.132H331.133H331.133H331.133H331.133H331.133H331.133H331.133H331.133H331.133H331.133H331.133H331.134H331.134H331.134H331.134H331.134H331.134H331.134H331.134H331.134H331.134H331.134H331.135H331.135H331.135H331.135H331.135H331.135H331.135H331.135H331.135H331.135H331.135H331.136H331.136H331.136H331.136H331.136H331.136H331.136H331.136H331.136H331.136H331.136H331.137H331.137H331.137H331.137H331.137H331.137H331.137H331.137H331.137H331.137H331.137H331.138H331.138H331.138H331.138H331.138H331.138H331.138H331.138H331.138H331.138H331.138H331.139H331.139H331.139H331.139H331.139H331.139H331.139H331.139H331.139H331.139H331.139H331.14H331.14H331.14H331.14H331.14H331.14H331.14H331.14H331.14H331.14H331.14H331.141H331.141C331.209 541.167 331.26 541.103 331.255 541.035L331.255 541.034C328.626 504.947 332.802 450.711 332.965 448.591C332.967 448.559 332.969 448.539 332.969 448.531L332.704 448.511ZM332.704 448.511L332.704 448.506M332.704 448.511L332.704 448.506M332.704 448.506C332.71 448.429 332.774 448.379 332.842 448.385L332.842 448.385M332.704 448.506L332.842 448.385M332.842 448.385L332.849 448.386M332.842 448.385L332.849 448.386M332.849 448.386C332.917 448.391 332.975 448.453 332.969 448.531L332.849 448.386Z" stroke="white" stroke-miterlimit="10"/>
<path d="M89.2456 322.233L87.1483 322.494C73.6647 324.173 61.3321 314.576 59.6536 301.102C57.9752 287.628 67.579 275.298 81.0597 273.619L83.1571 273.357C96.6407 271.678 108.973 281.275 110.652 294.749C112.33 308.223 102.726 320.553 89.2456 322.233ZM81.2775 275.367C68.7622 276.926 59.8476 288.372 61.4059 300.881C62.9642 313.39 74.4143 322.298 86.9297 320.739L89.0271 320.478C101.542 318.919 110.457 307.473 108.899 294.964C107.34 282.456 95.8903 273.547 83.3749 275.106L81.2775 275.367ZM98.8098 259.719L62.617 264.228C59.3818 264.631 56.4224 262.328 56.0196 259.095C54.955 250.549 54.9875 243.386 56.1157 237.803C57.2432 232.216 59.3419 226.906 62.3487 222.023C65.3263 217.188 72.3467 208.384 83.2129 195.858C88.8301 189.492 91.3897 183.971 90.8256 179.442C90.2614 174.914 88.5756 171.476 85.8204 169.291C83.072 167.113 79.1167 166.326 74.06 166.956C68.6154 167.634 64.2965 170.181 61.2232 174.53C58.6307 178.195 57.1775 183.931 56.8954 191.575C56.7783 194.803 54.1555 197.311 50.9302 197.279L13.1539 196.922C11.5763 196.906 10.0974 196.276 8.99147 195.151C7.88163 194.018 7.27759 192.519 7.2956 190.93C7.48115 174.104 12.0005 159.628 20.7227 147.903C30.3343 134.979 46.7345 126.99 69.4639 124.159C87.1566 121.955 102.168 124.226 114.087 130.903C130.292 139.94 139.657 153.727 141.918 171.876C142.858 179.429 141.828 187.057 138.857 194.546C135.899 201.998 129.087 211.586 118.61 223.046C111.447 230.937 107.023 237.16 105.464 241.536C104.275 244.872 103.775 248.941 103.982 253.625C104.116 256.664 101.844 259.341 98.8069 259.72L98.8098 259.719ZM73.8446 165.204C79.3869 164.513 83.7864 165.423 86.9203 167.908C90.0481 170.391 91.9521 174.199 92.5782 179.224C93.2042 184.249 90.5046 190.264 84.5425 197.022C73.7457 209.472 66.7824 218.196 63.8533 222.953C60.9558 227.659 58.9351 232.775 57.849 238.156C56.759 243.553 56.7315 250.523 57.7725 258.879C58.0551 261.148 60.1294 262.762 62.3991 262.479L98.5919 257.97C100.721 257.705 102.314 255.833 102.221 253.707C102.003 248.794 102.537 244.502 103.804 240.95C105.467 236.287 109.883 230.044 117.307 221.864C127.643 210.559 134.34 201.154 137.218 193.901C140.081 186.689 141.072 179.354 140.169 172.1C139.074 163.313 136.257 155.525 131.791 148.954C127.325 142.38 121.081 136.827 113.226 132.448C101.642 125.953 86.9927 123.754 69.6821 125.91C47.4469 128.68 31.4519 136.432 22.1375 148.954C13.6456 160.373 9.24351 174.502 9.06318 190.949C9.05079 192.067 9.47368 193.12 10.2529 193.918C11.0283 194.708 12.0637 195.151 13.1709 195.161L50.9472 195.518C53.2082 195.54 55.046 193.78 55.1286 191.515C55.4223 183.52 56.9874 177.464 59.7779 173.515C63.1516 168.743 67.8833 165.949 73.8393 165.207L73.8446 165.204Z" fill="white"/>
<path fill-rule="evenodd" clip-rule="evenodd" d="M407.127 159.815L409.508 160.266C411.413 160.626 412.768 162.591 412.173 164.432L402.985 212.978C402.628 214.864 400.768 216.22 398.744 215.837L360.527 208.604C358.622 208.244 357.245 206.396 357.624 204.393L358.07 202.036L355.689 201.586C353.784 201.225 352.407 199.378 352.786 197.375L361.974 148.828C362.331 146.943 364.191 145.586 366.215 145.969L367.882 146.285C368.343 145.152 369.117 144.322 370.106 143.655C371.498 142.819 373.157 142.523 374.682 142.934C377.279 143.548 378.946 145.816 379.073 148.403L404.67 153.248C406.575 153.608 407.952 155.455 407.573 157.459L407.127 159.815ZM374.236 145.291C373.284 145.11 372.383 145.306 371.558 145.76C371.133 146.046 370.828 146.354 370.62 146.803L376.692 147.952C376.439 146.684 375.523 145.656 374.236 145.291ZM355.287 197.848L364.475 149.302C364.608 148.595 365.293 148.236 365.888 148.349L376.484 150.354L375.057 157.895C374.945 158.484 374.38 158.866 373.785 158.753C373.189 158.64 372.802 158.079 372.914 157.49L373.449 154.662C373.583 153.955 373.196 153.393 372.482 153.258C371.767 153.123 371.202 153.504 371.068 154.211L370.533 157.039C370.176 158.924 371.434 160.749 373.339 161.11C375.244 161.47 377.081 160.231 377.438 158.346L378.865 150.805L404.224 155.604C404.939 155.739 405.304 156.419 405.192 157.008L396.004 205.554C395.87 206.261 395.186 206.62 394.59 206.507L356.254 199.252C355.659 199.139 355.175 198.437 355.287 197.848ZM399.429 213.526C400.024 213.638 400.708 213.28 400.842 212.573L400.723 212.55L409.911 164.004C410.023 163.414 409.658 162.735 408.944 162.6L406.562 162.149L398.266 205.983C397.91 207.868 396.05 209.225 394.026 208.841L360.571 202.51L360.125 204.866C360.013 205.455 360.378 206.135 361.092 206.27L399.429 213.526Z" fill="white"/>
<path d="M407.127 159.815L406.783 159.75L406.718 160.094L407.062 160.159L407.127 159.815ZM412.173 164.432L411.84 164.324L411.833 164.345L411.829 164.367L412.173 164.432ZM402.985 212.978L403.329 213.043L402.985 212.978ZM357.624 204.393L357.968 204.458L357.624 204.393ZM358.07 202.036L358.414 202.102L358.479 201.758L358.135 201.693L358.07 202.036ZM367.882 146.285L367.817 146.629L368.098 146.682L368.206 146.417L367.882 146.285ZM370.106 143.655L369.926 143.355L369.918 143.359L369.911 143.364L370.106 143.655ZM374.682 142.934L374.591 143.272L374.602 143.275L374.682 142.934ZM379.073 148.403L378.724 148.42L378.737 148.696L379.008 148.747L379.073 148.403ZM371.558 145.76L371.389 145.453L371.375 145.461L371.362 145.47L371.558 145.76ZM374.236 145.291L374.332 144.954L374.317 144.95L374.301 144.947L374.236 145.291ZM370.62 146.803L370.303 146.656L370.114 147.064L370.555 147.147L370.62 146.803ZM376.692 147.952L376.627 148.296L377.137 148.393L377.035 147.884L376.692 147.952ZM376.484 150.354L376.828 150.419L376.893 150.075L376.549 150.01L376.484 150.354ZM372.914 157.49L373.258 157.555L372.914 157.49ZM373.449 154.662L373.105 154.597L373.449 154.662ZM378.865 150.805L378.93 150.461L378.587 150.396L378.521 150.74L378.865 150.805ZM400.842 212.573L401.186 212.638L401.251 212.294L400.907 212.229L400.842 212.573ZM400.723 212.55L400.379 212.485L400.314 212.829L400.658 212.894L400.723 212.55ZM409.911 164.004L409.567 163.939L409.911 164.004ZM406.562 162.149L406.628 161.805L406.284 161.74L406.219 162.084L406.562 162.149ZM360.571 202.51L360.636 202.166L360.292 202.101L360.227 202.445L360.571 202.51ZM409.573 159.922L407.192 159.471L407.062 160.159L409.443 160.61L409.573 159.922ZM412.506 164.539C413.175 162.469 411.654 160.316 409.573 159.922L409.443 160.61C411.173 160.937 412.36 162.714 411.84 164.324L412.506 164.539ZM403.329 213.043L412.517 164.497L411.829 164.367L402.641 212.913L403.329 213.043ZM398.679 216.181C400.897 216.601 402.937 215.114 403.329 213.043L402.641 212.913C402.319 214.613 400.639 215.84 398.809 215.493L398.679 216.181ZM360.462 208.948L398.679 216.181L398.809 215.493L360.592 208.26L360.462 208.948ZM357.28 204.328C356.863 206.532 358.378 208.554 360.462 208.948L360.592 208.26C358.866 207.934 357.627 206.261 357.968 204.458L357.28 204.328ZM357.726 201.971L357.28 204.328L357.968 204.458L358.414 202.102L357.726 201.971ZM355.624 201.93L358.005 202.38L358.135 201.693L355.754 201.242L355.624 201.93ZM352.442 197.31C352.025 199.514 353.54 201.535 355.624 201.93L355.754 201.242C354.028 200.915 352.789 199.242 353.13 197.44L352.442 197.31ZM361.63 148.763L352.442 197.31L353.13 197.44L362.318 148.894L361.63 148.763ZM366.28 145.626C364.062 145.206 362.022 146.692 361.63 148.763L362.318 148.894C362.64 147.194 364.32 145.967 366.15 146.313L366.28 145.626ZM367.947 145.941L366.28 145.626L366.15 146.313L367.817 146.629L367.947 145.941ZM369.911 143.364C368.877 144.061 368.051 144.942 367.558 146.153L368.206 146.417C368.635 145.362 369.356 144.582 370.302 143.945L369.911 143.364ZM374.773 142.596C373.145 142.158 371.389 142.477 369.926 143.355L370.286 143.955C371.606 143.162 373.168 142.889 374.591 143.272L374.773 142.596ZM379.423 148.386C379.289 145.661 377.528 143.247 374.763 142.593L374.602 143.275C377.03 143.848 378.603 145.971 378.724 148.42L379.423 148.386ZM404.736 152.904L379.138 148.059L379.008 148.747L404.605 153.592L404.736 152.904ZM407.917 157.524C408.334 155.32 406.819 153.298 404.736 152.904L404.605 153.592C406.331 153.918 407.57 155.591 407.229 157.393L407.917 157.524ZM407.471 159.88L407.917 157.524L407.229 157.393L406.783 159.75L407.471 159.88ZM371.726 146.067C372.492 145.646 373.311 145.472 374.171 145.635L374.301 144.947C373.257 144.749 372.274 144.967 371.389 145.453L371.726 146.067ZM370.938 146.951C371.112 146.575 371.366 146.311 371.753 146.05L371.362 145.47C370.901 145.781 370.545 146.134 370.303 146.656L370.938 146.951ZM376.757 147.608L370.685 146.459L370.555 147.147L376.627 148.296L376.757 147.608ZM374.141 145.627C375.299 145.956 376.121 146.878 376.349 148.021L377.035 147.884C376.757 146.489 375.748 145.356 374.332 144.954L374.141 145.627ZM364.131 149.237L354.943 197.783L355.63 197.913L364.818 149.367L364.131 149.237ZM365.953 148.005C365.194 147.861 364.305 148.314 364.131 149.237L364.818 149.367C364.912 148.875 365.391 148.611 365.823 148.693L365.953 148.005ZM376.549 150.01L365.953 148.005L365.823 148.693L376.419 150.698L376.549 150.01ZM375.401 157.96L376.828 150.419L376.14 150.289L374.713 157.83L375.401 157.96ZM373.72 159.097C374.501 159.245 375.253 158.743 375.401 157.96L374.713 157.83C374.638 158.226 374.259 158.486 373.85 158.409L373.72 159.097ZM372.57 157.425C372.422 158.207 372.938 158.949 373.72 159.097L373.85 158.409C373.441 158.332 373.183 157.951 373.258 157.555L372.57 157.425ZM373.105 154.597L372.57 157.425L373.258 157.555L373.793 154.727L373.105 154.597ZM372.416 153.602C372.697 153.655 372.886 153.785 372.995 153.944C373.105 154.103 373.157 154.322 373.105 154.597L373.793 154.727C373.875 154.294 373.801 153.879 373.572 153.547C373.343 153.215 372.981 152.996 372.547 152.914L372.416 153.602ZM371.412 154.276C371.464 154.002 371.593 153.817 371.753 153.709C371.913 153.601 372.136 153.549 372.416 153.602L372.547 152.914C372.112 152.832 371.696 152.903 371.361 153.129C371.027 153.354 370.806 153.713 370.724 154.146L371.412 154.276ZM370.877 157.104L371.412 154.276L370.724 154.146L370.189 156.974L370.877 157.104ZM373.404 160.766C371.685 160.44 370.556 158.796 370.877 157.104L370.189 156.974C369.795 159.053 371.182 161.058 373.274 161.453L373.404 160.766ZM377.094 158.281C376.774 159.973 375.122 161.091 373.404 160.766L373.274 161.453C375.365 161.849 377.389 160.49 377.782 158.411L377.094 158.281ZM378.521 150.74L377.094 158.281L377.782 158.411L379.209 150.87L378.521 150.74ZM404.29 155.26L378.93 150.461L378.8 151.149L404.159 155.948L404.29 155.26ZM405.536 157.073C405.68 156.313 405.213 155.435 404.29 155.26L404.159 155.948C404.665 156.044 404.927 156.524 404.848 156.943L405.536 157.073ZM396.348 205.619L405.536 157.073L404.848 156.943L395.66 205.489L396.348 205.619ZM394.525 206.851C395.284 206.995 396.173 206.542 396.348 205.619L395.66 205.489C395.567 205.981 395.087 206.245 394.655 206.163L394.525 206.851ZM356.189 199.596L394.525 206.851L394.655 206.163L356.319 198.908L356.189 199.596ZM354.943 197.783C354.865 198.191 354.996 198.607 355.217 198.927C355.438 199.248 355.781 199.518 356.189 199.596L356.319 198.908C356.132 198.872 355.935 198.736 355.793 198.53C355.651 198.324 355.596 198.095 355.63 197.913L354.943 197.783ZM400.498 212.508C400.405 212.999 399.925 213.263 399.494 213.182L399.363 213.869C400.123 214.013 401.012 213.56 401.186 212.638L400.498 212.508ZM400.658 212.894L400.777 212.916L400.907 212.229L400.788 212.206L400.658 212.894ZM409.567 163.939L400.379 212.485L401.067 212.615L410.255 164.069L409.567 163.939ZM408.879 162.944C409.384 163.04 409.646 163.52 409.567 163.939L410.255 164.069C410.399 163.309 409.932 162.431 409.009 162.256L408.879 162.944ZM406.497 162.493L408.879 162.944L409.009 162.256L406.628 161.805L406.497 162.493ZM398.61 206.048L406.906 162.214L406.219 162.084L397.923 205.917L398.61 206.048ZM393.961 209.185C396.179 209.605 398.218 208.119 398.61 206.048L397.923 205.917C397.601 207.617 395.921 208.844 394.091 208.498L393.961 209.185ZM360.506 202.854L393.961 209.185L394.091 208.498L360.636 202.166L360.506 202.854ZM360.469 204.931L360.915 202.575L360.227 202.445L359.781 204.801L360.469 204.931ZM361.157 205.926C360.652 205.83 360.389 205.35 360.469 204.931L359.781 204.801C359.637 205.561 360.104 206.439 361.027 206.614L361.157 205.926ZM399.494 213.182L361.157 205.926L361.027 206.614L399.363 213.869L399.494 213.182Z" fill="#FAD3C3"/>
<path fill-rule="evenodd" clip-rule="evenodd" d="M376.303 176.073L373.565 175.555C371.422 175.149 369.97 173.043 370.372 170.923C370.773 168.802 372.894 167.372 375.037 167.778L377.775 168.296L378.288 165.586C378.689 163.465 380.81 162.035 382.953 162.441C385.096 162.847 386.547 164.952 386.146 167.073L385.633 169.783L388.371 170.301C390.514 170.707 391.965 172.812 391.564 174.933C391.162 177.054 389.042 178.484 386.899 178.078L384.161 177.56L383.648 180.27C383.246 182.391 381.126 183.821 378.983 183.415C376.84 183.009 375.389 180.904 375.79 178.783L376.303 176.073ZM378.542 170.76L374.613 170.016C373.779 169.859 372.931 170.431 372.775 171.255C372.619 172.08 373.2 172.922 374.033 173.08L377.962 173.824C378.676 173.959 379.063 174.52 378.929 175.227L378.194 179.116C378.037 179.941 378.618 180.783 379.451 180.94C380.285 181.098 381.133 180.526 381.289 179.702L382.025 175.813C382.159 175.106 382.724 174.725 383.439 174.86L387.367 175.604C388.201 175.762 389.049 175.19 389.205 174.365C389.361 173.54 388.781 172.698 387.947 172.54L384.018 171.797C383.304 171.661 382.917 171.1 383.051 170.393L383.787 166.505C383.943 165.68 383.362 164.838 382.529 164.68C381.696 164.522 380.847 165.094 380.691 165.919L379.955 169.807C379.822 170.514 379.256 170.895 378.542 170.76ZM388.836 190.65L367.406 186.594C366.691 186.459 366.126 186.84 365.992 187.547C365.858 188.254 366.245 188.816 366.96 188.951L388.509 193.029C389.223 193.164 389.789 192.783 389.923 192.076C390.056 191.369 389.55 190.785 388.836 190.65ZM366.291 192.486L387.721 196.542C388.435 196.677 388.941 197.261 388.808 197.968C388.674 198.675 388.108 199.056 387.394 198.921L365.845 194.842C365.13 194.707 364.743 194.146 364.877 193.439C365.011 192.732 365.576 192.35 366.291 192.486Z" fill="white"/>
<path d="M376.303 176.073L376.647 176.138L376.712 175.794L376.368 175.729L376.303 176.073ZM377.775 168.296L377.71 168.64L378.054 168.705L378.119 168.361L377.775 168.296ZM378.288 165.586L378.632 165.651L378.288 165.586ZM386.146 167.073L385.802 167.008L386.146 167.073ZM385.633 169.783L385.289 169.718L385.224 170.062L385.568 170.127L385.633 169.783ZM384.161 177.56L384.226 177.216L383.882 177.151L383.817 177.495L384.161 177.56ZM383.648 180.27L383.304 180.205L383.648 180.27ZM378.929 175.227L378.586 175.162L378.929 175.227ZM378.194 179.116L378.537 179.181L378.194 179.116ZM381.289 179.702L380.945 179.637L381.289 179.702ZM382.025 175.813L382.369 175.878L382.025 175.813ZM387.947 172.54L388.012 172.196L387.947 172.54ZM384.018 171.797L383.953 172.14L384.018 171.797ZM373.5 175.898L376.238 176.417L376.368 175.729L373.63 175.211L373.5 175.898ZM370.028 170.857C369.59 173.172 371.17 175.458 373.5 175.898L373.63 175.211C371.673 174.84 370.351 172.915 370.716 170.988L370.028 170.857ZM375.102 167.434C372.772 166.993 370.466 168.543 370.028 170.857L370.716 170.988C371.081 169.06 373.015 167.751 374.972 168.122L375.102 167.434ZM377.84 167.952L375.102 167.434L374.972 168.122L377.71 168.64L377.84 167.952ZM377.944 165.521L377.431 168.231L378.119 168.361L378.632 165.651L377.944 165.521ZM383.018 162.097C380.688 161.656 378.382 163.206 377.944 165.521L378.632 165.651C378.997 163.723 380.931 162.415 382.888 162.785L383.018 162.097ZM386.489 167.138C386.927 164.824 385.347 162.538 383.018 162.097L382.888 162.785C384.844 163.155 386.167 165.08 385.802 167.008L386.489 167.138ZM385.977 169.848L386.489 167.138L385.802 167.008L385.289 169.718L385.977 169.848ZM388.436 169.957L385.698 169.439L385.568 170.127L388.306 170.645L388.436 169.957ZM391.908 174.998C392.346 172.684 390.766 170.398 388.436 169.957L388.306 170.645C390.262 171.016 391.585 172.941 391.22 174.868L391.908 174.998ZM386.834 178.422C389.164 178.863 391.47 177.313 391.908 174.998L391.22 174.868C390.855 176.796 388.921 178.105 386.964 177.734L386.834 178.422ZM384.096 177.904L386.834 178.422L386.964 177.734L384.226 177.216L384.096 177.904ZM383.992 180.335L384.505 177.625L383.817 177.495L383.304 180.205L383.992 180.335ZM378.918 183.759C381.248 184.2 383.554 182.649 383.992 180.335L383.304 180.205C382.939 182.133 381.005 183.441 379.048 183.071L378.918 183.759ZM375.446 178.718C375.008 181.032 376.588 183.318 378.918 183.759L379.048 183.071C377.092 182.701 375.769 180.776 376.134 178.848L375.446 178.718ZM375.959 176.008L375.446 178.718L376.134 178.848L376.647 176.138L375.959 176.008ZM374.548 170.36L378.477 171.104L378.607 170.416L374.678 169.673L374.548 170.36ZM373.119 171.32C373.239 170.689 373.901 170.238 374.548 170.36L374.678 169.673C373.658 169.48 372.624 170.172 372.431 171.19L373.119 171.32ZM374.098 172.736C373.451 172.614 373 171.952 373.119 171.32L372.431 171.19C372.239 172.208 372.948 173.231 373.968 173.424L374.098 172.736ZM378.027 173.48L374.098 172.736L373.968 173.424L377.897 174.168L378.027 173.48ZM379.273 175.292C379.355 174.86 379.281 174.445 379.052 174.112C378.823 173.78 378.461 173.562 378.027 173.48L377.897 174.168C378.177 174.221 378.366 174.351 378.476 174.51C378.585 174.668 378.637 174.888 378.586 175.162L379.273 175.292ZM378.537 179.181L379.273 175.292L378.586 175.162L377.85 179.051L378.537 179.181ZM379.516 180.597C378.87 180.474 378.418 179.812 378.537 179.181L377.85 179.051C377.657 180.069 378.366 181.091 379.386 181.284L379.516 180.597ZM380.945 179.637C380.826 180.268 380.163 180.719 379.516 180.597L379.386 181.284C380.406 181.477 381.44 180.785 381.633 179.767L380.945 179.637ZM381.681 175.748L380.945 179.637L381.633 179.767L382.369 175.878L381.681 175.748ZM383.504 174.516C383.069 174.434 382.653 174.505 382.318 174.731C381.984 174.956 381.763 175.315 381.681 175.748L382.369 175.878C382.421 175.604 382.55 175.419 382.71 175.311C382.87 175.203 383.093 175.151 383.373 175.204L383.504 174.516ZM387.433 175.26L383.504 174.516L383.373 175.204L387.302 175.948L387.433 175.26ZM388.861 174.3C388.742 174.931 388.079 175.382 387.433 175.26L387.302 175.948C388.322 176.141 389.356 175.448 389.549 174.43L388.861 174.3ZM387.882 172.884C388.529 173.006 388.981 173.668 388.861 174.3L389.549 174.43C389.742 173.412 389.032 172.389 388.012 172.196L387.882 172.884ZM383.953 172.14L387.882 172.884L388.012 172.196L384.083 171.453L383.953 172.14ZM382.707 170.328C382.625 170.761 382.699 171.175 382.928 171.508C383.157 171.84 383.519 172.058 383.953 172.14L384.083 171.453C383.803 171.4 383.614 171.27 383.505 171.111C383.395 170.952 383.343 170.732 383.395 170.458L382.707 170.328ZM383.443 166.439L382.707 170.328L383.395 170.458L384.131 166.57L383.443 166.439ZM382.464 165.024C383.111 165.146 383.562 165.808 383.443 166.439L384.131 166.57C384.323 165.551 383.614 164.529 382.594 164.336L382.464 165.024ZM381.035 165.984C381.155 165.352 381.817 164.901 382.464 165.024L382.594 164.336C381.574 164.143 380.54 164.835 380.347 165.854L381.035 165.984ZM380.299 169.872L381.035 165.984L380.347 165.854L379.611 169.742L380.299 169.872ZM378.477 171.104C378.911 171.186 379.327 171.115 379.662 170.89C379.997 170.664 380.217 170.305 380.299 169.872L379.611 169.742C379.56 170.016 379.43 170.201 379.271 170.309C379.11 170.417 378.887 170.469 378.607 170.416L378.477 171.104ZM367.341 186.938L388.771 190.994L388.901 190.306L367.471 186.25L367.341 186.938ZM366.336 187.612C366.388 187.338 366.517 187.153 366.677 187.045C366.837 186.937 367.061 186.885 367.341 186.938L367.471 186.25C367.037 186.168 366.62 186.239 366.286 186.465C365.951 186.69 365.73 187.049 365.648 187.482L366.336 187.612ZM367.025 188.607C366.745 188.554 366.556 188.424 366.446 188.265C366.337 188.106 366.284 187.886 366.336 187.612L365.648 187.482C365.566 187.915 365.64 188.329 365.87 188.662C366.099 188.994 366.46 189.212 366.895 189.295L367.025 188.607ZM388.574 192.685L367.025 188.607L366.895 189.295L388.444 193.373L388.574 192.685ZM389.579 192.011C389.527 192.285 389.398 192.471 389.238 192.578C389.078 192.686 388.854 192.738 388.574 192.685L388.444 193.373C388.878 193.455 389.295 193.384 389.629 193.159C389.964 192.933 390.185 192.574 390.266 192.141L389.579 192.011ZM388.771 190.994C389.343 191.102 389.668 191.539 389.579 192.011L390.266 192.141C390.445 191.2 389.757 190.468 388.901 190.306L388.771 190.994ZM387.786 196.198L366.356 192.142L366.226 192.83L387.656 196.885L387.786 196.198ZM389.151 198.033C389.33 197.091 388.642 196.36 387.786 196.198L387.656 196.885C388.228 196.994 388.553 197.43 388.464 197.903L389.151 198.033ZM387.329 199.265C387.763 199.347 388.18 199.276 388.514 199.05C388.849 198.825 389.07 198.466 389.151 198.033L388.464 197.903C388.412 198.177 388.283 198.362 388.123 198.47C387.963 198.578 387.739 198.63 387.459 198.577L387.329 199.265ZM365.78 195.186L387.329 199.265L387.459 198.577L365.91 194.498L365.78 195.186ZM364.533 193.374C364.451 193.806 364.525 194.221 364.755 194.554C364.984 194.886 365.345 195.104 365.78 195.186L365.91 194.498C365.63 194.445 365.441 194.315 365.331 194.156C365.222 193.997 365.169 193.778 365.221 193.504L364.533 193.374ZM366.356 192.142C365.922 192.06 365.505 192.131 365.171 192.356C364.836 192.582 364.615 192.941 364.533 193.374L365.221 193.504C365.273 193.229 365.402 193.044 365.562 192.937C365.722 192.828 365.946 192.777 366.226 192.83L366.356 192.142Z" fill="#FAD3C3"/>
<path d="M398.903 316.202C400.126 315.649 400.67 314.21 400.118 312.986C399.565 311.763 398.126 311.219 396.902 311.772C395.679 312.324 395.135 313.764 395.687 314.987C396.24 316.211 397.679 316.754 398.903 316.202Z" fill="white"/>
<path d="M398.514 327.152C399.737 326.599 400.281 325.16 399.729 323.936C399.176 322.713 397.736 322.169 396.513 322.722C395.29 323.274 394.746 324.714 395.298 325.937C395.851 327.16 397.29 327.704 398.514 327.152Z" fill="white"/>
<path d="M407.375 323.15C408.598 322.598 409.142 321.158 408.589 319.935C408.037 318.712 406.597 318.168 405.374 318.72C404.15 319.273 403.607 320.712 404.159 321.936C404.712 323.159 406.151 323.703 407.375 323.15Z" fill="white"/>
<path fill-rule="evenodd" clip-rule="evenodd" d="M422.34 306.685C422.1 306.153 422.295 305.638 422.826 305.398C423.358 305.158 423.872 305.353 424.153 305.973L426.153 310.403C426.393 310.935 426.199 311.449 425.667 311.689C425.136 311.929 424.621 311.735 424.381 311.203L423.781 309.874L417.401 312.755C419.025 316.823 419.07 321.176 417.83 325.043L424.261 327.473L424.795 326.058C424.99 325.543 425.521 325.303 426.036 325.498C426.55 325.692 426.79 326.224 426.596 326.738L424.895 331.24C424.798 331.497 424.572 331.706 424.395 331.786C424.218 331.866 423.912 331.897 423.655 331.8C423.14 331.606 422.9 331.074 423.095 330.559L423.629 329.145L417.198 326.715C415.572 330.436 412.659 333.672 408.752 335.65L411.593 341.941L412.833 341.381C413.365 341.14 413.879 341.335 414.119 341.866C414.359 342.398 414.165 342.913 413.633 343.153L409.203 345.153C408.672 345.393 408.157 345.199 407.917 344.667C407.677 344.136 407.871 343.621 408.403 343.381L409.732 342.781L406.851 336.401C402.784 338.025 398.431 338.07 394.563 336.83L392.134 343.261L393.549 343.795C394.063 343.99 394.303 344.521 394.109 345.036C394.012 345.293 393.786 345.502 393.609 345.582C393.431 345.662 393.126 345.693 392.868 345.596L388.367 343.895C387.852 343.701 387.612 343.169 387.806 342.655C388.001 342.14 388.532 341.9 389.047 342.095L390.462 342.629L392.891 336.198C389.17 334.572 385.934 331.659 383.957 327.752L377.666 330.593L378.266 331.922C378.506 332.454 378.312 332.968 377.78 333.208C377.248 333.448 376.734 333.254 376.494 332.722L374.493 328.292C374.253 327.76 374.447 327.246 374.979 327.006C375.511 326.766 376.025 326.96 376.265 327.492L376.865 328.821L383.156 325.98C381.533 321.912 381.487 317.559 382.728 313.692L376.297 311.262L375.762 312.677C375.665 312.935 375.439 313.143 375.262 313.223C375.085 313.303 374.779 313.335 374.522 313.238C374.007 313.043 373.767 312.511 373.962 311.997L375.711 307.367C375.905 306.852 376.437 306.612 376.952 306.807C377.466 307.001 377.706 307.533 377.512 308.047L376.977 309.462L383.408 311.891C385.035 308.17 387.947 304.935 391.854 302.957L389.014 296.666L387.684 297.266C387.153 297.506 386.638 297.312 386.398 296.78C386.158 296.248 386.353 295.734 386.884 295.494L391.314 293.493C391.846 293.253 392.361 293.447 392.601 293.979C392.841 294.511 392.646 295.025 392.115 295.265L390.786 295.865L393.627 302.156C397.694 300.533 402.047 300.487 405.914 301.728L408.344 295.297L406.929 294.762C406.415 294.568 406.174 294.036 406.369 293.522C406.563 293.008 407.095 292.767 407.609 292.962L412.24 294.711C412.754 294.906 412.994 295.437 412.8 295.952C412.703 296.209 412.477 296.418 412.3 296.498C412.122 296.578 411.817 296.609 411.559 296.512L410.145 295.977L407.715 302.408C411.436 304.035 414.672 306.947 416.65 310.855L422.941 308.014L422.34 306.685ZM385.24 326.106C389.001 334.435 398.776 338.128 407.105 334.366C415.434 330.605 419.127 320.83 415.366 312.501C411.605 304.172 401.83 300.479 393.501 304.24C385.172 308.001 381.479 317.777 385.24 326.106Z" fill="white"/>
</g>
<defs>
<clipPath id="clip0_2773_31947">
<rect width="520" height="472" fill="white"/>
</clipPath>
</defs>
</svg>
