<svg width="554" height="386" viewBox="0 0 554 386" fill="none" xmlns="http://www.w3.org/2000/svg">
<g clip-path="url(#clip0_3144_16094)">
<path d="M249.466 54.546C249.466 54.546 249.226 33.4343 266.258 30.5559C283.29 27.6775 284.729 36.0725 293.607 38.7128C302.482 41.3509 308.719 35.8344 320.235 39.1932C331.751 42.552 336.308 48.0686 337.027 55.2667C337.748 62.4626 343.504 69.6607 355.498 70.1412C367.492 70.6216 381.886 74.9392 387.405 87.4136C392.921 99.888 390.283 104.206 398.921 110.203C407.556 116.199 419.792 122.917 422.19 136.35C424.588 149.783 420.751 152.664 424.11 159.379C427.468 166.097 434.424 168.015 436.104 182.409C437.783 196.803 432.264 209.277 427.228 215.995C422.19 222.712 417.872 223.911 416.914 231.828C415.955 239.745 412.356 252.699 402.041 253.898C391.727 255.097 151.112 252.94 151.112 252.94C151.112 252.94 136.478 253.18 131.442 237.347C126.403 221.513 135.041 217.914 131.682 205.68C128.323 193.446 118.967 189.607 123.047 175.693C127.124 161.78 136.72 163.937 138.64 151.463C140.559 138.988 135.041 124.594 146.076 111.64C157.111 98.6847 168.387 100.364 179.9 93.4084C191.416 86.4505 197.893 74.4566 205.808 63.4213C213.724 52.3861 226.919 50.9469 233.395 51.1872C239.872 51.4274 249.468 54.546 249.468 54.546H249.466Z" fill="#E689B3"/>
<path d="M412.835 203.882C414.482 202.235 414.754 199.084 414.873 191.767C414.992 184.449 424.469 175.094 425.789 175.574C427.11 176.055 426.629 188.529 426.629 188.529C426.629 188.529 439.824 178.933 440.664 179.654C441.504 180.374 435.026 194.407 435.026 194.407C435.026 194.407 446.901 189.849 447.501 190.689C448.1 191.528 440.183 202.204 434.546 204.724C428.908 207.243 422.727 206.643 419.433 206.643C415.594 206.643 411.566 209.98 407.798 214.079C404.92 217.211 396.644 221.275 396.644 221.275L394.965 217.557C394.965 217.557 399.523 216.237 403.84 212.519C408.158 208.801 411.517 205.202 412.837 203.884L412.835 203.882Z" fill="#EF4871"/>
<path d="M308.479 107.084C314.716 108.763 313.517 121.238 313.277 130.353C313.036 139.469 314.475 147.386 322.873 152.904C331.27 158.421 338.225 161.061 340.145 169.696" stroke="#2B332B" stroke-width="0.541048" stroke-linecap="round" stroke-linejoin="round"/>
<path d="M300.803 118.838C303.681 122.616 303.861 129.633 303.501 137.01C303.142 144.388 302.963 146.187 307.999 150.863C313.037 155.542 317.893 159.498 318.794 164.898" stroke="#2B332B" stroke-width="0.541048" stroke-linecap="round" stroke-linejoin="round"/>
<path d="M290.725 142.587C293.244 153.023 298.102 157.52 301.879 160.58C305.658 163.639 306.917 167.958 306.917 167.958" stroke="#2B332B" stroke-width="0.541048" stroke-linecap="round" stroke-linejoin="round"/>
<path d="M310.518 99.2278C315.556 101.026 321.492 104.985 321.313 117.58C321.133 130.174 320.412 135.753 326.53 141.15" stroke="#2B332B" stroke-width="0.541048" stroke-linecap="round" stroke-linejoin="round"/>
<path d="M340.924 151.045C348.302 155.003 354.597 158.603 356.218 166.519C357.837 174.436 355.318 181.452 355.318 181.452" stroke="#2B332B" stroke-width="0.541048" stroke-linecap="round" stroke-linejoin="round"/>
<path d="M341.645 138.988C348.481 142.046 359.997 148.524 363.776 157.88C367.554 167.235 367.554 174.072 367.195 178.21" stroke="#2B332B" stroke-width="0.541048" stroke-linecap="round" stroke-linejoin="round"/>
<path d="M261.399 59.1038C263.38 63.601 270.576 64.6809 277.772 65.0401C284.967 65.3994 291.445 67.7389 295.403 72.9568C299.362 78.1746 300.441 84.8317 301.34 87.71C302.24 90.5884 304.577 94.0079 304.577 94.0079" stroke="#2B332B" stroke-width="0.541048" stroke-linecap="round" stroke-linejoin="round"/>
<path d="M288.389 56.0458C294.866 56.9461 300.264 60.543 302.962 65.9405C305.661 71.338 304.761 77.6358 308.36 82.674C311.959 87.7122 314.837 89.1514 320.055 91.3091C325.273 93.469 329.411 97.9662 329.231 106.422C329.052 114.877 329.231 120.816 332.83 124.233" stroke="#2B332B" stroke-width="0.541048" stroke-linecap="round" stroke-linejoin="round"/>
<path d="M300.084 48.3088C307.462 49.2091 311.959 51.7283 314.298 55.3251" stroke="#2B332B" stroke-width="0.541048" stroke-linecap="round" stroke-linejoin="round"/>
<path d="M259.062 47.4107C260.322 42.1928 267.518 37.1546 275.796 39.4941" stroke="#2B332B" stroke-width="0.541048" stroke-linecap="round" stroke-linejoin="round"/>
<path d="M321.133 49.2091C325.271 50.6483 328.69 53.7063 329.229 59.8245C329.768 65.9426 332.828 70.0806 335.706 71.6994" stroke="#2B332B" stroke-width="0.541048" stroke-linecap="round" stroke-linejoin="round"/>
<path d="M341.283 117.94C342.722 123.517 344.341 126.936 350.639 130.174C356.937 133.411 361.075 135.032 364.674 138.811" stroke="#2B332B" stroke-width="0.541048" stroke-linecap="round" stroke-linejoin="round"/>
<path d="M393.643 121.718C396.701 126.036 399.04 129.814 405.158 133.773C411.276 137.731 410.735 142.769 409.837 151.225C408.937 159.68 411.097 164.18 414.155 168.138C417.213 172.096 421.533 175.875 421.533 175.875" stroke="#2B332B" stroke-width="0.541048" stroke-linecap="round" stroke-linejoin="round"/>
<path d="M238.01 115.059C237.651 118.478 234.411 123.514 229.914 127.834C225.416 132.152 222.536 134.671 222.897 140.428C223.257 146.184 222.897 156.62 216.24 162.018" stroke="#2B332B" stroke-width="0.541048" stroke-linecap="round" stroke-linejoin="round"/>
<path d="M243.408 129.453C241.068 132.872 235.671 133.411 234.232 139.348C232.792 145.284 233.872 147.983 233.511 152.482C233.152 156.979 229.014 162.559 229.014 162.559" stroke="#2B332B" stroke-width="0.541048" stroke-linecap="round" stroke-linejoin="round"/>
<path d="M230.632 107.684C227.754 109.302 223.975 109.482 220.917 118.479C217.859 127.475 220.197 129.274 214.981 133.771C209.763 138.268 203.827 137.37 202.206 144.925C200.587 152.482 203.106 157.159 199.866 161.658" stroke="#2B332B" stroke-width="0.541048" stroke-linecap="round" stroke-linejoin="round"/>
<path d="M214.44 143.129C211.741 146.366 210.482 148.346 210.122 152.484C209.763 156.622 209.043 162.02 206.523 163.639" stroke="#2B332B" stroke-width="0.541048" stroke-linecap="round" stroke-linejoin="round"/>
<path d="M227.755 93.8304C227.575 98.8687 220.198 98.8687 215.7 103.007C211.203 107.145 209.944 113.083 209.582 118.66C209.223 124.237 205.804 125.677 200.047 128.916C194.29 132.154 190.871 137.192 191.771 145.288C192.671 153.385 195.909 157.702 192.13 162.561C188.351 167.419 185.114 173.176 186.912 177.673" stroke="#2B332B" stroke-width="0.541048" stroke-linecap="round" stroke-linejoin="round"/>
<path d="M234.59 63.9625C229.913 63.9625 223.074 68.28 221.997 74.2186C220.917 80.1549 218.218 88.0716 212.461 90.0518C206.704 92.032 201.307 94.0101 197.708 99.0483C194.109 104.087 191.951 111.642 191.951 111.642" stroke="#2B332B" stroke-width="0.541048" stroke-linecap="round" stroke-linejoin="round"/>
<path d="M245.748 62.5231C245.209 66.1222 242.51 72.7792 238.731 75.8372C234.953 78.8952 232.974 85.7319 231.895 89.872" stroke="#2B332B" stroke-width="0.541048" stroke-linecap="round" stroke-linejoin="round"/>
<path d="M166.581 112.36C162.982 113.081 156.686 115.78 153.806 123.155C150.927 130.533 153.447 139.348 152.367 148.524C151.287 157.7 146.79 163.457 142.29 168.315C137.793 173.174 134.374 179.47 136.533 186.847C138.693 194.225 145.71 197.283 145.35 205.02C144.991 212.757 141.212 219.773 141.212 228.049C141.212 236.325 149.848 242.264 149.848 242.264" stroke="#2B332B" stroke-width="0.541048" stroke-linecap="round" stroke-linejoin="round"/>
<path d="M162.264 158.78C161.005 163.459 155.967 165.437 156.146 171.915C156.326 178.392 158.845 180.731 159.745 183.969C160.646 187.207 155.967 189.726 156.326 196.383C156.685 203.04 163.342 210.056 163.342 210.056" stroke="#2B332B" stroke-width="0.541048" stroke-linecap="round" stroke-linejoin="round"/>
<g style="mix-blend-mode:multiply" opacity="0.32">
<path d="M307.639 108.943C309.258 114.7 306.918 123.696 302.96 126.575C299.002 129.453 299.181 142.049 300.261 147.985C301.341 153.921 306.559 166.876 306.559 166.876L289.825 171.914L228.652 166.158C228.652 166.158 237.841 161.174 237.649 146.546C237.469 132.872 242.687 133.232 241.607 131.254C240.527 129.276 237.469 120.459 237.469 120.459C237.469 120.459 230.092 120.818 232.431 112.542C234.771 104.266 267.155 105.346 273.453 105.346C279.751 105.346 307.639 108.945 307.639 108.945V108.943Z" fill="#EB9C88"/>
</g>
<path d="M251.623 61.5039C253.062 66.5421 250.902 73.2576 247.065 78.0556C243.226 82.8537 240.347 86.931 240.587 89.5713C240.587 89.5713 233.87 85.494 230.511 89.3311C227.152 93.1704 228.113 96.527 230.031 99.4076C231.95 102.286 232.909 104.446 231.95 108.763C230.991 113.081 232.19 115.241 235.549 116.68C238.908 118.119 242.027 115.721 242.027 115.721C242.027 115.721 243.946 121.238 245.866 124.356L243.228 180.013C243.228 180.013 259.301 184.09 271.535 185.77C283.77 187.449 295.285 180.491 295.285 180.491C295.285 180.491 293.846 151.465 292.647 143.548C291.448 135.632 291.926 129.395 291.926 129.395C291.926 129.395 296.244 121.958 298.164 117.16C298.164 117.16 302.241 119.08 306.08 115.241C309.919 111.402 308.478 107.084 308.478 107.084C308.478 107.084 303.68 107.324 299.122 101.087C294.565 94.8498 294.565 85.2537 290.007 80.9362C285.449 76.6186 280.411 73.9783 271.295 73.7402C262.18 73.5 258.34 71.1021 255.942 68.4618C253.544 65.8236 251.625 61.5039 251.625 61.5039H251.623Z" fill="#FFCCB6"/>
<path d="M254.982 97.1632C255.928 97.1632 256.696 96.1274 256.696 94.8497C256.696 93.5719 255.928 92.5361 254.982 92.5361C254.035 92.5361 253.268 93.5719 253.268 94.8497C253.268 96.1274 254.035 97.1632 254.982 97.1632Z" fill="#1D1D1B"/>
<path d="M289.285 95.5682C289.285 97.1026 288.708 97.8817 287.571 97.8817C286.435 97.8817 285.857 97.1004 285.857 95.5682C285.857 94.0359 286.435 93.2546 287.571 93.2546C288.708 93.2546 289.285 94.0359 289.285 95.5682Z" fill="#1D1D1B"/>
<path d="M240.588 89.5713C239.148 101.565 240.107 111.401 242.027 115.719" stroke="#EF4871" stroke-width="0.541048" stroke-linecap="round" stroke-linejoin="round"/>
<path d="M298.162 117.158C300.8 111.88 302.421 104.623 302.421 104.623" stroke="#EF4871" stroke-width="0.541048" stroke-linecap="round" stroke-linejoin="round"/>
<path d="M245.865 124.356C249.464 131.314 257.619 139.709 268.894 139.469C280.17 139.229 287.846 133.712 291.924 129.392" stroke="#EF4871" stroke-width="0.541048" stroke-linecap="round" stroke-linejoin="round"/>
<path d="M270.097 92.2094C274.895 94.129 278.972 95.3279 278.254 98.2063C277.533 101.085 270.577 103.245 270.577 103.245" stroke="#EF4871" stroke-width="0.541048" stroke-linecap="round" stroke-linejoin="round"/>
<path d="M363.654 198.244C364.612 191.526 370.131 187.209 376.608 188.648C383.086 190.087 381.887 201.843 380.448 209.039C379.009 216.235 394.361 282.686 394.361 282.686C394.361 282.686 385.964 296.6 367.493 303.798C349.021 310.994 319.993 307.875 319.993 307.875L363.654 198.244Z" fill="#FFCCB6"/>
<path d="M167.421 186.01C175.741 181.943 180.855 190.087 183.255 194.407C185.653 198.724 217.799 312.914 217.799 312.914C217.799 312.914 194.77 313.634 177.017 301.638C159.265 289.644 151.212 277.432 148.604 266.366C146.812 258.763 163.584 204.001 163.584 204.001C163.584 204.001 156.626 191.286 167.424 186.008L167.421 186.01Z" fill="#FFCCB6"/>
<g style="mix-blend-mode:multiply" opacity="0.32">
<path d="M217.799 312.914L217.258 310.99L207.965 292.402L178.458 264.094C178.458 264.094 171.622 269.132 167.782 269.611C167.782 269.611 172.58 275.848 176.417 284.364C179.107 290.333 178.086 297.827 177.233 301.779C194.956 313.622 217.799 312.909 217.799 312.909V312.914Z" fill="#EB9C88"/>
</g>
<path d="M132.644 102.227C134.888 101.853 150.083 111.773 152.068 117.673C153.464 121.824 154.87 126.696 157.071 131.569C157.045 130.927 156.695 122.114 156.487 118.084C155.411 97.1024 160.623 78.8691 172.42 62.3412L176.824 65.4836C171.816 72.4999 168.078 79.8517 165.577 87.6254C171.468 83.1802 178.3 80.6286 180.191 82.5179C182.115 84.4397 168.187 92.8 163.488 95.5356C162.019 102.593 161.491 109.995 161.891 117.807C162.099 121.867 162.252 125.702 162.4 129.409C163.237 150.417 163.841 165.595 173.216 176.736C183.996 189.55 204.041 191.504 204.242 191.522L203.764 196.911C203.593 196.895 202.693 196.809 201.26 196.584C195.079 195.61 179.012 192.026 169.078 180.216C160.357 169.85 158.402 157.165 157.489 140.633C155.955 139.22 153.329 136.681 149.482 132.561C142.831 125.443 130.402 102.597 132.646 102.223L132.644 102.227Z" fill="#2B332B"/>
<path d="M176.825 65.4837C178.091 63.4862 179.848 61.5774 183.952 61.7397C188.055 61.8998 196.673 59.6144 199.724 52.5678C202.778 45.5212 203.362 40.2687 203.362 40.2687L192.851 46.8695L194.093 31.2787L183.746 43.0064L184.203 27.7792C184.203 27.7792 174.715 38.6694 172.559 44.6447C170.404 50.6201 175.271 56.4655 172.423 62.3413L176.827 65.4837H176.825Z" fill="#F9B300"/>
<path d="M196.625 174.148C191.721 168.804 186.211 163.937 184.449 152.558C182.687 141.178 177.632 137.525 178.311 136.205C178.991 134.887 182.679 136.493 185.598 139.274C188.518 142.055 189.94 143.869 189.94 143.869C189.94 143.869 187.388 130.085 188.57 129.254C189.751 128.423 197.309 142.397 197.309 142.397C197.309 142.397 196.138 127.46 197.614 126.945C199.09 126.429 203.107 135.192 204.444 138.776C206.561 144.449 206.81 147.587 205.511 154.676C204.215 161.764 201.812 166.744 202.602 171.243C202.602 171.243 201.841 172.912 199.986 173.462C198.131 174.011 196.62 174.15 196.62 174.15L196.625 174.148Z" fill="#EF4871"/>
<path d="M189.944 143.867C190.693 147.494 192.851 151.943 192.851 151.943" stroke="#2B332B" stroke-width="0.541048" stroke-linecap="round" stroke-linejoin="round"/>
<path d="M197.312 142.397C199.332 145.336 199.801 149.636 199.801 149.636" stroke="#2B332B" stroke-width="0.541048" stroke-linecap="round" stroke-linejoin="round"/>
<g style="mix-blend-mode:multiply" opacity="0.32">
<path d="M377.807 272.58C375.769 272.34 374.838 271.5 374.838 271.5C374.838 271.5 366.411 278.726 359.215 280.886C352.019 283.046 347.58 279.206 346.381 276.447C345.182 273.688 341.343 270.21 341.343 270.21L330.706 280.975L319.993 307.873C319.993 307.873 327.33 308.661 336.971 308.531C338.069 299.97 341.639 288.229 352.859 286.283C370.852 283.165 377.807 275.969 382.365 273.088C382.365 273.088 379.846 272.818 377.807 272.578V272.58Z" fill="#EB9C88"/>
</g>
<path d="M302.639 196.458C302.62 195.959 302.261 184.099 309.257 174.812C310.474 173.2 311.913 171.369 313.437 169.43C319.377 161.873 328.356 150.45 328.471 145.455L333.882 145.578C333.739 151.876 326.777 161.217 317.691 172.774C316.185 174.691 314.761 176.5 313.579 178.069C307.727 185.839 308.043 196.155 308.048 196.259L302.642 196.463L302.639 196.458Z" fill="#2B332B"/>
<path d="M328.471 145.453C327.012 139.564 322.831 135.242 325.474 128.499C328.116 121.753 333.176 118.933 333.977 116.855C333.977 116.855 333.263 128.55 332.845 131.944C332.845 131.944 342.997 120.14 343.869 120.43C344.739 120.718 338.766 135.391 338.766 135.391C338.766 135.391 349.26 126.713 349.91 127.336C350.559 127.96 346.754 133.838 343.168 137.928C339.584 142.018 335.531 142.427 333.882 145.578L328.471 145.455V145.453Z" fill="#F9B300"/>
<path d="M270.334 181.69C270.334 181.69 287.606 164.658 311.837 162.498C336.067 160.338 357.176 171.373 368.212 194.165C379.247 216.953 361.974 250.299 353.337 267.572C344.702 284.844 319.751 312.912 304.879 327.065C290.006 341.219 272.734 357.293 264.337 357.533C255.94 357.773 221.635 329.225 203.885 306.674C186.132 284.123 166.702 247.661 168.381 217.674C170.06 187.687 186.612 169.456 204.845 163.219C223.077 156.982 237.23 160.821 246.108 164.898C254.983 168.975 270.338 181.69 270.338 181.69H270.334Z" fill="#E84D00"/>
<g style="mix-blend-mode:multiply" opacity="0.32">
<path d="M353.34 267.572C357.32 259.612 363.13 248.239 367.165 236.059L366.654 224.989L344.343 227.149C340.026 233.626 340.026 245.861 344.702 250.899C344.702 250.899 340.744 264.213 348.301 268.171C348.301 268.171 334.987 276.447 331.388 287.242C329.449 293.057 325.32 302.212 321.92 309.421C334.425 295.581 347.546 279.15 353.338 267.57L353.34 267.572Z" fill="#EB9C88"/>
</g>
<g style="mix-blend-mode:multiply" opacity="0.64">
<path d="M207.963 232.189C209.882 227.032 206.883 218.994 204.604 216.477L176.415 225.593L174.851 254.939C181.772 274.268 193.134 293.023 203.883 306.676C204.368 307.293 204.868 307.912 205.377 308.538C199.053 295.611 193.328 279.09 193.328 279.09C193.328 279.09 197.886 278.49 203.643 274.172C209.4 269.855 207.361 264.457 207.482 262.057C207.601 259.659 208.802 257.5 208.802 257.5C216.239 246.824 209.283 236.509 209.283 236.509C209.283 236.509 206.045 237.349 207.963 232.191V232.189Z" fill="#E689B3"/>
</g>
<path d="M246.587 84.1737C250.186 81.5356 258.103 80.6959 261.94 82.7345" stroke="#2B332B" stroke-width="1.0821" stroke-linecap="round" stroke-linejoin="round"/>
<path d="M281.61 83.0937C285.328 81.4143 290.726 81.8948 292.405 83.334" stroke="#2B332B" stroke-width="1.0821" stroke-linecap="round" stroke-linejoin="round"/>
<path d="M261.1 105.762C261.632 112.025 266.032 116.823 273.894 116.156C281.757 115.49 282.69 104.961 282.69 104.961" stroke="#EF4871" stroke-width="1.62314" stroke-linecap="round" stroke-linejoin="round"/>
<path d="M252.969 104.77C253.536 108.012 252.604 109.876 250.201 110.296C247.799 110.715 246.289 109.281 245.722 106.039C245.155 102.797 246.087 100.933 248.49 100.513C250.892 100.094 252.402 101.528 252.969 104.77Z" fill="#FFC6DB"/>
<path d="M296.005 107.558C294.936 110.67 293.22 111.852 290.913 111.059C288.606 110.267 287.976 108.281 289.045 105.169C290.114 102.056 291.831 100.875 294.138 101.667C296.445 102.459 297.074 104.446 296.005 107.558Z" fill="#FFC6DB"/>
<g style="mix-blend-mode:multiply" opacity="0.32">
<path d="M299.122 101.087C294.564 94.8496 294.564 85.2536 290.006 80.936C285.449 76.6185 280.41 73.9782 271.295 73.7401C262.179 73.4999 258.34 71.102 255.942 68.4616C255.029 67.4575 254.187 66.2109 253.492 65.0487C255.795 72.1429 261.225 79.2328 269.676 80.1548C279.571 81.2347 284.429 86.9914 285.509 88.9717C286.589 90.9519 292.705 108.584 296.125 111.103C298.388 112.771 303.494 113.966 306.684 114.583C309.759 110.925 308.48 107.086 308.48 107.086C308.48 107.086 303.682 107.326 299.124 101.089L299.122 101.087Z" fill="#E689B3"/>
</g>
<path d="M382.606 206.639C370.692 203.39 361.016 206.879 354.539 212.396C348.061 217.914 342.305 224.63 341.824 231.347C341.344 238.065 344.462 241.184 348.782 241.424C348.782 241.424 342.305 248.382 344.465 255.337C346.624 262.295 354.061 260.854 354.061 260.854C354.061 260.854 345.425 266.132 346.144 274.049C346.865 281.966 353.58 283.165 362.936 280.046C365.198 279.293 371.422 274.019 374.662 271.59C376.821 272.67 381.974 273.393 385.368 273.3C392.055 274.35 394.364 282.686 394.364 282.686C394.364 282.686 407.797 260.135 404.679 238.545C401.56 216.955 390.525 208.799 382.608 206.639H382.606Z" fill="#FFCCB6"/>
<path d="M111.396 191.598C108.453 186.391 103.174 181.352 98.3763 173.436C93.5783 165.519 92.1391 149.446 93.3381 148.967C94.537 148.487 102.454 159.044 102.454 159.044C102.454 159.044 102.213 145.13 103.893 144.89C105.572 144.65 109.171 156.406 109.171 156.406C109.171 156.406 113.249 146.569 114.45 146.569C115.651 146.569 116.61 152.566 115.649 159.044C114.69 165.521 113.729 174.397 114.21 178.714C114.69 183.032 116.062 188.86 116.062 188.86L111.396 191.598Z" fill="#E689B3"/>
<path d="M191.625 233.899C191.428 234.003 171.74 244.207 152.806 233.91C146.058 230.239 140.74 225.703 136.287 220.685C136.804 214.562 138.323 202.341 142.517 195.264C148.274 185.549 150.434 170.434 149.354 169.356C148.274 168.276 138.2 182.311 134.601 193.106C131.458 202.536 132.707 210.316 133.553 217.41C128.43 210.918 124.466 203.804 120.57 196.809C119.111 194.191 117.603 191.483 116.062 188.858L111.396 191.596C112.907 194.169 114.4 196.85 115.844 199.441C116.417 200.471 116.993 201.503 117.573 202.538C110.269 199.06 99.8783 201.523 98.2573 202.821C96.4589 204.261 104.014 207.139 109.052 207.86C112.485 208.351 117.919 208.507 121.038 208.556C127.827 219.964 136.012 230.936 150.222 238.665C157.558 242.653 164.886 243.984 171.401 243.984C184.018 243.984 193.575 238.994 194.17 238.673L191.625 233.899Z" fill="#B2569B"/>
<path d="M152.548 213.837C157.657 206.265 163.823 200.642 176.057 199.443C188.292 198.244 198.846 205.2 202.445 208.799C206.044 212.398 206.763 223.673 205.324 227.51C205.324 227.51 211.08 231.828 210.602 239.026C210.122 246.222 206.525 249.103 206.525 249.103C206.525 249.103 212.522 261.096 205.566 267.574C198.608 274.051 176.401 263.129 176.401 263.129L167.781 268.773L148.711 266.613C148.711 266.613 145.112 254.379 145.592 247.421C146.072 240.463 147.99 233.507 147.99 233.507C147.99 233.507 146.07 223.431 152.548 213.837Z" fill="#FFCCB6"/>
<path d="M371.091 205.2C374.93 204.84 379.248 205.559 380.927 206.039" stroke="#EF4871" stroke-width="0.541048" stroke-linecap="round" stroke-linejoin="round"/>
<path d="M348.78 241.424C352.258 236.386 361.614 225.712 370.13 223.431C378.646 221.152 389.8 222.472 395.079 230.508" stroke="#EF4871" stroke-width="0.541048" stroke-linecap="round" stroke-linejoin="round"/>
<path d="M353.34 260.975C358.257 255.338 370.253 245.142 380.927 245.382C391.603 245.623 398.68 252.34 399.279 260.376" stroke="#EF4871" stroke-width="0.541048" stroke-linecap="round" stroke-linejoin="round"/>
<path d="M347.104 277.888C350.462 282.087 356.34 282.087 361.857 280.048C367.373 278.01 380.449 267.455 382.488 263.375" stroke="#EF4871" stroke-width="0.541048" stroke-linecap="round" stroke-linejoin="round"/>
<path d="M374.568 271.651C377.806 272.85 383.684 274.049 387.402 272.971" stroke="#EF4871" stroke-width="0.541048" stroke-linecap="round" stroke-linejoin="round"/>
<path d="M353.993 260.867C354.034 260.861 354.06 260.856 354.06 260.856C354.06 260.856 345.425 266.135 346.143 274.051C346.316 275.945 346.833 277.451 347.647 278.609C349.394 279.979 351.3 280.888 351.3 280.888C354.06 280.408 357.297 276.09 359.098 273.452C360.896 270.814 361.857 263.856 359.217 261.218C357.685 259.685 355.746 260.055 353.993 260.869V260.867Z" fill="#EF4871"/>
<path d="M350.788 260.848C351.786 260.001 353.099 258.774 354.179 257.378C356.218 254.74 357.778 250.542 357.897 246.224C358.017 241.906 355.738 238.548 351.061 238.426L348.656 241.413C348.698 241.415 348.739 241.424 348.782 241.426C348.782 241.426 342.304 248.384 344.464 255.34C345.668 259.216 348.509 260.484 350.79 260.85L350.788 260.848Z" fill="#EF4871"/>
<path d="M345.682 240.625C347.772 238.935 350.837 235.583 352.14 231.469C353.696 226.562 351.787 220.224 348.562 218.17C344.855 222.321 342.148 226.835 341.825 231.35C341.47 236.308 343.08 239.299 345.682 240.625Z" fill="#EF4871"/>
<path d="M203.105 223.911C204.012 224.628 204.993 225.418 205.715 226.004C206.57 221.299 205.65 212.004 202.445 208.799C201.712 208.065 200.684 207.189 199.413 206.273C197.968 208.158 196.42 211.777 197.167 215.097C197.976 218.696 201.396 222.563 203.103 223.914L203.105 223.911Z" fill="#EF4871"/>
<path d="M202.566 224.721C202.566 224.721 200.226 228.049 200.588 232.728C200.947 237.407 203.377 241.004 205.085 242.894C206.422 244.372 208.139 245.514 208.825 245.945C209.636 244.337 210.398 242.071 210.601 239.026C211.082 231.83 205.323 227.51 205.323 227.51C204.273 226.251 202.564 224.721 202.564 224.721H202.566Z" fill="#EF4871"/>
<path d="M199.957 241.814C199.957 241.814 196.538 245.233 197.079 251.079C197.617 256.926 203.556 260.973 205.354 262.233C206.33 262.917 207.462 263.174 208.296 263.269C210.399 256.861 206.523 249.098 206.523 249.098C205.264 246.85 201.035 242.532 199.957 241.812V241.814Z" fill="#EF4871"/>
<path d="M199.956 241.813C194.48 237.758 183.235 233.529 173.431 235.868C163.626 238.208 157.328 245.854 155.8 248.282" stroke="#EF4871" stroke-width="0.541048" stroke-linecap="round" stroke-linejoin="round"/>
<path d="M202.565 224.721C196.821 220.126 186.565 215.627 176.309 216.348C166.053 217.068 156.788 225.253 154.178 228.222" stroke="#EF4871" stroke-width="0.541048" stroke-linecap="round" stroke-linejoin="round"/>
<path d="M166.323 270.054C174.87 268.076 178.378 264.118 178.378 264.118C173.16 262.228 168.751 259.53 166.594 256.74" stroke="#EF4871" stroke-width="0.541048" stroke-linecap="round" stroke-linejoin="round"/>
<path d="M171.439 200.042C167 200.763 162.743 203.401 162.743 203.401" stroke="#EF4871" stroke-width="0.541048" stroke-linecap="round" stroke-linejoin="round"/>
<path d="M270.335 181.69C283.169 191.526 288.566 199.081 288.566 199.081" stroke="#2B332B" stroke-width="0.541048" stroke-linecap="round" stroke-linejoin="round"/>
<path d="M348.483 43.3115C349.891 43.5929 350.173 55.1496 350.173 55.1496C350.173 55.1496 358.769 43.5929 359.474 43.7357C360.18 43.8764 359.334 58.1103 359.334 58.1103C359.334 58.1103 367.227 49.0899 368.071 49.9361C368.917 50.7823 365.956 63.8887 360.461 69.2429C354.964 74.5971 349.751 72.3442 349.751 72.3442C349.751 72.3442 341.717 81.081 341.577 88.2683C341.436 95.4556 343.267 101.515 343.267 101.515C343.685 102.24 342.079 103.969 339.884 103.348C339.884 103.348 335.515 92.7785 338.616 83.4768C341.717 74.1751 346.225 70.7924 346.225 70.7924C346.225 70.7924 341.434 67.4098 341.434 61.2094C341.434 55.009 348.48 43.3115 348.48 43.3115H348.483Z" fill="#404CA1"/>
<path d="M369.652 99.2863C368.577 99.4291 362.335 92.8088 362.335 89.5712C362.335 86.3336 365.213 86.0934 366.893 88.0108C368.572 89.9305 369.652 91.9691 369.652 91.9691C369.652 91.9691 371.451 89.0908 372.89 87.6516C374.329 86.2124 377.328 86.0912 376.848 88.9717C376.368 91.8501 371.451 99.0482 369.652 99.2863Z" fill="#F9B300"/>
<path d="M128.898 141.012C128.061 141.704 119.261 139.393 117.547 136.647C115.831 133.9 118.147 132.171 120.588 132.909C123.029 133.647 125.024 134.805 125.024 134.805C125.024 134.805 125.024 131.409 125.485 129.427C125.946 127.445 128.424 125.754 129.541 128.449C130.658 131.145 130.298 139.854 128.9 141.01L128.898 141.012Z" fill="#E84D00"/>
<path d="M195.778 114.987C194.746 114.648 192.017 105.969 193.428 103.054C194.839 100.139 197.535 101.178 198.211 103.638C198.886 106.097 198.968 108.404 198.968 108.404C198.968 108.404 201.842 106.597 203.766 105.93C205.688 105.262 208.441 106.463 206.753 108.843C205.067 111.224 197.503 115.559 195.778 114.99V114.987Z" fill="#FFC6DB"/>
<path d="M122.316 227.049C122.26 228.134 114.612 233.059 111.426 232.466C108.242 231.876 108.532 229.002 110.727 227.701C112.921 226.4 115.122 225.712 115.122 225.712C115.122 225.712 112.62 223.418 111.469 221.739C110.318 220.061 110.746 217.09 113.49 218.088C116.233 219.085 122.409 225.236 122.316 227.047V227.049Z" fill="#404CA1"/>
<path d="M410.787 107.378C410.038 106.987 410.222 98.793 412.191 96.2198C414.159 93.6465 416.074 94.8109 415.942 97.1244C415.808 99.4379 415.234 101.565 415.234 101.565C415.234 101.565 418.089 100.124 419.848 99.6587C421.608 99.1934 423.525 100.507 421.48 102.567C419.437 104.628 412.04 108.032 410.789 107.376L410.787 107.378Z" fill="#E689B3"/>
<path d="M395.215 179.876C394.122 179.396 394.001 179.517 393.098 178.18C394.081 175.944 395.373 167.367 393.899 157.665C392.904 151.11 388.976 146.111 385.82 142.094C384.719 140.692 383.769 139.482 383.05 138.341C382.414 137.328 382.719 135.993 383.73 135.357C384.742 134.721 386.078 135.026 386.714 136.036C387.311 136.984 388.196 138.114 389.222 139.419C392.51 143.602 397.009 149.333 398.176 157.014C399.595 166.365 398.701 176.186 397.057 179.922C396.111 180.504 395.494 180 395.211 179.874L395.215 179.876Z" fill="#2B332B"/>
<path d="M381.828 140.309C376.311 140.428 371.273 136.71 368.754 131.552C366.235 126.395 364.436 117.758 365.036 117.279C365.635 116.799 375.712 124.116 375.712 124.116C375.712 124.116 375.231 111.882 376.192 111.523C377.151 111.163 385.308 121.958 385.308 121.958C385.308 121.958 386.507 110.205 387.227 109.843C387.948 109.484 393.346 120.638 392.984 127.836C392.625 135.032 388.184 140.172 381.83 140.311L381.828 140.309Z" fill="#FFC6DB"/>
<path d="M243.724 45.3849C242.687 43.3744 234.442 39.8727 230.815 37.9964C227.185 36.12 225.569 33.207 227.573 30.7701C229.577 28.3332 233.323 28.6059 236.751 31.757C236.751 31.757 234.764 22.6501 241.445 23.3837C247.208 24.0157 245.027 33.3239 244.176 36.1676C243.326 39.0092 243.724 45.3849 243.724 45.3849Z" fill="#E84D00"/>
<path d="M310.621 244.263C317.432 244.048 322.717 236.423 322.427 227.232C322.137 218.042 316.38 210.766 309.569 210.981C302.758 211.196 297.473 218.821 297.763 228.012C298.054 237.202 303.81 244.478 310.621 244.263Z" fill="white"/>
<path d="M236.792 243.537C243.603 243.322 248.888 235.697 248.598 226.506C248.307 217.316 242.551 210.04 235.74 210.255C228.929 210.471 223.644 218.095 223.934 227.286C224.224 236.476 229.981 243.752 236.792 243.537Z" fill="white"/>
<path d="M309.56 210.991C311.815 210.92 313.778 211.288 315.447 212.088C315.464 212.409 315.479 212.733 315.49 213.062C315.838 224.091 311.856 229.835 303.684 230.092C301.429 230.164 299.466 229.796 297.798 228.995C297.78 228.675 297.765 228.35 297.754 228.021C297.406 216.992 301.388 211.249 309.56 210.991Z" fill="#2B332B"/>
<path d="M235.733 210.262C239.484 210.143 242.425 211.238 244.544 213.519C244.457 223.476 240.477 228.668 232.721 228.913C228.97 229.032 226.029 227.937 223.91 225.656C223.997 215.698 227.977 210.506 235.733 210.262Z" fill="#2B332B"/>
<path d="M262.435 237.022C262.95 243.519 265.317 254.035 276.502 253.308C287.686 252.58 285.364 234.866 285.364 234.866" stroke="#FFC6DB" stroke-width="1.62314" stroke-linecap="round" stroke-linejoin="round"/>
</g>
<path d="M92.4487 93.1589C93.4691 91.9751 94.1973 91.067 94.6302 90.4379C95.0648 89.8088 95.6308 88.7917 96.33 87.3866C96.7411 87.084 97.0735 86.9713 97.3256 87.047C97.5777 87.1227 97.8047 87.247 98.0084 87.4199C98.2121 87.5928 98.4315 87.7278 98.6683 87.8246C98.9052 87.9231 99.2225 87.8317 99.6184 87.552C99.824 87.4015 100.068 87.4794 100.346 87.7843C100.625 88.0908 100.862 88.5209 101.055 89.0765C101.539 90.4836 101.635 91.8182 101.34 93.0787C100.656 94.9517 100.038 96.3644 99.4819 97.3154C98.5603 98.894 97.3764 100.488 95.9284 102.094C94.2212 103.783 92.7356 104.145 91.4716 103.179C86.6497 99.8629 82.5052 95.5154 79.0381 90.1377C77.9106 88.3866 76.7626 86.4913 75.5975 84.4516C75.3519 84.0221 75.0119 83.6329 74.5741 83.2842C74.138 82.9354 73.7095 82.5995 73.2871 82.2782C72.8663 81.9568 72.5218 81.6215 72.2535 81.274C71.9853 80.9265 71.9046 80.5287 72.0101 80.0824C73.2719 74.1836 75.043 70.0486 77.3203 67.6792C77.9829 66.769 78.7335 66.3818 79.5704 66.5175C80.4074 66.6549 81.1361 67.1066 81.7568 67.8759C82.3775 68.6451 82.8004 69.6028 83.0254 70.7489C83.2506 71.8966 83.0923 73.0318 82.5526 74.1575C82.0448 75.7281 81.7593 76.7032 81.6995 77.0843C81.5934 77.8255 81.6871 78.4752 81.9789 79.0337C82.2711 79.6909 82.5555 80.3086 82.832 80.8882C83.1087 81.4695 83.4721 81.9961 83.9255 82.4692L84.5916 83.123C85.0868 82.8462 85.5043 82.3774 85.8426 81.715C86.1808 81.0526 86.4887 80.4359 86.7662 79.8616C87.0437 79.289 87.327 78.865 87.6178 78.5929C87.9069 78.3209 88.2913 78.4875 88.7711 79.0928C89.2509 79.6997 89.6967 80.51 90.1122 81.5285C90.5276 82.5453 90.5953 83.6257 90.3149 84.7662C90.0348 85.4194 89.8491 85.8699 89.763 86.1189C89.6752 86.3681 89.6065 86.5555 89.5518 86.6817C89.4684 86.8519 89.1982 87.3168 88.7412 88.0765C89.8629 90.3772 90.8527 91.9858 91.7104 92.9005C92.0627 93.2737 92.3071 93.36 92.4438 93.1609L92.4487 93.1589Z" fill="#4C1691"/>
<path d="M94.4446 50.0333L94.5858 49.9444C95.3498 49.7437 96.0905 49.6385 96.8063 49.6306C97.5221 49.6226 98.2314 49.6637 98.9323 49.7523C99.6332 49.8409 100.311 50.0266 100.964 50.3096C103.531 51.324 105.014 53.9321 105.417 58.1368C105.582 59.9119 105.505 61.6592 105.184 63.3804C105.644 63.2987 106.035 63.1785 106.356 63.0198C106.677 62.8627 107.177 62.6777 107.853 62.4683C108.529 62.2589 109.283 62.4139 110.113 62.9354C110.942 63.4569 111.697 64.2316 112.377 65.2562C113.056 66.2825 113.605 67.4974 114.023 68.9009C114.441 70.306 114.611 71.781 114.533 73.3257C114.377 76.8605 112.954 79.7898 110.263 82.1187C109.914 82.4888 109.662 82.6945 109.509 82.7357C109.356 82.7768 109.232 82.8058 109.136 82.8261C109.04 82.8464 108.89 82.9443 108.686 83.1214C108.631 83.9912 108.361 84.7843 107.874 85.5043C107.387 86.2243 106.779 86.7655 106.052 87.1309C105.325 87.4964 104.538 87.6401 103.692 87.5619C102.846 87.4838 102.026 87.0738 101.235 86.3303C100.762 85.7764 100.438 85.2873 100.262 84.8645C100.024 84.751 99.7727 84.5715 99.5098 84.3224C96.4606 80.2059 94.2359 76.9394 92.8391 74.5228C90.0822 69.6885 88.3726 65.6531 87.7088 62.4184C87.1106 59.7233 87.5153 57.1402 88.9233 54.6742C90.2779 52.3041 92.1178 50.7583 94.4449 50.0383L94.4446 50.0333ZM96.4163 58.7859C95.7836 59.2953 95.6618 60.3776 96.0543 62.0325C96.3003 63.0732 96.9711 64.3296 98.0703 65.803C98.2735 65.2223 98.4987 64.6685 98.7429 64.1452C98.9888 63.6217 99.1951 63.1078 99.3635 62.6033C99.7873 61.3821 99.8994 60.329 99.7016 59.4439C99.5781 58.52 99.2612 57.9633 98.7478 57.7758C98.2024 57.7045 97.5489 57.8085 96.7889 58.0876C96.7829 58.3777 96.6604 58.6109 96.4163 58.7859ZM107.122 79.1107C107.283 78.8195 107.455 78.6044 107.641 78.4671C107.828 78.3298 108.013 78.1255 108.191 77.8531C108.663 77.2297 109.015 76.1259 109.246 74.54C109.187 73.3451 108.87 72.4401 108.3 71.828C107.727 71.2161 107.254 70.9369 106.879 70.989C106.503 71.0428 106.146 71.2478 105.806 71.6088C105.466 71.9699 105.145 72.4217 104.842 72.9661C104.54 73.5103 104.206 73.9965 103.839 74.4248L103.9 74.4824C104.215 74.9622 104.478 75.3938 104.69 75.7771C104.902 76.1604 105.114 76.5253 105.325 76.8702C105.83 77.6747 106.391 78.4616 107.01 79.226L107.121 79.1092L107.122 79.1107Z" fill="#4C1691"/>
<path d="M112.363 36.7517C113.027 37.1946 113.447 37.5077 113.618 37.6914C113.979 38.0841 114.095 38.5531 113.968 39.0981C113.984 39.1204 113.988 39.1704 113.978 39.2464C114.956 40.1508 115.733 41.1015 116.309 42.095C116.886 43.0902 117.404 44.0761 117.865 45.0511C117.493 42.1337 117.291 39.9393 117.263 38.4659C117.198 35.4225 117.461 33.0205 118.054 31.2595C118.28 30.7107 118.643 30.1538 119.142 29.5903C119.642 29.0268 120.194 28.5902 120.798 28.2788C121.403 27.9673 122.016 27.8579 122.636 27.9506C123.259 28.0432 123.814 28.4621 124.306 29.2088C126.954 34.009 129.341 38.5433 131.463 42.8153C133.584 47.0874 135.373 51.3381 136.828 55.5693L136.878 55.636L136.846 55.6601C137.188 56.6554 136.968 57.7045 136.187 58.8091C135.41 59.8749 134.522 60.5701 133.527 60.8946C132.342 61.3248 131.501 61.119 131.003 60.274L130.459 59.4807L130.409 59.414C130.094 58.8153 129.873 58.4159 129.741 58.2177C129.609 58.0212 129.521 57.8684 129.477 57.7628C129.085 57.1512 128.773 56.5423 128.538 55.9362C128.303 55.3301 128.101 54.8472 127.932 54.4859C127.764 54.1262 127.607 53.7825 127.462 53.4546C127.318 53.1283 127.199 52.879 127.103 52.7067C127.153 54.4766 127.097 55.6111 126.937 56.1133C126.543 57.3793 125.761 58.4153 124.587 59.2182C123.843 59.7021 123.31 59.8393 122.986 59.6298C122.303 59.1664 121.877 58.9107 121.709 58.8624C121.447 58.7809 121.114 58.5603 120.71 58.1991C122.069 61.1812 122.88 63.4088 123.142 64.8805C123.244 65.4643 123.312 66.0038 123.347 66.4986C123.596 67.4588 123.292 68.4855 122.433 69.5756C121.639 70.6191 120.654 71.3179 119.48 71.672C118.3 72.065 117.432 71.8428 116.874 71.0087C116.317 70.1729 115.718 69.0487 115.077 67.6311C114.439 66.215 113.792 64.6906 113.139 63.0561C111.018 57.9333 109.704 54.5528 109.2 52.9143C108.695 51.2759 108.329 49.9675 108.101 48.9924C107.592 46.6978 107.346 44.9352 107.364 43.7064C106.98 41.8047 107.454 40.1311 108.786 38.6871C109.828 37.5286 111.02 36.8835 112.363 36.7517Z" fill="#4C1691"/>
<path d="M389.397 45.5801C388.431 46.5771 387.202 46.921 385.707 46.6114C384.361 46.3185 383.397 45.6209 382.818 44.5152C382.18 43.3445 382.381 42.2501 383.421 41.2303C384.511 40.0094 386.354 38.1144 388.948 35.5445C391.543 32.9752 393.368 31.1674 394.422 30.1216C396.983 27.5011 398.649 25.7521 399.422 24.8751C401.554 22.799 402.949 21.552 403.606 21.133C404.264 20.7161 404.778 20.4549 405.151 20.352C405.522 20.2487 406.069 20.1861 406.79 20.1622C407.511 20.1399 408.232 20.2139 408.953 20.3859C409.674 20.5596 410.364 20.7869 411.024 21.0727C411.683 21.3585 412.347 21.662 413.017 21.9848C413.687 22.3076 414.472 22.591 415.376 22.8311C415.688 23.0044 415.985 23.1377 416.264 23.2266C416.544 23.3177 416.81 23.4169 417.066 23.5257C417.646 23.783 418.158 24.1504 418.601 24.6244C419.044 25.0999 419.279 25.6377 419.305 26.2388C419.33 26.8399 419.185 27.4283 418.865 28.0013C418.545 28.5743 418.092 29.1208 417.502 29.6413C416.912 30.1619 416.248 30.6071 415.507 30.9783C413.896 31.779 412.266 32.0805 410.616 31.8804C409.513 31.6589 408.757 31.434 408.349 31.2073C407.94 30.9806 407.686 30.7743 407.586 30.5863C407.485 30.3999 407.436 30.275 407.44 30.2121C407.445 30.1491 407.312 30.1886 407.043 30.3326C406.646 30.5354 406.288 30.8104 405.971 31.1559C405.652 31.501 405.382 31.7338 405.158 31.8535C404.933 31.9731 404.566 32.2506 404.057 32.686C403.547 33.1213 403.035 33.4311 402.522 33.6197C402.008 33.8078 401.708 33.9248 401.617 33.973L404.974 35.4004C405.506 35.6312 405.884 35.9808 406.111 36.4485C406.338 36.9178 406.425 37.3819 406.373 37.8424C406.32 38.3028 406.157 38.6937 405.885 39.0149C405.612 39.3361 405.242 39.4897 404.778 39.4767C404.314 39.4637 403.976 39.5198 403.764 39.6466C403.552 39.7734 403.361 39.9048 403.192 40.0388C403.022 40.1727 402.835 40.298 402.631 40.411C402.426 40.5256 402.101 40.5569 401.658 40.5058C400.682 40.4513 399.038 39.9288 396.728 38.9383C396.399 39.2448 395.991 39.5974 395.503 39.9946C395.013 40.3913 394.508 40.8048 393.989 41.2319C392.433 42.5535 391.517 43.3652 391.239 43.6671C390.962 43.969 390.735 44.2181 390.562 44.4171C390.044 45.0103 389.654 45.3969 389.397 45.5801Z" fill="#4C1691"/>
<path d="M404.217 55.1434C403.343 55.9157 402.242 55.9745 400.916 55.3187C399.678 54.7279 398.742 53.8458 398.106 52.6718C397.375 51.3935 397.397 50.3662 398.173 49.5898C399.02 48.1607 401.826 45.7635 406.59 42.3961C413.723 37.3381 419.454 34.188 423.781 32.9425C424.898 32.6297 425.74 32.5147 426.312 32.5985C426.882 32.6818 427.501 32.8256 428.167 33.0315C428.834 33.2375 429.515 33.4727 430.209 33.735C431.597 34.2592 432.853 34.8358 433.976 35.4659C435.098 36.0961 435.93 36.9013 436.471 37.8817C437.011 38.8616 437.237 39.8869 437.151 40.9544C437.063 42.0231 436.709 43.0977 436.084 44.1766C435.459 45.2572 434.656 46.277 433.678 47.2382C432.697 48.1985 431.566 49.0668 430.281 49.8382C428.995 50.6114 427.644 51.2191 426.226 51.6629C423.121 52.639 420.299 52.6713 417.762 51.7622L417.663 52.5925C417.613 53.264 417.59 54.0239 417.594 54.877C417.598 55.7285 417.592 56.5933 417.581 57.467C417.568 58.3419 417.516 59.1895 417.426 60.0064C417.335 60.8246 417.182 61.5426 416.966 62.1622C416.492 63.5475 415.615 64.1602 414.336 63.9976C413.267 63.9199 412.606 63.612 412.355 63.0731C412.262 62.8285 412.191 62.5545 412.14 62.2526C412.089 61.9507 411.952 61.627 411.725 61.2844C410.131 60.7157 409.388 59.6387 409.496 58.0555C409.582 57.0573 409.725 56.1902 409.927 55.4525C410.126 54.716 410.294 54.0949 410.428 53.5903C410.654 52.4479 410.742 51.3792 410.688 50.385C409.987 50.8267 409.128 51.4144 408.108 52.153C406.836 53.0941 405.485 54.0477 404.056 55.016L404.223 55.1378L404.217 55.1434ZM425.684 40.019C424.536 40.6968 423.74 41.1749 423.298 41.4519C422.413 42.0054 421.437 42.6141 420.367 43.2793C419.928 43.7353 419.61 44.0505 419.415 44.2249L420.235 44.0837L421.003 44.2232C421.57 44.286 422.087 44.3485 422.556 44.4073C423.024 44.4678 423.491 44.4568 423.959 44.3765C424.856 44.2222 425.933 43.6856 427.19 42.7684C427.358 42.5398 427.566 42.3368 427.813 42.1649C428.058 41.9925 428.277 41.7984 428.47 41.5856C428.93 41.1445 428.993 40.6425 428.658 40.0791C428.249 39.7079 427.415 39.6813 426.161 39.9963C425.91 40.0601 425.751 40.067 425.685 40.0174L425.684 40.019Z" fill="#4C1691"/>
<path d="M453.607 59.5713C453.914 60.5899 453.805 61.544 453.284 62.4286C450.652 64.3225 448.074 66.2394 445.552 68.1813C443.028 70.121 440.876 71.7063 439.092 72.9339C437.309 74.1619 435.991 75.0986 435.145 75.7454C434.296 76.3917 433.434 77.025 432.558 77.6436L431.751 78.1114C431.492 78.2973 431.247 78.4664 431.019 78.6225C430.79 78.7764 430.546 78.9472 430.288 79.1335C429.099 79.2453 428.032 78.8417 427.092 77.9191C426.091 76.9396 425.556 75.8951 425.487 74.7894C425.415 74.1586 425.945 73.501 427.08 72.8157C427.538 72.5451 428.067 72.1351 428.666 71.5833C429.265 71.0316 429.773 70.5833 430.193 70.234L430.254 70.1734C429.445 69.8205 428.63 69.5923 427.811 69.486C426.99 69.381 426.475 69.3157 426.267 69.2924C426.06 69.269 425.832 69.1863 425.586 69.0447C425.34 68.9031 425.129 68.7662 424.952 68.6324C424.558 68.2872 424.244 68.0988 424.007 68.0651C420.791 69.0657 418.609 69.2465 417.469 68.6057C416.719 68.2311 416.105 67.7195 415.625 67.071C415.146 66.4224 415.041 65.6287 415.306 64.6922C415.278 63.4664 417.073 61.9531 420.695 60.1479C422.624 59.2031 425.059 58.1858 428.001 57.0923C430.942 56.0004 433.592 55.135 435.955 54.494C441.037 53.1237 445.806 52.4442 450.261 52.4571C450.793 52.6593 451.38 52.8654 452.023 53.0749C452.663 53.284 453.205 53.5854 453.647 53.9787C454.089 54.372 454.475 54.8507 454.807 55.4148C455.138 55.9788 455.34 56.5372 455.414 57.0884C455.58 58.3688 454.979 59.1978 453.61 59.5723L453.607 59.5713ZM439.422 61.4262C437.811 62.243 436.293 62.964 434.873 63.5871C433.451 64.2115 432.213 64.7652 431.159 65.2495L433.574 67.4365C435.01 66.2887 436.456 65.1686 437.911 64.0797C439.366 62.9907 440.813 61.8907 442.248 60.7818L439.42 61.4257L439.422 61.4262ZM432.63 66.7517C432.904 67.0211 433.199 67.2698 433.513 67.4972L433.543 67.4668C433.268 67.2381 433.013 67.028 432.776 66.8357C432.539 66.6451 432.491 66.6165 432.628 66.7512L432.63 66.7517Z" fill="#4C1691"/>
<path d="M447.896 71.9177C449.751 71.1992 451.197 70.6622 452.235 70.3068C453.272 69.9509 454.222 69.6534 455.08 69.4165C455.939 69.1781 456.803 68.9963 457.676 68.8704C458.547 68.7441 459.392 68.6886 460.212 68.7044C461.031 68.7197 461.763 68.8469 462.409 69.0807C463.054 69.3161 463.568 69.6841 463.951 70.1867C464.334 70.6893 464.528 71.3683 464.536 72.2261C462.928 74.8246 461.813 76.5158 461.189 77.2974C460.252 78.4223 458.833 79.8781 456.931 81.6649C457.604 81.4646 458.325 81.2712 459.096 81.0819C459.868 80.8926 460.638 80.6941 461.413 80.488C463.429 80.0268 464.89 79.5921 465.796 79.1803C467.752 78.4538 469.702 78.544 471.647 79.447C473.327 80.2405 474.475 81.3007 475.09 82.627C475.348 83.1553 475.4 83.6234 475.248 84.0333C475.094 84.4428 474.786 84.6753 474.327 84.7315C473.868 84.7877 473.516 84.9504 473.275 85.2201C473.032 85.4893 472.733 85.7941 472.381 86.1311C471.385 86.9907 470.325 87.518 469.203 87.7151C468.079 87.9117 466.755 88.2439 465.228 88.7129C463.702 89.1802 462.098 89.6996 460.417 90.2694C458.734 90.8387 457.026 91.4203 455.29 92.0133C453.554 92.6062 451.951 93.1152 450.482 93.5404C447.136 94.562 445.094 94.8693 444.355 94.4656C443.2 94.031 442.427 93.653 442.037 93.3282C441.564 92.8938 441.024 92.1846 440.415 91.197C440.027 90.5932 440.415 89.5251 441.576 87.9898C442.187 87.1458 443.125 86.0924 444.384 84.8248C446.571 82.6119 447.742 81.347 447.891 81.0254C444.271 82.3926 441.938 83.1901 440.89 83.4143C439.841 83.6402 439.122 83.7539 438.732 83.7589C438.339 83.7634 437.841 83.7884 437.232 83.8365C436.198 84.1733 435.08 83.9529 433.878 83.1746C432.816 82.5319 432.127 81.7453 431.811 80.8131C431.469 79.7984 431.808 79.1598 432.83 78.9013C435.741 77.0731 440.762 74.7456 447.897 71.9182L447.896 71.9177Z" fill="#4C1691"/>
<path d="M475.648 105.476C476.398 105.065 476.634 104.606 476.356 104.1C476.25 103.907 476.073 103.707 475.829 103.497C475.583 103.288 475.356 103.082 475.15 102.883C474.159 102.266 473.235 101.874 472.376 101.703C471.518 101.531 470.585 101.393 469.583 101.285C468.578 101.178 467.565 101.17 466.539 101.262C465.516 101.354 464.587 101.502 463.755 101.708C460.692 102.477 459.038 103.73 458.787 105.464C458.689 106.176 458.802 106.809 459.125 107.368C459.449 107.926 459.82 108.318 460.236 108.543C460.652 108.769 461.054 108.995 461.441 109.223C461.826 109.45 462.185 109.761 462.518 110.159C462.85 110.555 463.092 111.143 463.245 111.922C463.395 112.701 463.309 113.208 462.986 113.449C462.663 113.689 462.299 113.888 461.897 114.046C461.496 114.203 461.154 114.383 460.874 114.584C460.593 114.785 460.548 115.147 460.738 115.669C460.388 116.454 459.504 116.564 458.085 115.997C457.713 115.856 457.362 115.719 457.029 115.59C454.514 114.275 452.54 112.492 451.105 110.241C450.198 108.827 449.612 107.113 449.35 105.097C448.963 102.085 450.384 99.489 453.615 97.3108C456.543 95.174 460.021 93.7686 464.048 93.0965C467.444 92.5193 470.904 92.5634 474.43 93.231C477.65 93.8144 480.081 94.7994 481.723 96.1844C484.001 97.6611 485.683 99.6814 486.77 102.248C487.835 105.013 487.625 107.322 486.134 109.172C484.644 111.023 482.256 112.157 478.971 112.582C477.82 112.742 476.693 112.469 475.587 111.759C474.61 111.168 473.843 110.366 473.287 109.357C472.731 108.347 472.705 107.516 473.209 106.863C473.713 106.21 474.526 105.75 475.648 105.48L475.648 105.476Z" fill="#4C1691"/>
<path d="M467.306 126.077C467.717 127.625 468.062 128.764 468.342 129.495C468.623 130.226 469.155 131.292 469.938 132.698C469.954 133.22 469.858 133.566 469.648 133.735C469.438 133.903 469.201 134.023 468.938 134.093C468.674 134.164 468.432 134.271 468.212 134.414C467.992 134.556 467.885 134.876 467.891 135.373C467.901 135.634 467.693 135.795 467.273 135.852C466.85 135.91 466.35 135.857 465.769 135.698C464.298 135.29 463.115 134.596 462.219 133.615C461.031 131.953 460.195 130.612 459.712 129.592C458.91 127.899 458.25 125.978 457.73 123.826C457.292 121.407 457.847 119.947 459.396 119.444C464.996 117.305 471.074 116.337 477.633 116.537C479.768 116.603 482.036 116.736 484.436 116.937C484.941 116.98 485.468 116.918 486.017 116.753C486.565 116.587 487.096 116.42 487.613 116.253C488.128 116.085 488.612 115.989 489.062 115.964C489.51 115.939 489.895 116.101 490.212 116.451C494.471 120.938 496.94 124.827 497.625 128.122C498.012 129.209 497.904 130.065 497.304 130.691C496.703 131.317 495.898 131.67 494.888 131.746C493.878 131.823 492.824 131.623 491.722 131.147C490.623 130.67 489.753 129.878 489.115 128.771C488.08 127.433 487.42 126.626 487.134 126.355C486.568 125.836 485.964 125.538 485.323 125.459C484.598 125.323 483.91 125.205 483.26 125.1C482.608 124.997 481.951 124.997 481.289 125.104L480.351 125.285C480.297 125.863 480.452 126.488 480.817 127.156C481.179 127.826 481.523 128.444 481.849 129.01C482.172 129.575 482.366 130.06 482.428 130.463C482.491 130.865 482.126 131.091 481.337 131.145C480.547 131.197 479.602 131.102 478.501 130.861C477.4 130.621 476.447 130.051 475.644 129.153C475.255 128.538 474.981 128.12 474.82 127.902C474.66 127.684 474.542 127.516 474.466 127.397C474.371 127.229 474.132 126.731 473.756 125.906C471.16 125.516 469.226 125.417 467.956 125.608C467.436 125.687 467.221 125.843 467.31 126.075L467.306 126.077Z" fill="#4C1691"/>
<defs>
<clipPath id="clip0_3144_16094">
<rect width="355.463" height="334.713" fill="white" transform="translate(92.3613 22.8218)"/>
</clipPath>
</defs>
</svg>
