<svg width="248" height="30" viewBox="0 0 248 30" fill="none" xmlns="http://www.w3.org/2000/svg">
<g clip-path="url(#clip0_3144_23395)">
<path d="M52.3107 24.8471C53.4349 24.8471 54.5286 24.5668 55.5872 24.0017C56.6458 23.4366 57.4901 22.6831 58.12 21.7412L61.4972 25.3991C58.8025 28.2553 55.7578 29.6834 52.3719 29.6834C48.9861 29.6834 46.2782 28.6496 44.266 26.5775C42.2493 24.5098 41.2432 21.8683 41.2432 18.6573C41.2432 15.4462 42.3499 12.8441 44.559 10.8553C46.7682 8.86209 49.3141 7.86768 52.1926 7.86768C55.071 7.86768 57.477 8.68248 59.4149 10.3033C61.3528 11.9286 62.3983 14.0269 62.5558 16.594V17.3387L48.5005 23.1562C49.3885 24.282 50.6615 24.8471 52.3063 24.8471H52.3107ZM52.5075 12.9755C51.0683 12.9755 49.791 13.4486 48.6798 14.3905C47.5687 15.3323 47.0132 16.6465 47.0132 18.3199C47.0132 18.6354 47.0263 18.8719 47.0525 19.0296L56.239 15.2929C55.8978 13.7465 54.6554 12.9755 52.5075 12.9755Z" fill="#5C4D91"/>
<path d="M78.9248 7.8677C81.4882 7.8677 83.728 8.87088 85.6397 10.8772C87.5513 12.8836 88.505 15.455 88.505 18.6003C88.505 21.7457 87.5251 24.3784 85.5609 26.5031C83.5968 28.6277 81.3658 29.6878 78.8679 29.6878C76.3701 29.6878 74.2922 28.654 72.643 26.5819V29.3724H66.7549V0.201538H72.643V10.5793C74.2659 8.77012 76.3569 7.8677 78.9248 7.8677ZM72.5642 18.815C72.5642 20.5322 73.0411 21.934 73.9947 23.0204C74.9483 24.1068 76.1076 24.6544 77.4681 24.6544C78.8285 24.6544 80.0184 24.1112 81.042 23.0204C82.0613 21.934 82.5731 20.5366 82.5731 18.8325C82.5731 17.1284 82.0744 15.7003 81.0814 14.5482C80.0884 13.3961 78.8985 12.8179 77.5118 12.8179C76.1251 12.8179 74.9527 13.3873 73.9991 14.5263C73.0454 15.6653 72.5686 17.0934 72.5686 18.8106L72.5642 18.815Z" fill="#5C4D91"/>
<path d="M112.289 17.9695V29.368H106.362V17.8118C106.362 16.134 106.108 14.903 105.596 14.1145C105.084 13.3304 104.262 12.9361 103.125 12.9361C101.987 12.9361 100.977 13.361 100.102 14.2152C99.2225 15.0695 98.7851 16.318 98.7851 17.9695V29.368H92.897V8.21811H98.7851V10.6143C100.408 8.77884 102.267 7.86328 104.358 7.86328C105.692 7.86328 106.904 8.25754 107.989 9.04168C109.074 9.8302 109.892 10.7852 110.443 11.911C111.252 10.6275 112.346 9.62869 113.72 8.9234C115.093 8.21812 116.476 7.86328 117.862 7.86328C120.347 7.86328 122.351 8.60361 123.869 10.0843C125.387 11.5649 126.143 13.7071 126.143 16.5107V29.3636H120.216V17.8074C120.216 14.5569 119.026 12.9317 116.642 12.9317C115.465 12.9317 114.441 13.3566 113.58 14.2109C112.718 15.0651 112.285 16.3136 112.285 17.9651L112.289 17.9695Z" fill="#5C4D91"/>
<path d="M135.295 6.25121V8.69124H141.656V11.048H135.374V29.368H132.587V6.13293C132.587 2.43565 134.788 0 138.83 0C140.361 0 141.931 0.433686 142.951 1.29668L142.01 3.38187C141.227 2.71163 140.125 2.36118 138.948 2.36118C136.555 2.36118 135.295 3.69728 135.295 6.25121Z" fill="#5A5A5A"/>
<path d="M157.202 8.53357V11.2452C156.966 11.2452 156.73 11.2058 156.533 11.2058C152.215 11.2058 149.586 13.9568 149.586 18.8325V29.368H146.8V8.69127H149.468V12.739C150.763 9.98795 153.397 8.53357 157.202 8.53357Z" fill="#5A5A5A"/>
<path d="M179.106 8.69129V29.3724H176.437V25.2853C174.749 28.0757 171.884 29.5695 168.467 29.5695C162.579 29.5695 158.183 25.2853 158.183 19.034C158.183 12.7828 162.579 8.53796 168.467 8.53796C171.765 8.53796 174.591 9.95292 176.319 12.6251V8.69567H179.106V8.69129ZM176.359 19.0297C176.359 14.1934 173.06 10.9692 168.703 10.9692C164.346 10.9692 161.009 14.1934 161.009 19.0297C161.009 23.8659 164.307 27.0901 168.703 27.0901C173.1 27.0901 176.359 23.8659 176.359 19.0297Z" fill="#5A5A5A"/>
<path d="M204.115 17.3781V29.368H201.328V17.6497C201.328 13.2866 199.049 11.0437 195.125 11.0437C190.689 11.0437 187.903 13.7947 187.903 18.5127V29.3636H185.116V8.69127H187.785V12.5025C189.276 9.98795 192.063 8.53357 195.637 8.53357C200.663 8.53357 204.119 11.4423 204.119 17.3781H204.115Z" fill="#5A5A5A"/>
<path d="M207.917 19.0296C207.917 12.8573 212.392 8.53357 218.555 8.53357C222.051 8.53357 224.995 9.9091 226.644 12.6207L224.562 14.0357C223.149 11.9505 220.948 10.9692 218.555 10.9692C214.041 10.9692 210.742 14.1934 210.742 19.0296C210.742 23.8659 214.041 27.0901 218.555 27.0901C220.953 27.0901 223.149 26.1482 224.562 24.063L226.644 25.478C224.995 28.1502 222.051 29.5651 218.555 29.5651C212.392 29.5651 207.917 25.202 207.917 19.0296Z" fill="#5A5A5A"/>
<path d="M245.135 24.3785L246.705 26.1877C244.859 28.3911 242.033 29.5695 238.774 29.5695C232.335 29.5695 227.899 25.167 227.899 19.034C227.899 12.9011 232.177 8.53796 238.109 8.53796C243.643 8.53796 247.807 12.5857 248.004 18.4076L231.044 21.7106C232.063 25.0531 234.968 27.0989 238.818 27.0989C241.368 27.0989 243.608 26.1964 245.139 24.3872L245.135 24.3785ZM230.607 18.8369C230.607 19.1523 230.607 19.4283 230.646 19.6999L245.213 16.87C244.623 13.4881 241.915 10.9342 238.109 10.9342C233.713 10.9342 230.611 14.1584 230.611 18.8369H230.607Z" fill="#5A5A5A"/>
<path opacity="0.6" d="M9.09899 29.6614C14.1242 29.6614 18.198 25.582 18.198 20.5497C18.198 15.5174 14.1242 11.4379 9.09899 11.4379C4.07376 11.4379 0 15.5174 0 20.5497C0 25.582 4.07376 29.6614 9.09899 29.6614Z" fill="#5C4D91"/>
<path opacity="0.8" d="M22.3055 29.6614C27.3308 29.6614 31.4045 25.582 31.4045 20.5497C31.4045 15.5174 27.3308 11.4379 22.3055 11.4379C17.2803 11.4379 13.2065 15.5174 13.2065 20.5497C13.2065 25.582 17.2803 29.6614 22.3055 29.6614Z" fill="#5C4D91"/>
<path opacity="0.4" d="M15.5731 18.4251C20.5983 18.4251 24.6721 14.3456 24.6721 9.31332C24.6721 4.28102 20.5983 0.201538 15.5731 0.201538C10.5479 0.201538 6.47412 4.28102 6.47412 9.31332C6.47412 14.3456 10.5479 18.4251 15.5731 18.4251Z" fill="#5C4D91"/>
</g>
<defs>
<clipPath id="clip0_3144_23395">
<rect width="248" height="29.6834" fill="white"/>
</clipPath>
</defs>
</svg>
