<svg width="248" height="30" viewBox="0 0 248 30" fill="none" xmlns="http://www.w3.org/2000/svg">
<g clip-path="url(#clip0_2544_19344)">
<path d="M52.3107 24.8471C53.4349 24.8471 54.5286 24.5668 55.5872 24.0017C56.6458 23.4366 57.4901 22.6831 58.12 21.7412L61.4972 25.3991C58.8025 28.2553 55.7578 29.6834 52.3719 29.6834C48.9861 29.6834 46.2782 28.6496 44.266 26.5775C42.2493 24.5098 41.2432 21.8683 41.2432 18.6573C41.2432 15.4462 42.3499 12.8441 44.559 10.8553C46.7682 8.86209 49.3141 7.86768 52.1926 7.86768C55.071 7.86768 57.477 8.68248 59.4149 10.3033C61.3528 11.9286 62.3983 14.0269 62.5558 16.594V17.3387L48.5005 23.1562C49.3885 24.282 50.6615 24.8471 52.3063 24.8471H52.3107ZM52.5075 12.9755C51.0683 12.9755 49.791 13.4486 48.6798 14.3905C47.5687 15.3323 47.0132 16.6465 47.0132 18.3199C47.0132 18.6354 47.0263 18.8719 47.0525 19.0296L56.239 15.2929C55.8978 13.7465 54.6554 12.9755 52.5075 12.9755Z" fill="#5C4D91"/>
<path d="M78.9248 7.86758C81.4882 7.86758 83.728 8.87076 85.6397 10.8771C87.5513 12.8834 88.505 15.4549 88.505 18.6002C88.505 21.7455 87.5251 24.3783 85.5609 26.5029C83.5968 28.6276 81.3658 29.6877 78.8679 29.6877C76.3701 29.6877 74.2922 28.6538 72.643 26.5818V29.3723H66.7549V0.201416H72.643V10.5792C74.2659 8.77 76.3569 7.86758 78.9248 7.86758ZM72.5642 18.8149C72.5642 20.5321 73.0411 21.9339 73.9947 23.0203C74.9483 24.1067 76.1076 24.6543 77.4681 24.6543C78.8285 24.6543 80.0184 24.1111 81.042 23.0203C82.0613 21.9339 82.5731 20.5365 82.5731 18.8324C82.5731 17.1283 82.0744 15.7002 81.0814 14.5481C80.0884 13.396 78.8985 12.8177 77.5118 12.8177C76.1251 12.8177 74.9527 13.3872 73.9991 14.5262C73.0454 15.6652 72.5686 17.0933 72.5686 18.8105L72.5642 18.8149Z" fill="#5C4D91"/>
<path d="M112.289 17.9695V29.368H106.362V17.8118C106.362 16.134 106.108 14.903 105.596 14.1145C105.084 13.3304 104.262 12.9361 103.125 12.9361C101.987 12.9361 100.977 13.361 100.102 14.2152C99.2225 15.0695 98.7851 16.318 98.7851 17.9695V29.368H92.897V8.21811H98.7851V10.6143C100.408 8.77884 102.267 7.86328 104.358 7.86328C105.692 7.86328 106.904 8.25754 107.989 9.04168C109.074 9.8302 109.892 10.7852 110.443 11.911C111.252 10.6275 112.346 9.62869 113.72 8.9234C115.093 8.21812 116.476 7.86328 117.862 7.86328C120.347 7.86328 122.351 8.60361 123.869 10.0843C125.387 11.5649 126.143 13.7071 126.143 16.5107V29.3636H120.216V17.8074C120.216 14.5569 119.026 12.9317 116.642 12.9317C115.465 12.9317 114.441 13.3566 113.58 14.2109C112.718 15.0651 112.285 16.3136 112.285 17.9651L112.289 17.9695Z" fill="#5C4D91"/>
<path d="M135.295 6.25121V8.69124H141.656V11.048H135.374V29.368H132.587V6.13293C132.587 2.43565 134.788 0 138.83 0C140.361 0 141.931 0.433686 142.951 1.29668L142.01 3.38187C141.227 2.71163 140.125 2.36118 138.948 2.36118C136.555 2.36118 135.295 3.69728 135.295 6.25121Z" fill="#5A5A5A"/>
<path d="M157.202 8.53345V11.2451C156.966 11.2451 156.73 11.2057 156.533 11.2057C152.215 11.2057 149.586 13.9567 149.586 18.8324V29.3679H146.8V8.69115H149.468V12.7389C150.763 9.98783 153.397 8.53345 157.202 8.53345Z" fill="#5A5A5A"/>
<path d="M179.106 8.69117V29.3723H176.437V25.2851C174.749 28.0756 171.884 29.5694 168.467 29.5694C162.579 29.5694 158.183 25.2851 158.183 19.0339C158.183 12.7827 162.579 8.53784 168.467 8.53784C171.765 8.53784 174.591 9.9528 176.319 12.625V8.69555H179.106V8.69117ZM176.359 19.0295C176.359 14.1933 173.06 10.9691 168.703 10.9691C164.346 10.9691 161.009 14.1933 161.009 19.0295C161.009 23.8658 164.307 27.09 168.703 27.09C173.1 27.09 176.359 23.8658 176.359 19.0295Z" fill="#5A5A5A"/>
<path d="M204.115 17.378V29.3679H201.328V17.6496C201.328 13.2865 199.049 11.0436 195.125 11.0436C190.689 11.0436 187.903 13.7946 187.903 18.5126V29.3635H185.116V8.69115H187.785V12.5023C189.276 9.98783 192.063 8.53345 195.637 8.53345C200.663 8.53345 204.119 11.4422 204.119 17.378H204.115Z" fill="#5A5A5A"/>
<path d="M207.917 19.0295C207.917 12.8572 212.392 8.53345 218.555 8.53345C222.051 8.53345 224.995 9.90898 226.644 12.6206L224.562 14.0356C223.149 11.9504 220.948 10.9691 218.555 10.9691C214.041 10.9691 210.742 14.1933 210.742 19.0295C210.742 23.8658 214.041 27.09 218.555 27.09C220.953 27.09 223.149 26.1481 224.562 24.0629L226.644 25.4779C224.995 28.1501 222.051 29.565 218.555 29.565C212.392 29.565 207.917 25.2019 207.917 19.0295Z" fill="#5A5A5A"/>
<path d="M245.135 24.3783L246.705 26.1875C244.859 28.391 242.033 29.5694 238.774 29.5694C232.335 29.5694 227.899 25.1669 227.899 19.0339C227.899 12.901 232.177 8.53784 238.109 8.53784C243.643 8.53784 247.807 12.5856 248.004 18.4075L231.044 21.7105C232.063 25.053 234.968 27.0987 238.818 27.0987C241.368 27.0987 243.608 26.1963 245.139 24.3871L245.135 24.3783ZM230.607 18.8368C230.607 19.1522 230.607 19.4282 230.646 19.6998L245.213 16.8699C244.623 13.488 241.915 10.9341 238.109 10.9341C233.713 10.9341 230.611 14.1582 230.611 18.8368H230.607Z" fill="#5A5A5A"/>
<path opacity="0.6" d="M9.09899 29.6616C14.1242 29.6616 18.198 25.5821 18.198 20.5498C18.198 15.5175 14.1242 11.438 9.09899 11.438C4.07376 11.438 0 15.5175 0 20.5498C0 25.5821 4.07376 29.6616 9.09899 29.6616Z" fill="#5C4D91"/>
<path opacity="0.8" d="M22.3055 29.6616C27.3308 29.6616 31.4045 25.5821 31.4045 20.5498C31.4045 15.5175 27.3308 11.438 22.3055 11.438C17.2803 11.438 13.2065 15.5175 13.2065 20.5498C13.2065 25.5821 17.2803 29.6616 22.3055 29.6616Z" fill="#5C4D91"/>
<path opacity="0.4" d="M15.5731 18.425C20.5983 18.425 24.6721 14.3455 24.6721 9.3132C24.6721 4.2809 20.5983 0.201416 15.5731 0.201416C10.5479 0.201416 6.47412 4.2809 6.47412 9.3132C6.47412 14.3455 10.5479 18.425 15.5731 18.425Z" fill="#5C4D91"/>
</g>
<defs>
<clipPath id="clip0_2544_19344">
<rect width="248" height="29.6834" fill="white"/>
</clipPath>
</defs>
</svg>
