<svg width="120" height="64" viewBox="0 0 120 64" fill="none" xmlns="http://www.w3.org/2000/svg">
<g clip-path="url(#clip0_3144_23210)">
<path d="M40.0078 49.5038C40.0078 48.2179 41.0003 47.302 42.3933 47.302C43.2914 47.302 43.9981 47.6924 44.3094 48.3914L43.3475 48.9068C43.1179 48.5011 42.776 48.32 42.3857 48.32C41.758 48.32 41.2656 48.7563 41.2656 49.5038C41.2656 50.2514 41.758 50.6876 42.3857 50.6876C42.776 50.6876 43.1179 50.5116 43.3475 50.1008L44.3094 50.6264C43.9981 51.3102 43.2914 51.7082 42.3933 51.7082C41.0028 51.7082 40.0078 50.7948 40.0078 49.5064" fill="#4D4D4D"/>
<path d="M48.0926 49.5038C48.0926 48.7639 47.6232 48.32 47.0032 48.32C46.3832 48.32 45.9061 48.7639 45.9061 49.5038C45.9061 50.2437 46.3832 50.6876 47.0032 50.6876C47.6232 50.6876 48.0926 50.2437 48.0926 49.5038ZM44.6509 49.5038C44.6509 48.2179 45.6434 47.302 47.0032 47.302C48.3631 47.302 49.3479 48.2154 49.3479 49.5038C49.3479 50.7922 48.3631 51.7056 47.0032 51.7056C45.6434 51.7056 44.6509 50.7922 44.6509 49.5038Z" fill="#4D4D4D"/>
<path d="M51.4172 45.743H50.1772V51.6418H51.4172V45.743Z" fill="#4D4D4D"/>
<path d="M53.8103 45.743H52.5703V51.6418H53.8103V45.743Z" fill="#4D4D4D"/>
<path d="M55.8797 49.1287H57.9845C57.8978 48.5878 57.4921 48.2383 56.9359 48.2383C56.3797 48.2383 55.9664 48.5802 55.8797 49.1287ZM56.6578 46.8146L55.2189 45.6716H56.5532L57.6273 46.8146H56.6578ZM59.1301 49.8507H55.895C56.0149 50.384 56.4665 50.708 57.1196 50.708C57.5737 50.708 57.8978 50.5728 58.1937 50.2947L58.8545 51.0116C58.4565 51.4657 57.862 51.703 57.089 51.703C55.6118 51.703 54.6499 50.7718 54.6499 49.5012C54.6499 48.2306 55.6271 47.2994 56.9308 47.2994C58.2345 47.2994 59.1556 48.1413 59.1556 49.5165C59.1556 49.6109 59.1403 49.7461 59.1326 49.8507" fill="#4D4D4D"/>
<path d="M63.1715 49.3686C63.1715 48.741 62.702 48.32 62.0514 48.32C61.4008 48.32 60.9237 48.741 60.9237 49.3686C60.9237 49.9962 61.4008 50.4172 62.0514 50.4172C62.702 50.4172 63.1715 49.9962 63.1715 49.3686ZM64.3961 47.3658V50.9275C64.3961 52.517 63.5389 53.2492 61.9953 53.2492C61.1865 53.2492 60.3981 53.0502 59.8981 52.6598L60.3905 51.7694C60.7553 52.0628 61.3523 52.2542 61.9009 52.2542C62.776 52.2542 63.1561 51.8562 63.1561 51.0856V50.902C62.8296 51.2591 62.3601 51.4352 61.8065 51.4352C60.6227 51.4352 59.6685 50.6162 59.6685 49.3686C59.6685 48.121 60.6227 47.302 61.8065 47.302C62.4035 47.302 62.8959 47.501 63.2199 47.9143V47.3658H64.3961Z" fill="#4D4D4D"/>
<path d="M66.4651 49.1288H68.57C68.4832 48.5879 68.0775 48.2383 67.5214 48.2383C66.9652 48.2383 66.5518 48.5802 66.4651 49.1288ZM69.7155 49.8533H66.4804C66.6003 50.3866 67.0519 50.7106 67.7051 50.7106C68.1592 50.7106 68.4832 50.5754 68.7792 50.2973L69.44 51.0142C69.042 51.4684 68.4475 51.7056 67.6744 51.7056C66.1972 51.7056 65.2354 50.7744 65.2354 49.5038C65.2354 48.2332 66.2125 47.302 67.5163 47.302C68.82 47.302 69.741 48.1439 69.741 49.5191C69.741 49.6135 69.7257 49.7487 69.7181 49.8533" fill="#4D4D4D"/>
<path d="M41.7375 54.9254C41.7375 54.4713 41.4262 54.1651 41.0154 54.1651C40.6047 54.1651 40.2883 54.4687 40.2883 54.9254C40.2883 55.3821 40.5996 55.6857 41.0154 55.6857C41.4313 55.6857 41.7375 55.3821 41.7375 54.9254ZM41.9977 53.1522V55.9H41.7451V55.5148C41.5869 55.7776 41.3165 55.9179 40.9925 55.9179C40.4363 55.9179 40.0229 55.5148 40.0229 54.9254C40.0229 54.336 40.4363 53.938 40.9925 53.938C41.3037 53.938 41.5716 54.0707 41.7324 54.3233V53.1522H41.9951H41.9977Z" fill="#4D4D4D"/>
<path d="M42.7964 54.8106H44.1766C44.1435 54.4279 43.8654 54.1625 43.4852 54.1625C43.1051 54.1625 42.8295 54.4304 42.7964 54.8106ZM44.4267 55.007H42.7964C42.827 55.4152 43.1383 55.6857 43.5643 55.6857C43.8016 55.6857 44.0134 55.6015 44.1613 55.4305L44.3093 55.6015C44.1358 55.8081 43.8654 55.9204 43.5567 55.9204C42.9495 55.9204 42.5361 55.5071 42.5361 54.9279C42.5361 54.3488 42.9392 53.9406 43.4878 53.9406C44.0363 53.9406 44.4318 54.3437 44.4318 54.9279C44.4318 54.9509 44.4292 54.9789 44.4292 55.0096" fill="#4D4D4D"/>
<path d="M46.2022 53.1522H45.9395V55.9H46.2022V53.1522Z" fill="#4D4D4D"/>
<path d="M48.1441 55.3132V54.9942H47.5318C47.1542 54.9942 47.0317 55.1422 47.0317 55.3412C47.0317 55.5683 47.2129 55.7086 47.5241 55.7086C47.8354 55.7086 48.0395 55.5683 48.1441 55.3132ZM48.4069 54.6906V55.8974H48.1543V55.5938C48.037 55.7928 47.8073 55.9153 47.4833 55.9153C47.0419 55.9153 46.7715 55.6856 46.7715 55.3489C46.7715 55.0478 46.9654 54.7978 47.5241 54.7978H48.1441V54.6804C48.1441 54.3462 47.9553 54.165 47.593 54.165C47.3404 54.165 47.1032 54.2543 46.945 54.3947L46.8251 54.1982C47.0215 54.0324 47.3098 53.9354 47.6185 53.9354C48.1211 53.9354 48.4069 54.188 48.4069 54.6906Z" fill="#4D4D4D"/>
<path d="M47.353 59.4694V61.9187H46.113V59.6607C46.113 58.9693 45.8017 58.6504 45.3017 58.6504C44.7455 58.6504 44.3551 59.0076 44.3551 59.7704V61.9161H43.1152V59.6582C43.1152 58.9668 42.8218 58.6478 42.3038 58.6478C41.7553 58.6478 41.365 59.005 41.365 59.7679V61.9136H40.125V57.6375H41.3088V58.1299C41.6277 57.7651 42.1048 57.5737 42.6534 57.5737C43.2504 57.5737 43.7581 57.8059 44.0592 58.2728C44.4011 57.8365 44.9572 57.5737 45.6002 57.5737C46.6182 57.5737 47.3479 58.1605 47.3479 59.4643" fill="#4D4D4D"/>
<path d="M50.703 57.0939H49.7334L50.8076 55.9509H52.1419L50.703 57.0939ZM49.4324 59.408H51.5372C51.4505 58.8671 51.0448 58.5176 50.4886 58.5176C49.9325 58.5176 49.5191 58.8595 49.4324 59.408ZM52.6828 60.1326H49.4477C49.5676 60.6658 50.0192 60.9898 50.6723 60.9898C51.1265 60.9898 51.4505 60.8546 51.7465 60.5765L52.4073 61.2934C52.0092 61.7476 51.4148 61.9849 50.6417 61.9849C49.1645 61.9849 48.2026 61.0536 48.2026 59.783C48.2026 58.5125 49.1798 57.5812 50.4835 57.5812C51.7873 57.5812 52.7083 58.4232 52.7083 59.7984C52.7083 59.8928 52.693 60.028 52.6854 60.1326" fill="#4D4D4D"/>
<path d="M56.6731 59.778C56.6731 59.0381 56.196 58.5942 55.5837 58.5942C54.9714 58.5942 54.4866 59.0381 54.4866 59.778C54.4866 60.5179 54.9637 60.9619 55.5837 60.9619C56.2037 60.9619 56.6731 60.5179 56.6731 59.778ZM57.8901 56.0199V61.9186H56.7063V61.4262C56.395 61.7987 55.9434 61.9824 55.3719 61.9824C54.1626 61.9824 53.2339 61.1251 53.2339 59.7806C53.2339 58.436 54.1626 57.5788 55.3719 57.5788C55.8975 57.5788 56.3414 57.7446 56.6527 58.0967V56.0224H57.8926L57.8901 56.0199Z" fill="#4D4D4D"/>
<path d="M59.9514 59.4055H62.0563C61.9695 58.8646 61.5639 58.5151 61.0077 58.5151C60.4515 58.5151 60.0382 58.857 59.9514 59.4055ZM63.2018 60.1301H59.9667C60.0866 60.6633 60.5382 60.9873 61.1914 60.9873C61.6455 60.9873 61.9695 60.8521 62.2655 60.574L62.9263 61.2909C62.5283 61.7451 61.9338 61.9824 61.1608 61.9824C59.6835 61.9824 58.7217 61.0511 58.7217 59.7805C58.7217 58.51 59.6988 57.5787 61.0026 57.5787C62.3063 57.5787 63.2274 58.4207 63.2274 59.7959C63.2274 59.8903 63.212 60.0255 63.2044 60.1301" fill="#4D4D4D"/>
<path d="M63.7378 59.778C63.7378 58.4921 64.7303 57.5762 66.1207 57.5762C67.0188 57.5762 67.7255 57.9665 68.0368 58.6656L67.0749 59.181C66.8453 58.7753 66.5035 58.5942 66.1131 58.5942C65.4855 58.5942 64.9931 59.0304 64.9931 59.778C64.9931 60.5255 65.4855 60.9618 66.1131 60.9618C66.5035 60.9618 66.8453 60.7858 67.0749 60.3724L68.0368 60.898C67.7255 61.5818 67.0188 61.9798 66.1207 61.9798C64.7303 61.9798 63.7378 61.0664 63.7378 59.778Z" fill="#4D4D4D"/>
<path d="M68.756 57.6426H69.996V61.9186H68.756V57.6426ZM68.6055 56.3541C68.6055 55.9638 68.9167 55.6627 69.376 55.6627C69.8352 55.6627 70.1465 55.9485 70.1465 56.3312C70.1465 56.7445 69.8352 57.0455 69.376 57.0455C68.9167 57.0455 68.6055 56.7445 68.6055 56.3541Z" fill="#4D4D4D"/>
<path d="M75.52 59.4693V61.9186H74.28V59.6606C74.28 58.9692 73.9611 58.6503 73.4126 58.6503C72.8156 58.6503 72.3869 59.0151 72.3869 59.8035V61.9186H71.147V57.6425H72.3308V58.1426C72.665 57.7777 73.1651 57.5787 73.7442 57.5787C74.7546 57.5787 75.5174 58.1655 75.5174 59.4693" fill="#4D4D4D"/>
<path d="M77.6067 59.4055H79.7116C79.6248 58.8646 79.2192 58.5151 78.663 58.5151C78.1068 58.5151 77.6934 58.857 77.6067 59.4055ZM80.8571 60.1301H77.622C77.7419 60.6633 78.1935 60.9873 78.8467 60.9873C79.3008 60.9873 79.6248 60.8521 79.9208 60.574L80.5816 61.2909C80.1836 61.7451 79.5891 61.9824 78.816 61.9824C77.3388 61.9824 76.377 61.0511 76.377 59.7805C76.377 58.51 77.3541 57.5787 78.6579 57.5787C79.9616 57.5787 80.8826 58.4207 80.8826 59.7959C80.8826 59.8903 80.8673 60.0255 80.8597 60.1301" fill="#4D4D4D"/>
<path d="M87.1461 59.6453C87.1461 59.0177 86.6766 58.5967 86.026 58.5967C85.3754 58.5967 84.8983 59.0177 84.8983 59.6453C84.8983 60.273 85.3754 60.694 86.026 60.694C86.6766 60.694 87.1461 60.273 87.1461 59.6453ZM88.3707 57.6425V61.2042C88.3707 62.7937 87.5135 63.5259 85.9699 63.5259C85.1611 63.5259 84.3727 63.3269 83.8727 62.9391L84.3651 62.0487C84.7299 62.3421 85.327 62.5335 85.8755 62.5335C86.7506 62.5335 87.1308 62.1355 87.1308 61.365V61.1838C86.8042 61.541 86.3347 61.717 85.7811 61.717C84.5973 61.717 83.6431 60.8981 83.6431 59.6505C83.6431 58.4028 84.5973 57.5839 85.7811 57.5839C86.3781 57.5839 86.8705 57.7829 87.1945 58.1962V57.6476H88.3707V57.6425Z" fill="#4D4D4D"/>
<path d="M91.7132 57.0939H90.7437L91.8178 55.9509H93.1522L91.7132 57.0939ZM90.4426 59.408H92.5475C92.4607 58.8671 92.0551 58.5176 91.4989 58.5176C90.9427 58.5176 90.5294 58.8595 90.4426 59.408ZM93.6931 60.1326H90.4579C90.5779 60.6658 91.0294 60.9898 91.6826 60.9898C92.1367 60.9898 92.4608 60.8546 92.7567 60.5765L93.4175 61.2934C93.0195 61.7476 92.425 61.9849 91.652 61.9849C90.1747 61.9849 89.2129 61.0536 89.2129 59.783C89.2129 58.5125 90.19 57.5812 91.4938 57.5812C92.7975 57.5812 93.7186 58.4232 93.7186 59.7984C93.7186 59.8928 93.7033 60.028 93.6956 60.1326" fill="#4D4D4D"/>
<path d="M98.9155 59.4693V61.9186H97.6755V59.6606C97.6755 58.9692 97.3566 58.6503 96.8081 58.6503C96.2111 58.6503 95.7824 59.0151 95.7824 59.8035V61.9186H94.5425V57.6425H95.7263V58.1426C96.0605 57.7777 96.5606 57.5787 97.1397 57.5787C98.1501 57.5787 98.9129 58.1655 98.9129 59.4693" fill="#4D4D4D"/>
<path d="M102.273 57.0939H101.304L102.378 55.9509H103.712L102.273 57.0939ZM101.003 59.408H103.108C103.021 58.8671 102.615 58.5176 102.059 58.5176C101.503 58.5176 101.089 58.8595 101.003 59.408ZM104.253 60.1326H101.018C101.138 60.6658 101.59 60.9898 102.243 60.9898C102.697 60.9898 103.021 60.8546 103.317 60.5765L103.978 61.2934C103.58 61.7476 102.985 61.9849 102.212 61.9849C100.735 61.9849 99.7729 61.0536 99.7729 59.783C99.7729 58.5125 100.75 57.5812 102.054 57.5812C103.358 57.5812 104.279 58.4232 104.279 59.7984C104.279 59.8928 104.263 60.028 104.256 60.1326" fill="#4D4D4D"/>
<path d="M107.761 57.5787V58.7243C107.659 58.7166 107.578 58.709 107.483 58.709C106.799 58.709 106.348 59.084 106.348 59.903V61.9211H105.108V57.6451H106.292V58.2089C106.593 57.7956 107.103 57.5813 107.761 57.5813" fill="#4D4D4D"/>
<path d="M111.022 60.5664V60.1301H110.172C109.593 60.1301 109.41 60.3444 109.41 60.6301C109.41 60.9414 109.672 61.1481 110.109 61.1481C110.522 61.1481 110.879 60.9567 111.022 60.5664ZM112.262 59.4769V61.916H111.101V61.3828C110.871 61.7731 110.425 61.9798 109.797 61.9798C108.797 61.9798 108.2 61.4236 108.2 60.6837C108.2 59.9438 108.733 59.4055 110.037 59.4055H111.022C111.022 58.8723 110.703 58.5636 110.037 58.5636C109.583 58.5636 109.116 58.7141 108.805 58.9616L108.358 58.0967C108.828 57.7624 109.519 57.5787 110.203 57.5787C111.507 57.5787 112.262 58.1834 112.262 59.4795" fill="#4D4D4D"/>
<path d="M114.624 56.0199H113.384V61.9186H114.624V56.0199Z" fill="#4D4D4D"/>
<path d="M116.694 59.4055H118.798C118.712 58.8646 118.306 58.5151 117.75 58.5151C117.194 58.5151 116.78 58.857 116.694 59.4055ZM119.944 60.1301H116.709C116.829 60.6633 117.28 60.9873 117.934 60.9873C118.388 60.9873 118.712 60.8521 119.008 60.574L119.668 61.2909C119.27 61.7451 118.676 61.9824 117.903 61.9824C116.426 61.9824 115.464 61.0511 115.464 59.7805C115.464 58.51 116.441 57.5787 117.745 57.5787C119.049 57.5787 119.97 58.4207 119.97 59.7959C119.97 59.8903 119.954 60.0255 119.947 60.1301" fill="#4D4D4D"/>
<path d="M38.4693 45.6716H37.6401V63.5795H38.4693V45.6716Z" fill="#4D4D4D"/>
<path d="M22.1179 0C15.1476 0 9.00904 3.55913 5.4193 8.96032C3.30934 12.1342 2.07959 15.9434 2.07959 20.0408C2.07959 20.2653 2.08469 20.4873 2.09235 20.7093H12.8208C12.8054 20.4873 12.7952 20.2653 12.7952 20.0408C12.7952 14.8973 16.9794 10.7156 22.1204 10.7156C24.7381 10.7156 27.1057 11.8 28.8024 13.5451L28.8866 13.4737L36.3467 5.92933C32.711 2.26559 27.6798 0 22.1179 0Z" fill="#E51C80"/>
<path d="M4.90369 8.43982C1.84973 11.9556 0 16.548 0 21.5716C0 32.6393 8.97308 41.6099 20.0383 41.6099C25.5772 41.6099 30.5906 39.3621 34.2186 35.7316L26.6131 28.1796C24.9266 29.8584 22.6024 30.8968 20.0408 30.8968C14.8973 30.8968 10.7157 26.7126 10.7157 21.5716C10.7157 21.2782 10.731 20.9899 10.7565 20.7067H2.08955C2.0819 20.4847 2.0768 20.2628 2.0768 20.0382C2.0768 15.9408 3.30654 12.1316 5.41651 8.95774L4.90113 8.43982H4.90369Z" fill="#0078FF"/>
<path d="M5.4193 8.96033C3.30934 12.1342 2.07959 15.9434 2.07959 20.0408C2.07959 20.2653 2.08469 20.4873 2.09235 20.7093H10.7567C10.9149 18.9922 11.5425 17.4104 12.5069 16.0888L12.484 16.0709L5.42185 8.96288L5.4193 8.96033Z" fill="#000D80"/>
<path d="M71.3358 0.556152L60.3523 27.2024L54.3413 10.1798H51.4098H45.4346L55.0838 40.8827H63.3552H65.1769L70.4709 25.988V40.6352H81.0105V0.556152H71.3358Z" fill="#E0627C"/>
<path d="M47.4143 1.00269H37.6401V41.0307H48.2537V26.4345L53.4993 41.2655H63.4929L63.3551 40.8828H55.0837L45.4345 10.1799H51.4097L47.4143 1.00269Z" fill="#FFCC00"/>
<path d="M51.4098 10.1798H45.4346L55.0838 40.8827H63.3552L51.4098 10.1798Z" fill="#DF572D"/>
<path d="M99.564 19.556V26.6335H111.142V27.8198V40.153V41.2654H120V19.556H99.564Z" fill="#00B0A6"/>
<path d="M104.549 1.1864C93.4813 1.1864 84.5107 10.1595 84.5107 21.2247C84.5107 32.2899 93.4838 41.2629 104.549 41.2629C106.858 41.2629 109.078 40.87 111.142 40.1506V27.8173C109.453 29.5038 107.121 30.5498 104.549 30.5498C99.4055 30.5498 95.2238 26.3656 95.2238 21.2247C95.2238 16.0837 99.408 11.8995 104.549 11.8995C107.108 11.8995 109.43 12.9353 111.116 14.6116L118.658 6.99582C115.035 3.40607 110.052 1.1864 104.549 1.1864Z" fill="#5C4D91"/>
<path d="M111.142 27.8198V40.153C114.05 39.1401 116.653 37.4767 118.775 35.3361L111.142 27.8198Z" fill="#00335E"/>
</g>
<defs>
<clipPath id="clip0_3144_23210">
<rect width="120" height="63.5821" fill="white"/>
</clipPath>
</defs>
</svg>
