<svg width="160" height="78" viewBox="0 0 160 78" fill="none" xmlns="http://www.w3.org/2000/svg">
<g clip-path="url(#clip0_3144_2820)">
<mask id="mask0_3144_2820" style="mask-type:luminance" maskUnits="userSpaceOnUse" x="-207" y="-32" width="578" height="139">
<path d="M-206.252 106.629H370.288V-31.442H-206.252V106.629Z" fill="white"/>
</mask>
<g mask="url(#mask0_3144_2820)">
<mask id="mask1_3144_2820" style="mask-type:luminance" maskUnits="userSpaceOnUse" x="-205" y="-26" width="569" height="837">
<path d="M-204.424 -25.5443H363.967V810.323H-204.424V-25.5443Z" fill="white"/>
</mask>
<g mask="url(#mask1_3144_2820)">
<mask id="mask2_3144_2820" style="mask-type:luminance" maskUnits="userSpaceOnUse" x="-205" y="-26" width="570" height="133">
<path d="M-204.424 106.63H364.096V-25.6493H-204.424V106.63Z" fill="white"/>
</mask>
<g mask="url(#mask2_3144_2820)">
<mask id="mask3_3144_2820" style="mask-type:luminance" maskUnits="userSpaceOnUse" x="-205" y="-26" width="569" height="837">
<path d="M-204.423 810.323H363.967V-25.5441H-204.423V810.323Z" fill="white"/>
</mask>
<g mask="url(#mask3_3144_2820)">
<mask id="mask4_3144_2820" style="mask-type:luminance" maskUnits="userSpaceOnUse" x="-205" y="-26" width="570" height="133">
<path d="M-204.419 106.635H364.105V-25.6432H-204.419V106.635Z" fill="white"/>
</mask>
<g mask="url(#mask4_3144_2820)">
<mask id="mask5_3144_2820" style="mask-type:luminance" maskUnits="userSpaceOnUse" x="0" y="9" width="161" height="61">
<path d="M0.000488281 9.00017V69.3604H160V9.00017" fill="white"/>
</mask>
<g mask="url(#mask5_3144_2820)">
<path d="M5.37681 64.6609C5.37681 63.7515 5.33437 62.8311 5.2915 61.9202C5.47252 61.9516 5.64167 61.9736 5.81099 61.9736C5.98037 61.9736 6.14951 61.9516 6.32942 61.9202C6.28696 62.8311 6.24449 63.7515 6.24449 64.6609V66.4821C6.24449 67.3919 6.28696 68.3129 6.32942 69.2233C6.14951 69.1906 5.98037 69.1699 5.81099 69.1699C5.64167 69.1699 5.47252 69.1906 5.2915 69.2233C5.33437 68.3129 5.37681 67.3919 5.37681 66.4821V65.5294C4.63649 65.5188 3.90539 65.5078 3.16504 65.5078C2.42405 65.5078 1.69385 65.5188 0.952614 65.5294V66.4821C0.952614 67.3919 0.995046 68.3129 1.03774 69.2233C0.857603 69.1906 0.688014 69.1699 0.519314 69.1699C0.349524 69.1699 0.180629 69.1906 0.000488281 69.2233C0.0427148 68.3129 0.0853844 67.3919 0.0853844 66.4821V64.6609C0.0853844 63.7515 0.0427148 62.8311 0.000488281 61.9202C0.180629 61.9516 0.349524 61.9736 0.519314 61.9736C0.688014 61.9736 0.857603 61.9516 1.03774 61.9202C0.995046 62.8311 0.952614 63.7515 0.952614 64.6609V65.0322C1.69385 65.0427 2.42405 65.0639 3.16504 65.0639C3.90539 65.0639 4.63649 65.0427 5.37681 65.0322V64.6609Z" fill="#1B458F"/>
<path d="M11.6841 63.212L10.5307 65.8997C10.9009 65.8997 11.3034 65.9213 11.674 65.9213C12.0655 65.9213 12.4678 65.9103 12.8595 65.8997L11.6841 63.212ZM12.0332 61.7832C13.0709 64.2387 14.6578 68.0903 15.2187 69.2233C15.0288 69.1906 14.8487 69.1699 14.6578 69.1699C14.4675 69.1699 14.2881 69.1906 14.0971 69.2233C13.8963 68.4918 13.3878 67.3286 13.0071 66.386C12.552 66.3758 12.086 66.3652 11.6205 66.3652C11.1866 66.3652 10.7635 66.3758 10.3299 66.386C9.88544 67.4771 9.48378 68.5558 9.30278 69.2233C9.16528 69.1906 9.03885 69.1699 8.91149 69.1699C8.78484 69.1699 8.65765 69.1906 8.51953 69.2233C9.65201 66.7471 10.7529 64.2815 11.8321 61.7832H12.0332Z" fill="#1B458F"/>
<path d="M22.7088 61.9203C22.8461 61.9516 22.9945 61.9736 23.1425 61.9736C23.2492 61.9736 23.3649 61.9516 23.4603 61.9203C23.3757 62.9052 23.2908 64.7668 23.2697 66.3115C23.2492 68.1864 22.1589 69.3604 20.2535 69.3604C18.1586 69.3604 17.2271 68.387 17.2271 66.3331C17.2271 65.6771 17.2799 65.1905 17.2799 64.6609C17.2799 63.4967 17.2374 62.5348 17.2163 61.9203C17.385 61.9516 17.5975 61.9736 17.7669 61.9736C17.9144 61.9736 18.084 61.9516 18.2215 61.9203C18.1586 62.5454 18.0948 63.9843 18.0948 65.5506C18.0948 66.99 18.0948 68.8626 20.4546 68.8626C22.7723 68.8626 22.7723 66.6937 22.7723 65.3606C22.7723 63.35 22.7724 62.3334 22.7088 61.9203Z" fill="#1B458F"/>
<path d="M28.0217 64.6609C28.0217 63.9314 28.0108 63.2009 27.9902 62.4713C27.2597 62.4713 26.3175 62.5136 25.7256 62.5877C25.7566 62.4815 25.7779 62.3655 25.7779 62.2482C25.7779 62.1424 25.7566 62.0371 25.7256 61.9202C26.6353 61.9516 27.5454 61.9736 28.4556 61.9736C29.3657 61.9736 30.2752 61.9516 31.1862 61.9202C31.1541 62.0371 31.133 62.1424 31.133 62.2593C31.133 62.3655 31.1541 62.4815 31.1862 62.5877C30.5932 62.5136 29.6516 62.4713 28.921 62.4713C28.9003 63.2009 28.8891 63.9314 28.8891 64.6609V66.4821C28.8891 67.3919 28.9318 68.3129 28.9742 69.2233C28.7941 69.1906 28.6247 69.1699 28.4556 69.1699C28.2862 69.1699 28.1173 69.1906 27.9369 69.2233C27.9792 68.3129 28.0217 67.3919 28.0217 66.4821V64.6609Z" fill="#1B458F"/>
<path d="M33.5713 64.6509C33.5713 63.7419 33.5293 62.8205 33.4873 61.9202C34.1221 61.9516 34.7465 61.9736 35.3817 61.9736C36.0167 61.9736 36.6407 61.9516 37.2653 61.9202C37.2449 62.0261 37.2335 62.1323 37.2335 62.2377C37.2335 62.3439 37.2449 62.4492 37.2653 62.5555C36.3768 62.4925 35.8577 62.4175 34.4819 62.4175C34.4711 62.8734 34.4399 63.2432 34.4399 63.7616C34.4399 64.3123 34.4503 64.8946 34.4503 65.1587C35.6989 65.1587 36.397 65.1058 37.0221 65.0534C37.001 65.1587 36.9904 65.2755 36.9904 65.3813C36.9904 65.4867 37.001 65.5929 37.0221 65.6987C36.2921 65.6246 34.9585 65.6031 34.4503 65.6031C34.4399 65.8574 34.4399 66.1219 34.4399 67.1381C34.4399 67.9421 34.4503 68.4606 34.461 68.7247C35.4024 68.7247 36.6519 68.7149 37.3186 68.5875C37.297 68.6837 37.2867 68.8208 37.2867 68.9164C37.2867 69.0112 37.297 69.1272 37.3186 69.2233C36.6935 69.1906 36.0587 69.1699 35.4139 69.1699C34.7683 69.1699 34.1322 69.1906 33.4873 69.2233C33.5293 68.3023 33.5713 67.3814 33.5713 66.4715V64.6509Z" fill="#1B458F"/>
<path d="M46.1899 63.212L45.0366 65.8997C45.4067 65.8997 45.8086 65.9213 46.1798 65.9213C46.5703 65.9213 46.9733 65.9103 47.3638 65.8997L46.1899 63.212ZM46.5395 61.7832C47.5768 64.2387 49.1638 68.0903 49.7246 69.2233C49.5341 69.1906 49.3543 69.1699 49.1638 69.1699C48.9734 69.1699 48.7935 69.1906 48.6031 69.2233C48.4016 68.4918 47.8938 67.3286 47.5129 66.386C47.0584 66.3758 46.5919 66.3652 46.1264 66.3652C45.6929 66.3652 45.269 66.3758 44.836 66.386C44.391 67.4771 43.989 68.5558 43.8088 69.2233C43.6711 69.1906 43.544 69.1699 43.4171 69.1699C43.29 69.1699 43.1631 69.1906 43.0254 69.2233C44.1579 66.7471 45.2585 64.2815 46.3375 61.7832H46.5395Z" fill="#1B458F"/>
<path d="M57.2151 61.9203C57.3527 61.9516 57.4999 61.9736 57.6485 61.9736C57.7552 61.9736 57.8711 61.9516 57.9668 61.9203C57.8817 62.9052 57.7962 64.7668 57.7759 66.3115C57.7538 68.1864 56.665 69.3604 54.7591 69.3604C52.6634 69.3604 51.7328 68.387 51.7328 66.3331C51.7328 65.6771 51.7861 65.1905 51.7861 64.6609C51.7861 63.4967 51.7438 62.5348 51.7222 61.9203C51.891 61.9516 52.1026 61.9736 52.2719 61.9736C52.4205 61.9736 52.5897 61.9516 52.7273 61.9203C52.6633 62.5454 52.6003 63.9843 52.6003 65.5506C52.6003 66.99 52.6003 68.8626 54.9606 68.8626C57.2777 68.8626 57.2777 66.6937 57.2777 65.3606C57.2777 63.35 57.2777 62.3334 57.2151 61.9203Z" fill="#1B458F"/>
<path d="M62.5273 64.6609C62.5273 63.9314 62.5172 63.2009 62.4961 62.4713C61.7656 62.4713 60.8235 62.5136 60.2314 62.5877C60.2627 62.4815 60.2834 62.3655 60.2834 62.2482C60.2834 62.1424 60.2627 62.0371 60.2314 61.9202C61.1413 61.9516 62.0517 61.9736 62.9616 61.9736C63.8715 61.9736 64.7819 61.9516 65.6918 61.9202C65.66 62.0371 65.6384 62.1424 65.6384 62.2593C65.6384 62.3655 65.66 62.4815 65.6918 62.5877C65.0997 62.5136 64.1572 62.4713 63.4267 62.4713C63.4055 63.2009 63.3958 63.9314 63.3958 64.6609V66.4821C63.3958 67.3919 63.4377 68.3129 63.48 69.2233C63.2997 69.1906 63.1309 69.1699 62.9616 69.1699C62.7919 69.1699 62.6217 69.1906 62.4432 69.2233C62.4855 68.3129 62.5273 67.3919 62.5273 66.4821V64.6609Z" fill="#1B458F"/>
<path d="M71.2074 62.1747C69.5565 62.1747 68.2859 63.2221 68.2859 65.5718C68.2859 67.921 69.5565 68.9689 71.2074 68.9689C72.869 68.9689 74.1381 67.921 74.1381 65.5718C74.1381 63.2221 72.869 62.1747 71.2074 62.1747ZM71.2074 61.7832C73.5456 61.7832 75.1764 63.1687 75.1764 65.5718C75.1764 67.9735 73.5456 69.3604 71.2074 69.3604C68.8784 69.3604 67.2495 67.9735 67.2495 65.5718C67.2495 63.1687 68.8784 61.7832 71.2074 61.7832Z" fill="#1B458F"/>
<path d="M78.6279 65.2649C78.8174 65.3063 79.0612 65.3174 79.3367 65.3174C80.2043 65.3174 81.3567 64.9581 81.3567 63.6986C81.3567 62.5878 80.438 62.3127 79.7176 62.3127C79.23 62.3127 78.914 62.3439 78.6909 62.3655C78.6591 63.1379 78.6279 63.9006 78.6279 64.6609V65.2649ZM77.7575 64.6609C77.7575 63.7515 77.7157 62.8311 77.6733 61.9202C78.0754 61.9516 78.4784 61.9736 78.8809 61.9736C79.2834 61.9736 79.6868 61.9202 80.0879 61.9202C81.2844 61.9202 82.2895 62.3333 82.2895 63.5933C82.2895 64.9581 80.9242 65.5078 80.1202 65.615C80.6377 66.259 82.4059 68.5351 83.0196 69.2233C82.8071 69.1906 82.5968 69.1699 82.3838 69.1699C82.1837 69.1699 81.9703 69.1906 81.7702 69.2233C81.3474 68.5769 79.9398 66.6302 79.0294 65.7088H78.6279V66.4821C78.6279 67.3919 78.6697 68.3129 78.7111 69.2233C78.5303 69.1906 78.3615 69.1699 78.1922 69.1699C78.0225 69.1699 77.8532 69.1906 77.6733 69.2233C77.7157 68.3129 77.7575 67.3919 77.7575 66.4821V64.6609Z" fill="#1B458F"/>
<path d="M85.3239 64.6609C85.3239 63.7515 85.2807 62.8311 85.2397 61.9202C85.4182 61.9516 85.588 61.9736 85.7568 61.9736C85.9261 61.9736 86.0949 61.9516 86.2771 61.9202C86.2329 62.8311 86.192 63.7515 86.192 64.6609V66.4821C86.192 67.3919 86.2329 68.3129 86.2771 69.2233C86.0949 69.1906 85.9261 69.1699 85.7568 69.1699C85.588 69.1699 85.4182 69.1906 85.2397 69.2233C85.2807 68.3129 85.3239 67.3919 85.3239 66.4821V64.6609Z" fill="#1B458F"/>
<path d="M90.7176 64.6609C90.7176 63.9314 90.7056 63.2009 90.6858 62.4713C89.9558 62.4713 89.0133 62.5136 88.4189 62.5877C88.4525 62.4815 88.4741 62.3655 88.4741 62.2482C88.4741 62.1424 88.4525 62.0371 88.4189 61.9202C89.3298 61.9516 90.2392 61.9736 91.15 61.9736C92.0613 61.9736 92.9703 61.9516 93.8811 61.9202C93.8507 62.0371 93.8286 62.1424 93.8286 62.2593C93.8286 62.3655 93.8507 62.4815 93.8811 62.5877C93.2872 62.5136 92.3465 62.4713 91.6165 62.4713C91.5953 63.2009 91.5829 63.9314 91.5829 64.6609V66.4821C91.5829 67.3919 91.6266 68.3129 91.6698 69.2233C91.489 69.1906 91.3193 69.1699 91.15 69.1699C90.9812 69.1699 90.8119 69.1906 90.6329 69.2233C90.6743 68.3129 90.7176 67.3919 90.7176 66.4821V64.6609Z" fill="#1B458F"/>
<path d="M98.7247 59.8571C98.8724 59.7086 99.0411 59.6032 99.2008 59.6032C99.3383 59.6032 99.549 59.7187 99.549 59.9409C99.549 60.1962 99.3383 60.3332 99.1672 60.4395L97.6124 61.434H97.168L98.7247 59.8571ZM96.1086 64.6509C96.1086 63.7419 96.0677 62.8205 96.0244 61.9202C96.6601 61.9516 97.2834 61.9736 97.9187 61.9736C98.5549 61.9736 99.1792 61.9516 99.8052 61.9202C99.7827 62.0261 99.7708 62.1323 99.7708 62.2377C99.7708 62.3439 99.7827 62.4492 99.8052 62.5555C98.9156 62.4925 98.3962 62.4175 97.0199 62.4175C97.0084 62.8734 96.9766 63.2432 96.9766 63.7616C96.9766 64.3123 96.9891 64.8946 96.9891 65.1587C98.2362 65.1587 98.9367 65.1058 99.5591 65.0534C99.5389 65.1587 99.5292 65.2755 99.5292 65.3813C99.5292 65.4867 99.5389 65.5929 99.5591 65.6987C98.8286 65.6246 97.496 65.6031 96.9891 65.6031C96.9766 65.8574 96.9766 66.1219 96.9766 67.1381C96.9766 67.9421 96.9891 68.4606 96.9987 68.7247C97.9417 68.7247 99.1884 68.7149 99.8554 68.5875C99.8342 68.6837 99.8246 68.8208 99.8246 68.9164C99.8246 69.0112 99.8342 69.1272 99.8554 69.2233C99.2321 69.1906 98.5959 69.1699 97.9514 69.1699C97.3055 69.1699 96.6703 69.1906 96.0244 69.2233C96.0677 68.3023 96.1086 67.3814 96.1086 66.4715V64.6509Z" fill="#1B458F"/>
<path d="M107.249 66.4821C107.249 67.2337 107.27 67.9955 107.313 68.7247C107.608 68.7886 108.16 68.8313 108.698 68.8313C110.255 68.8313 111.949 68.2181 111.949 65.4237C111.949 62.9677 110.678 62.3655 108.942 62.3655C108.319 62.3655 107.746 62.4175 107.313 62.4713C107.27 63.1475 107.249 63.9006 107.249 64.6609V66.4821ZM106.381 64.6609C106.381 63.7515 106.339 62.8311 106.296 61.9202C106.825 61.9516 107.367 61.9736 107.894 61.9736C108.423 61.9736 108.964 61.9202 109.494 61.9202C111.968 61.9202 112.986 63.2432 112.986 65.4237C112.986 68.2489 110.806 69.2233 109.133 69.2233C108.658 69.2233 108.191 69.1699 107.715 69.1699C107.238 69.1699 106.772 69.1906 106.296 69.2233C106.339 68.3129 106.381 67.3919 106.381 66.4821V64.6609Z" fill="#1B458F"/>
<path d="M115.517 64.6509C115.517 63.7419 115.475 62.8205 115.431 61.9202C116.067 61.9516 116.691 61.9736 117.325 61.9736C117.961 61.9736 118.584 61.9516 119.21 61.9202C119.189 62.0261 119.179 62.1323 119.179 62.2377C119.179 62.3439 119.189 62.4492 119.21 62.5555C118.321 62.4925 117.803 62.4175 116.426 62.4175C116.416 62.8734 116.385 63.2432 116.385 63.7616C116.385 64.3123 116.394 64.8946 116.394 65.1587C117.644 65.1587 118.342 65.1058 118.966 65.0534C118.945 65.1587 118.935 65.2755 118.935 65.3813C118.935 65.4867 118.945 65.5929 118.966 65.6987C118.236 65.6246 116.901 65.6031 116.394 65.6031C116.385 65.8574 116.385 66.1219 116.385 67.1381C116.385 67.9421 116.394 68.4606 116.405 68.7247C117.347 68.7247 118.596 68.7149 119.263 68.5875C119.241 68.6837 119.231 68.8208 119.231 68.9164C119.231 69.0112 119.241 69.1272 119.263 69.2233C118.637 69.1906 118.001 69.1699 117.358 69.1699C116.711 69.1699 116.077 69.1906 115.431 69.2233C115.475 68.3023 115.517 67.3814 115.517 66.4715V64.6509Z" fill="#1B458F"/>
<path d="M125.556 67.8156C125.788 68.313 126.318 68.9165 127.227 68.9165C128.169 68.9165 128.742 68.2274 128.742 67.3814C128.742 65.4343 125.406 66.2696 125.406 63.7833C125.406 62.6084 126.296 61.7832 127.702 61.7832C128.37 61.7832 128.846 61.9414 129.269 62.28C129.142 62.5238 129.068 62.7672 128.984 63.1687H128.858C128.708 62.7782 128.392 62.1747 127.599 62.1747C126.803 62.1747 126.233 62.7147 126.233 63.4866C126.233 65.4655 129.566 64.6403 129.566 66.9798C129.566 68.2701 128.604 69.3604 126.973 69.3604C126.095 69.3604 125.597 69.0526 125.228 68.7582C125.355 68.4293 125.386 68.2182 125.428 67.8156H125.556Z" fill="#1B458F"/>
<path d="M134.405 63.212L133.251 65.8997C133.624 65.8997 134.025 65.9213 134.394 65.9213C134.786 65.9213 135.19 65.9103 135.581 65.8997L134.405 63.212ZM134.755 61.7832C135.791 64.2387 137.379 68.0903 137.941 69.2233C137.75 69.1906 137.569 69.1699 137.379 69.1699C137.189 69.1699 137.008 69.1906 136.819 69.2233C136.618 68.4918 136.109 67.3286 135.729 66.386C135.272 66.3758 134.808 66.3652 134.342 66.3652C133.909 66.3652 133.484 66.3758 133.05 66.386C132.607 67.4771 132.205 68.5558 132.023 69.2233C131.885 69.1906 131.76 69.1699 131.632 69.1699C131.506 69.1699 131.378 69.1906 131.24 69.2233C132.373 66.7471 133.474 64.2815 134.555 61.7832H134.755Z" fill="#1B458F"/>
<path d="M146.055 69.3604C144.449 67.4661 142.521 65.4343 140.712 63.5082C140.7 63.9006 140.68 64.5354 140.68 65.6569C140.68 66.5658 140.723 68.8 140.776 69.2233C140.658 69.1906 140.532 69.1699 140.405 69.1699C140.278 69.1699 140.15 69.1906 140.012 69.2233C140.097 68.7247 140.235 66.017 140.235 64.6191C140.235 63.2856 140.235 62.2593 140.203 61.7832H140.372C142.098 63.6563 144.436 66.207 145.727 67.5084C145.727 65.615 145.727 63.5501 145.644 61.9203C145.76 61.9516 145.886 61.9736 146.003 61.9736C146.119 61.9736 146.225 61.9516 146.343 61.9203C146.278 62.5454 146.174 64.6403 146.174 65.4655C146.174 66.5452 146.196 68.8838 146.205 69.3604H146.055Z" fill="#1B458F"/>
<path d="M150.821 64.6609C150.821 63.9314 150.812 63.2009 150.79 62.4713C150.06 62.4713 149.117 62.5136 148.525 62.5877C148.557 62.4815 148.578 62.3655 148.578 62.2482C148.578 62.1424 148.557 62.0371 148.525 61.9202C149.436 61.9516 150.345 61.9736 151.256 61.9736C152.165 61.9736 153.077 61.9516 153.985 61.9202C153.954 62.0371 153.935 62.1424 153.935 62.2593C153.935 62.3655 153.954 62.4815 153.985 62.5877C153.393 62.5136 152.45 62.4713 151.721 62.4713C151.7 63.2009 151.689 63.9314 151.689 64.6609V66.4821C151.689 67.3919 151.733 68.3129 151.773 69.2233C151.594 69.1906 151.425 69.1699 151.256 69.1699C151.085 69.1699 150.918 69.1906 150.736 69.2233C150.78 68.3129 150.821 67.3919 150.821 66.4821V64.6609Z" fill="#1B458F"/>
<path d="M158.867 59.8571C159.017 59.7086 159.186 59.6032 159.343 59.6032C159.481 59.6032 159.693 59.7187 159.693 59.9409C159.693 60.1962 159.481 60.3332 159.312 60.4395L157.757 61.434H157.313L158.867 59.8571ZM156.254 64.6509C156.254 63.7419 156.21 62.8205 156.169 61.9202C156.804 61.9516 157.428 61.9736 158.064 61.9736C158.698 61.9736 159.324 61.9516 159.947 61.9202C159.926 62.0261 159.916 62.1323 159.916 62.2377C159.916 62.3439 159.926 62.4492 159.947 62.5555C159.058 62.4925 158.539 62.4175 157.163 62.4175C157.153 62.8734 157.122 63.2432 157.122 63.7616C157.122 64.3123 157.131 64.8946 157.131 65.1587C158.382 65.1587 159.079 65.1058 159.704 65.0534C159.682 65.1587 159.671 65.2755 159.671 65.3813C159.671 65.4867 159.682 65.5929 159.704 65.6987C158.973 65.6246 157.641 65.6031 157.131 65.6031C157.122 65.8574 157.122 66.1219 157.122 67.1381C157.122 67.9421 157.131 68.4606 157.143 68.7247C158.084 68.7247 159.333 68.7149 160 68.5875C159.979 68.6837 159.969 68.8208 159.969 68.9164C159.969 69.0112 159.979 69.1272 160 69.2233C159.377 69.1906 158.741 69.1699 158.096 69.1699C157.449 69.1699 156.815 69.1906 156.169 69.2233C156.21 68.3023 156.254 67.3814 156.254 66.4715V64.6509Z" fill="#1B458F"/>
<path d="M56.4514 18.6266C56.3898 16.9371 56.3249 15.2148 56.2545 13.457H60.1706C60.0818 15.2116 59.999 16.9387 59.9254 18.6266C59.8514 20.3157 59.8514 34.1348 59.9254 35.837C59.999 37.539 60.0818 39.2178 60.1706 40.8649H56.2545C56.3249 39.2153 56.3898 37.541 56.4514 35.837C56.5089 34.1346 56.4597 27.054 56.4597 27.054C55.019 27.0306 41.3276 27.0306 39.8881 27.054C39.8881 27.054 39.8454 34.1346 39.9202 35.837C39.9945 37.541 40.0761 39.2153 40.1652 40.8649H36.25C36.3208 39.2178 36.3854 37.539 36.4445 35.837C36.5045 34.1348 36.5045 20.3157 36.4445 18.6266C36.3854 16.9387 36.3208 15.2116 36.25 13.457H40.1652C40.0761 15.2148 39.9945 16.9371 39.9202 18.6266C39.8454 20.3188 39.8881 25.2032 39.8881 25.2032C41.3276 25.236 55.019 25.236 56.4597 25.2032C56.4597 25.2032 56.5089 20.3188 56.4514 18.6266Z" fill="#1B458F"/>
<path d="M118.974 36.9128C120.759 36.6594 122.295 36.2578 123.076 35.8693C123.604 34.8286 123.855 33.7112 123.855 32.5352C123.855 23.705 107.589 26.8215 107.589 19.35C107.589 16.4328 110.377 14.5531 114.249 14.5531C117.814 14.5531 120.244 16.6574 120.967 18.1362L122.409 14.7949C120.343 13.5169 118.02 12.9176 114.766 12.9176C107.897 12.9176 103.561 16.0339 103.561 20.4688C103.561 29.858 119.828 26.7013 119.828 34.0533C119.828 35.1 119.539 36.0647 118.974 36.9128Z" fill="#1B458F"/>
<path d="M93.6237 48.6067H100.005C99.3969 47.6184 97.313 43.2856 96.8622 42.2655L90.5283 40.8442C90.9552 41.719 92.8325 46.2133 93.6237 48.6067Z" fill="#1B458F"/>
<path d="M92.8464 33.4509C92.2526 32.1596 82.0399 9.00018 82.0399 9.00018H80.5821C80.5821 9.00018 65.1401 42.0063 61.8892 48.6067H66.3448C68.5014 41.4816 74.2492 29.539 79.8967 16.7097C79.8967 16.7097 84.3993 26.9293 87.0738 32.999C89.0412 32.999 90.9553 33.173 92.8464 33.4509Z" fill="#1B458F"/>
<path d="M71.3657 39.9088C73.9381 36.8012 77.7249 32.999 87.0737 32.999C96.6952 32.999 105.063 37.1742 115.402 37.1742C118.501 37.1742 121.797 36.5042 123.076 35.8692C120.983 39.7305 116.266 41.5126 110.492 41.5126C101.485 41.5126 90.8862 37.4655 82.3411 37.4655C78.2056 37.4655 74.44 38.1998 71.3657 39.9088Z" fill="#E51B24"/>
</g>
</g>
</g>
</g>
</g>
</g>
</g>
<defs>
<clipPath id="clip0_3144_2820">
<rect width="160" height="60.3602" fill="white" transform="translate(0 9)"/>
</clipPath>
</defs>
</svg>
