<svg width="1440" height="48" viewBox="0 0 1440 48" fill="none" xmlns="http://www.w3.org/2000/svg">
<rect width="1440" height="48" fill="white"/>
<g clip-path="url(#clip0_2544_19368)">
<path d="M1309.68 28.8133C1307.09 28.8133 1304.98 26.751 1304.98 24.2181C1304.98 24.0728 1304.99 23.931 1305 23.7925H1300.64C1300.64 23.6818 1300.63 23.5745 1300.63 23.4638C1300.63 21.4465 1301.25 19.5676 1302.32 18.0036L1302.06 17.7476C1300.52 19.4811 1299.59 21.7441 1299.59 24.2181C1299.59 29.6714 1304.11 34.0936 1309.68 34.0936C1312.47 34.0936 1314.99 32.9863 1316.82 31.1974L1312.99 27.4777C1312.14 28.3047 1310.97 28.8168 1309.68 28.8168L1309.68 28.8133Z" fill="#0078FF"/>
<path d="M1305.88 21.5123C1305.4 22.1628 1305.08 22.9448 1305 23.7891H1306.04C1306.03 23.6818 1306.03 23.5711 1306.03 23.4604C1306.03 20.9275 1308.13 18.8652 1310.72 18.8652C1312.04 18.8652 1313.23 19.4015 1314.08 20.2597L1314.13 20.2251L1317.88 16.5088C1316.05 14.706 1313.52 13.5884 1310.72 13.5884C1307.21 13.5884 1304.12 15.3427 1302.31 18.0036L1305.87 21.5053L1305.88 21.5123H1305.88Z" fill="#E51C80"/>
<path d="M1300.64 23.7889H1305C1305.08 22.9411 1305.4 22.1626 1305.88 21.5121L1305.87 21.5051L1302.32 18.0034C1301.25 19.5674 1300.63 21.4463 1300.63 23.4636C1300.63 23.5744 1300.63 23.6851 1300.64 23.7923V23.7889Z" fill="#000D80"/>
<path d="M1322.46 18.6021H1325.47L1323.46 14.0796H1318.54V33.8062H1323.88V26.6125L1326.52 33.9204H1331.55L1331.48 33.7336H1327.32L1322.46 18.6021Z" fill="#FFCC00"/>
<path d="M1335.5 13.8618L1331.05 23.7961L1329.97 26.9898L1326.95 18.6023H1325.47L1327.89 24.0452L1331.48 33.7338H1332.4L1335.07 26.3947V33.6092H1340.37V13.8618H1335.5Z" fill="#E0627C"/>
<path d="M1325.47 18.6021H1322.46L1327.32 33.7335H1331.48L1327.89 24.045L1325.47 18.6021Z" fill="#DF572D"/>
<path d="M1355.54 27.294C1354.69 28.1279 1353.51 28.6434 1352.22 28.6434C1349.63 28.6434 1347.53 26.5812 1347.53 24.0483C1347.53 21.5154 1349.63 19.4531 1352.22 19.4531C1353.51 19.4531 1354.68 19.9652 1355.53 20.7888L1359.32 17.0344C1357.5 15.2663 1354.99 14.1729 1352.22 14.1729C1346.65 14.1729 1342.13 18.595 1342.13 24.0483C1342.13 29.5016 1346.65 33.9237 1352.22 33.9237C1353.38 33.9237 1354.5 33.7299 1355.54 33.377V27.2974V27.294Z" fill="#5C4D91"/>
<path d="M1349.71 23.2251V26.713H1355.54V27.2978L1359.38 31.0036C1358.31 32.059 1357 32.8791 1355.54 33.3773V33.9241H1360V23.2251H1349.71Z" fill="#00B0A6"/>
<path d="M1355.54 27.2939V33.3735C1357 32.8753 1358.31 32.0552 1359.38 30.9998L1355.54 27.2939Z" fill="#00335E"/>
<path d="M1294.57 12H1293.17V36H1294.57V12Z" fill="#4D4D4D"/>
<path d="M1235.54 17.2251V25.4812H1233.22V24.4985C1232.58 25.2182 1231.64 25.6023 1230.61 25.6023C1228.49 25.6023 1227 24.4362 1227 21.8895V17.2251H1229.45V21.5366C1229.45 22.9172 1230.07 23.5296 1231.15 23.5296C1232.24 23.5296 1233.1 22.8238 1233.1 21.3047V17.2217H1235.54V17.2251Z" fill="#4D4D4D"/>
<path d="M1246.45 20.7546V25.4812H1244V21.1213C1244 19.7857 1243.38 19.1733 1242.3 19.1733C1241.12 19.1733 1240.27 19.8791 1240.27 21.3982V25.4812H1237.83V17.2252H1240.16V18.1906C1240.82 17.4847 1241.81 17.1006 1242.96 17.1006C1244.95 17.1006 1246.45 18.2355 1246.45 20.7546H1246.45Z" fill="#4D4D4D"/>
<path d="M1252.48 21.3532C1252.48 18.8688 1254.43 17.1006 1257.12 17.1006C1259.8 17.1006 1261.74 18.8653 1261.74 21.3532C1261.74 23.8411 1259.8 25.6058 1257.12 25.6058C1254.43 25.6058 1252.48 23.8411 1252.48 21.3532ZM1259.27 21.3532C1259.27 19.9276 1258.34 19.066 1257.12 19.066C1255.89 19.066 1254.95 19.9241 1254.95 21.3532C1254.95 22.7822 1255.89 23.6404 1257.12 23.6404C1258.34 23.6404 1259.27 22.7822 1259.27 21.3532Z" fill="#4D4D4D"/>
<path d="M1271.88 17.2251V25.4812H1269.56V24.4985C1268.92 25.2182 1267.98 25.6023 1266.94 25.6023C1264.82 25.6023 1263.33 24.4362 1263.33 21.8895V17.2251H1265.78V21.5366C1265.78 22.9172 1266.41 23.5296 1267.49 23.5296C1268.57 23.5296 1269.43 22.8238 1269.43 21.3047V17.2217H1271.88V17.2251Z" fill="#4D4D4D"/>
<path d="M1279.6 25.083C1279.1 25.436 1278.36 25.6055 1277.61 25.6055C1275.62 25.6055 1274.45 24.609 1274.45 22.6436V19.2526H1273.15V17.4117H1274.45V15.4014H1276.9V17.4117H1279V19.2526H1276.9V22.6124C1276.9 23.3183 1277.29 23.7024 1277.95 23.7024C1278.31 23.7024 1278.67 23.5951 1278.94 23.3979L1279.59 25.0865L1279.6 25.083Z" fill="#4D4D4D"/>
<path d="M1280.68 14.737C1280.68 13.9861 1281.29 13.4014 1282.2 13.4014C1283.11 13.4014 1283.72 13.955 1283.72 14.6886C1283.72 15.4879 1283.11 16.0692 1282.2 16.0692C1281.29 16.0692 1280.68 15.4844 1280.68 14.7335V14.737ZM1280.98 17.2249H1283.43V25.481H1280.98V17.2249Z" fill="#4D4D4D"/>
<path d="M1285.7 14.0933H1288.15V25.4808H1285.7V14.0933Z" fill="#4D4D4D"/>
<path d="M1282.31 28.2871V34.3459H1281.74V33.4982C1281.39 34.0795 1280.77 34.3875 1280.05 34.3875C1278.8 34.3875 1277.87 33.4982 1277.87 32.2006C1277.87 30.903 1278.8 30.0207 1280.05 30.0207C1280.75 30.0207 1281.35 30.3148 1281.72 30.8684V28.2871H1282.31ZM1281.73 32.2006C1281.73 31.1971 1281.03 30.5259 1280.1 30.5259C1279.18 30.5259 1278.47 31.1971 1278.47 32.2006C1278.47 33.2041 1279.17 33.8753 1280.1 33.8753C1281.04 33.8753 1281.73 33.2041 1281.73 32.2006Z" fill="#4D4D4D"/>
<path d="M1287.92 30.0518V34.3459H1287.35V33.5605C1287.05 34.0829 1286.48 34.384 1285.78 34.384C1284.66 34.384 1283.92 33.7715 1283.92 32.5397V30.0483H1284.52V32.4809C1284.52 33.3944 1285 33.8615 1285.84 33.8615C1286.76 33.8615 1287.33 33.2802 1287.33 32.3009V30.0483H1287.92L1287.92 30.0518Z" fill="#4D4D4D"/>
</g>
<defs>
<clipPath id="clip0_2544_19368">
<rect width="133" height="24" fill="white" transform="translate(1227 12)"/>
</clipPath>
</defs>
</svg>
