<svg width="108" height="108" viewBox="0 0 108 108" fill="none" xmlns="http://www.w3.org/2000/svg">
<g clip-path="url(#clip0_3144_30979)">
<g clip-path="url(#clip1_3144_30979)">
<path d="M59.9898 2.86001C59.8998 1.93001 59.2098 1.34001 58.2798 1.26001C57.0198 1.16001 56.0598 2.05001 55.9198 3.78001C55.7798 5.54001 56.5898 6.55001 57.8398 6.65001C58.7598 6.73001 59.5398 6.28001 59.7898 5.39001L61.1898 5.51002C60.8598 6.96002 59.5498 8.04002 57.7198 7.90001C55.6898 7.73001 54.3198 6.15001 54.5198 3.66001C54.7198 1.17001 56.3498 -0.169985 58.3598 1.4876e-05C60.0598 0.140015 61.2998 1.24001 61.3998 2.96001L59.9998 2.85001L59.9898 2.86001Z" fill="#3A3A3A"/>
<path d="M65.7401 9.31995C63.7801 8.78995 62.6901 6.96995 63.3401 4.55995C63.9901 2.14995 65.8401 1.11995 67.8001 1.63995C69.7601 2.15995 70.8501 3.97995 70.2001 6.39995C69.5501 8.81995 67.7001 9.83995 65.7401 9.31995ZM67.4701 2.85995C66.2601 2.52995 65.1501 3.22995 64.7001 4.92995C64.2501 6.62995 64.8601 7.77995 66.0701 8.10995C67.2901 8.43995 68.3901 7.73995 68.8401 6.03995C69.2901 4.33995 68.6901 3.18995 67.4701 2.85995Z" fill="#3A3A3A"/>
<path d="M76.3701 13.43L75.2501 12.9L74.2201 6.58999L74.1601 6.55999L71.9001 11.31L70.6401 10.71L73.9501 3.73999L75.0801 4.27999L76.1001 10.59L76.1601 10.62L78.4201 5.86999L79.6801 6.46999L76.3701 13.44V13.43Z" fill="#3A3A3A"/>
<path d="M82.0701 7.87012L87.1101 11.4101L86.4401 12.3701L84.4901 11.0001L80.7301 16.3501L79.6001 15.5501L83.3601 10.2001L81.4101 8.83012L82.0801 7.87012H82.0701Z" fill="#3A3A3A"/>
<path d="M89.1401 13.1001L92.7801 16.5801L91.9701 17.4301L89.3501 14.9201L87.9001 16.4401L90.3401 18.7701L89.5301 19.6201L87.0901 17.2901L85.6301 18.8201L88.2801 21.3501L87.4701 22.2001L83.8101 18.7001L89.1501 13.1101L89.1401 13.1001Z" fill="#3A3A3A"/>
<path d="M92.4299 28.47L91.6799 27.48L93.6799 21.41L93.6399 21.36L89.4499 24.53L88.6099 23.41L94.7699 18.75L95.5199 19.75L93.5199 25.82L93.5599 25.87L97.7599 22.7L98.5999 23.81L92.4399 28.47H92.4299Z" fill="#3A3A3A"/>
<path d="M103.07 32.05L98.5802 34.34C97.1002 35.09 95.5202 34.49 94.6702 32.82C93.8102 31.14 94.2602 29.52 95.7402 28.76L100.23 26.47L100.86 27.72L96.4702 29.95C95.6102 30.39 95.2902 31.3 95.7802 32.25C96.2602 33.19 97.1802 33.48 98.0502 33.04L102.44 30.81L103.07 32.06V32.05Z" fill="#3A3A3A"/>
<path d="M104.02 37.86C103.76 37.03 103.19 36.66 102.64 36.83C102.02 37.02 101.97 37.75 102.02 38.4L102.06 39.15C102.14 40.34 101.89 41.58 100.62 41.98C99.3201 42.38 98.1201 41.63 97.5601 39.87C97.0201 38.15 97.5001 36.8 98.9501 36.29L99.3601 37.6C98.6001 37.9 98.4301 38.66 98.6901 39.5C98.9601 40.37 99.5701 40.84 100.2 40.64C100.77 40.46 100.86 39.85 100.81 38.99L100.76 38.08C100.69 36.77 101.06 35.83 102.12 35.49C103.42 35.08 104.66 35.97 105.14 37.52C105.63 39.09 105.08 40.43 103.85 40.84L103.45 39.55C104.06 39.29 104.26 38.64 104.01 37.85L104.02 37.86Z" fill="#3A3A3A"/>
<path d="M106.35 53.42C106.33 52.17 105.35 51.29 103.61 51.32C101.86 51.35 100.91 52.25 100.93 53.54C100.95 54.7 101.66 55.42 102.76 55.43L102.73 53.65L103.82 53.63L103.87 56.76H102.94C100.95 56.81 99.7002 55.46 99.6702 53.55C99.6302 51.42 101.13 49.95 103.57 49.91C106.06 49.87 107.57 51.36 107.6 53.38C107.63 55.09 106.59 56.42 105.08 56.68L105.06 55.26C105.87 55 106.36 54.36 106.35 53.43V53.42Z" fill="#9469CB"/>
<path d="M107.24 59.74L106.77 62.6C106.48 64.35 105.35 65.13 103.89 64.89C102.85 64.72 102.17 64.12 101.95 63.17L98.6602 64.32L98.9102 62.78L101.95 61.74L102.18 60.33L99.3902 59.87L99.6202 58.49L107.24 59.74ZM103.12 61.79C102.95 62.81 103.31 63.35 104.12 63.48C104.93 63.61 105.48 63.23 105.65 62.2L105.86 60.93L103.33 60.51L103.12 61.78V61.79Z" fill="#9469CB"/>
<path d="M98.5002 65.0701L104.93 70.1401L104.37 71.7801L96.1802 71.8601L96.6602 70.4501H98.6702L99.6102 67.7101L98.0102 66.4901L98.4902 65.0801L98.5002 65.0701ZM99.8602 70.4601L103.14 70.4801L103.16 70.4201L100.55 68.4201L99.8502 70.4601H99.8602Z" fill="#9469CB"/>
<path d="M103 75.44L100.18 80.93L99.1399 80.39L100.23 78.27L94.3999 75.27L95.0299 74.03L100.86 77.03L101.95 74.91L102.99 75.45L103 75.44Z" fill="#9469CB"/>
<path d="M94.9702 88.2699L90.9302 85.2499C89.6002 84.2599 89.4402 82.5699 90.5702 81.0699C91.7002 79.5599 93.3602 79.2399 94.6902 80.2299L98.7302 83.2499L97.8902 84.3699L93.9402 81.4199C93.1602 80.8399 92.2102 80.9599 91.5702 81.8099C90.9402 82.6599 91.0902 83.6099 91.8602 84.1999L95.8102 87.1499L94.9702 88.2699Z" fill="#9469CB"/>
<path d="M86.5 85.98L87.47 84.97L93.03 90.31L92.06 91.32L86.5 85.98Z" fill="#9469CB"/>
<path d="M90.4101 93.0699L85.6701 97.0099L84.9201 96.1099L86.7501 94.5799L82.5601 89.5399L83.6301 88.6499L87.8201 93.6899L89.6501 92.1599L90.4001 93.0599L90.4101 93.0699Z" fill="#9469CB"/>
<path d="M80.5199 99.01C81.2699 98.56 81.5099 97.93 81.2099 97.43C80.8899 96.87 80.1599 96.99 79.5399 97.18L78.8199 97.39C77.6799 97.74 76.4099 97.78 75.7299 96.63C75.0399 95.45 75.4899 94.11 77.0899 93.17C78.6399 92.25 80.0699 92.42 80.8999 93.71L79.7099 94.41C79.2499 93.74 78.4599 93.75 77.7099 94.19C76.9199 94.66 76.6099 95.36 76.9399 95.93C77.2499 96.44 77.8599 96.39 78.6799 96.15L79.5499 95.9C80.8099 95.53 81.8199 95.68 82.3799 96.64C83.0799 97.81 82.4999 99.22 81.0999 100.05C79.6799 100.89 78.2499 100.66 77.5599 99.55L78.7199 98.86C79.1199 99.39 79.7899 99.44 80.5099 99.02L80.5199 99.01Z" fill="#9469CB"/>
<path d="M66.47 104.76C67.32 104.55 67.7201 104.01 67.5801 103.44C67.4301 102.81 66.7001 102.72 66.0501 102.73H65.3001C64.1001 102.74 62.88 102.42 62.55 101.12C62.22 99.8 63.04 98.64 64.84 98.19C66.59 97.75 67.9101 98.31 68.3301 99.79L66.99 100.12C66.74 99.35 65.98 99.13 65.13 99.34C64.24 99.56 63.7401 100.14 63.9001 100.78C64.0501 101.36 64.6501 101.48 65.5101 101.48H66.42C67.73 101.5 68.65 101.92 68.92 103C69.26 104.32 68.2901 105.51 66.72 105.9C65.12 106.3 63.82 105.67 63.48 104.41L64.79 104.08C65.02 104.7 65.65 104.94 66.46 104.74L66.47 104.76Z" fill="#3A3A3A"/>
<path d="M54.9102 107.42L54.5202 102.4C54.3902 100.75 55.5502 99.5201 57.4202 99.3801C59.3002 99.2301 60.6302 100.27 60.7502 101.92L61.1402 106.94L59.7502 107.05L59.3702 102.14C59.2902 101.18 58.5702 100.54 57.5102 100.62C56.4602 100.7 55.8402 101.44 55.9102 102.41L56.2902 107.32L54.9002 107.43L54.9102 107.42Z" fill="#3A3A3A"/>
<path d="M51.8302 107.39L48.9502 107.14C47.1902 106.99 46.3202 105.92 46.4502 104.45C46.5402 103.41 47.0802 102.67 48.0202 102.39L46.6202 99.2L48.1702 99.33L49.4402 102.27L50.8602 102.39L51.1002 99.57L52.4902 99.69L51.8302 107.38V107.39ZM49.4702 103.44C48.4402 103.35 47.9302 103.75 47.8602 104.57C47.7902 105.39 48.2202 105.9 49.2502 105.99L50.5302 106.1L50.7502 103.55L49.4702 103.44Z" fill="#3A3A3A"/>
<path d="M34.3802 102.6C35.1902 102.92 35.8402 102.72 36.0502 102.18C36.2902 101.58 35.7502 101.08 35.2202 100.71L34.6102 100.28C33.6302 99.5999 32.8302 98.6199 33.3202 97.3699C33.8202 96.0999 35.1702 95.6399 36.8902 96.3199C38.5602 96.9799 39.3102 98.2099 38.8002 99.6599L37.5202 99.1499C37.7702 98.3699 37.2802 97.7599 36.4602 97.4399C35.6102 97.0999 34.8702 97.2799 34.6202 97.8999C34.4002 98.4599 34.8202 98.8999 35.5202 99.4099L36.2502 99.9399C37.3102 100.71 37.8102 101.6 37.4002 102.63C36.9002 103.9 35.4302 104.3 33.9202 103.71C32.3902 103.1 31.6902 101.83 32.1502 100.61L33.4002 101.11C33.2302 101.75 33.5902 102.31 34.3702 102.62L34.3802 102.6Z" fill="#3A3A3A"/>
<path d="M31.4798 93.8899L32.7098 94.5499L29.0498 101.36L27.8198 100.7L31.4798 93.8899Z" fill="#3A3A3A"/>
<path d="M23.89 98.3401L25.35 92.4801L25.28 92.4301L20.13 95.5801L18.75 94.5701L23.31 88.3501L24.39 89.1401L21.26 93.4101L21.32 93.4501L26.16 90.4601L26.97 91.0501L25.56 96.5701L25.62 96.6101L28.76 92.3301L29.84 93.1201L25.28 99.3401L23.9 98.3301L23.89 98.3401Z" fill="#3A3A3A"/>
<path d="M16.43 92.3299L14.45 90.2199C13.24 88.9299 13.38 87.4999 14.45 86.4899C15.53 85.4699 16.97 85.4399 18.19 86.7399L19.2 87.8199L21.1 86.0299L22.06 87.0499L16.44 92.3299H16.43ZM17.48 87.6599C16.77 86.8999 16.02 86.9599 15.43 87.5299C14.84 88.0999 14.74 88.8199 15.45 89.5799L16.33 90.5099L18.37 88.5999L17.49 87.6599H17.48Z" fill="#3A3A3A"/>
<path d="M10.9499 86.15L10.1499 85L15.5299 81.26L13.5899 78.47L14.5499 77.8L17.2899 81.74L10.9499 86.15Z" fill="#3A3A3A"/>
<path d="M6.86986 79.96L4.60986 75.47L5.65986 74.94L7.28986 78.18L9.16986 77.24L7.65986 74.23L8.70986 73.7L10.2199 76.71L12.0999 75.76L10.4599 72.49L11.5099 71.96L13.7799 76.48L6.86986 79.95V79.96Z" fill="#3A3A3A"/>
<path d="M8.75021 63.0801L9.06021 64.4401L1.53021 66.1301L1.22021 64.7701L8.75021 63.0801Z" fill="#9469CB"/>
<path d="M7.68977 54.97L7.80977 56.21L2.92977 60.34V60.4L8.16977 59.89L8.30977 61.28L0.619766 62.03L0.499766 60.78L5.38977 56.65V56.58L0.139766 57.09L0.00976562 55.71L7.69977 54.96L7.68977 54.97Z" fill="#9469CB"/>
<path d="M1.28017 49.96C1.22017 50.83 1.61017 51.38 2.19017 51.42C2.83017 51.47 3.15017 50.81 3.34017 50.19L3.57017 49.48C3.92017 48.34 4.61017 47.28 5.94017 47.37C7.30017 47.47 8.14017 48.6 8.01017 50.44C7.89017 52.23 6.95017 53.31 5.42017 53.26L5.51017 51.89C6.32017 51.89 6.76017 51.24 6.82017 50.37C6.88017 49.46 6.49017 48.81 5.83017 48.76C5.23017 48.72 4.94017 49.25 4.67017 50.07L4.38017 50.93C3.97017 52.17 3.28017 52.91 2.17017 52.84C0.810172 52.75 -0.0098277 51.47 0.100172 49.86C0.210172 48.22 1.21017 47.18 2.51017 47.24L2.42017 48.58C1.76017 48.61 1.34017 49.13 1.28017 49.96Z" fill="#9469CB"/>
<path d="M4.53017 39.7801C3.60017 39.7201 2.91017 40.3201 2.69017 41.2301C2.40017 42.4601 3.13017 43.5401 4.83017 43.9501C6.55017 44.3601 7.67017 43.7001 7.96017 42.4901C8.17017 41.5901 7.85017 40.7601 7.01017 40.3801L7.34017 39.0101C8.72017 39.5601 9.59017 41.0201 9.17017 42.8001C8.70017 44.7801 6.92017 45.8901 4.50017 45.3201C2.08017 44.7401 1.00017 42.9301 1.46017 40.9701C1.85017 39.3101 3.13017 38.2601 4.85017 38.4201L4.52017 39.7901L4.53017 39.7801Z" fill="#9469CB"/>
<path d="M3.29004 35.09L4.43004 32.43C5.13004 30.8 6.41004 30.32 7.77004 30.9C8.73004 31.31 9.26004 32.06 9.24004 33.03L12.71 32.7L12.1 34.13L8.91004 34.41L8.35004 35.72L10.95 36.83L10.4 38.12L3.31004 35.09H3.29004ZM7.77004 34.09C8.18004 33.14 7.96004 32.54 7.20004 32.21C6.45004 31.89 5.82004 32.13 5.41004 33.09L4.91004 34.27L7.27004 35.28L7.78004 34.1L7.77004 34.09Z" fill="#9469CB"/>
<path d="M14.12 30.31L13.43 31.53L6.70996 27.72L7.39996 26.5L14.12 30.31Z" fill="#9469CB"/>
<path d="M8.83008 24.1201L10.5401 21.7901C11.5901 20.3601 13.0201 20.2401 14.2101 21.1101C15.4101 21.9901 15.7001 23.3901 14.6501 24.8301L13.7801 26.0201L15.8801 27.5601L15.0501 28.6901L8.83008 24.1301V24.1201ZM13.6101 24.3001C14.2301 23.4601 14.0301 22.7401 13.3701 22.2601C12.7101 21.7801 11.9801 21.8101 11.3601 22.6601L10.6001 23.6901L12.8501 25.3401L13.6101 24.3001Z" fill="#9469CB"/>
<path d="M13.6299 17.7999L17.9899 13.4399L18.8199 14.2699L17.1299 15.9599L21.7699 20.5999L20.7899 21.5799L16.1499 16.9399L14.4599 18.6299L13.6299 17.7999Z" fill="#9469CB"/>
<path d="M25.8102 17.11L24.7102 17.98L19.9302 11.92L21.0302 11.05L25.8102 17.11Z" fill="#9469CB"/>
<path d="M30.1701 14.2901C28.4301 15.3301 26.3701 14.8501 25.0901 12.7101C23.8101 10.5701 24.3501 8.53011 26.0901 7.48011C27.8301 6.44011 29.8901 6.92011 31.1701 9.06011C32.4501 11.2001 31.9001 13.2501 30.1701 14.2901ZM26.7401 8.56011C25.6601 9.21011 25.3901 10.4801 26.3001 11.9901C27.2001 13.5001 28.4501 13.8601 29.5301 13.2201C30.6101 12.5701 30.8801 11.3001 29.9701 9.79011C29.0701 8.28011 27.8201 7.92011 26.7401 8.56011Z" fill="#9469CB"/>
<path d="M40.5201 9.47L39.3601 9.91L34.1101 6.27L34.0501 6.29L35.9001 11.21L34.5901 11.7L31.8701 4.48L33.0401 4.04L38.2901 7.68L38.3501 7.66L36.5001 2.74L37.8001 2.25L40.5201 9.47Z" fill="#9469CB"/>
<path d="M45.8799 4.31003C45.7699 3.54003 46.3099 2.82003 47.0899 2.71003C47.8499 2.60003 48.5799 3.14003 48.6999 3.91003C48.7999 4.69003 48.2499 5.41003 47.4899 5.52003C46.7099 5.63003 45.9899 5.09003 45.8799 4.31003Z" fill="#3A3A3A"/>
</g>
</g>
<defs>
<clipPath id="clip0_3144_30979">
<rect width="108" height="108" fill="white"/>
</clipPath>
<clipPath id="clip1_3144_30979">
<rect width="107.61" height="107.42" fill="white"/>
</clipPath>
</defs>
</svg>
