<svg width="20" height="20" viewBox="0 0 20 20" fill="none" xmlns="http://www.w3.org/2000/svg">
<path fill-rule="evenodd" clip-rule="evenodd" d="M2.40901 2.40901C2.83097 1.98705 3.40326 1.75 4 1.75H16C16.5967 1.75 17.169 1.98705 17.591 2.40901C18.0129 2.83097 18.25 3.40326 18.25 4V13C18.25 13.5967 18.0129 14.169 17.591 14.591C17.169 15.0129 16.5967 15.25 16 15.25H10.5C10.3323 15.25 10.1694 15.3062 10.0374 15.4096L6.75 17.9856V16C6.75 15.5858 6.41421 15.25 6 15.25H4C3.40326 15.25 2.83097 15.0129 2.40901 14.591C1.98705 14.169 1.75 13.5967 1.75 13V4C1.75 3.40326 1.98705 2.83097 2.40901 2.40901ZM4 0.25C3.00544 0.25 2.05161 0.645088 1.34835 1.34835C0.645088 2.05161 0.25 3.00544 0.25 4V13C0.25 13.9946 0.645088 14.9484 1.34835 15.6517C2.05161 16.3549 3.00544 16.75 4 16.75H5.25V18.4991C5.25 18.7335 5.3159 18.9631 5.44018 19.1619C5.56446 19.3606 5.74211 19.5204 5.95284 19.623C6.16358 19.7256 6.39891 19.7668 6.63199 19.7421C6.86507 19.7173 7.08649 19.6276 7.27097 19.483L10.7588 16.75H16C16.9946 16.75 17.9484 16.3549 18.6517 15.6517C19.3549 14.9484 19.75 13.9946 19.75 13V4C19.75 3.00544 19.3549 2.05161 18.6517 1.34835C17.9484 0.645088 16.9946 0.25 16 0.25H4ZM10.75 5.5C10.75 5.08579 10.4142 4.75 10 4.75C9.58579 4.75 9.25 5.08579 9.25 5.5V8.5C9.25 8.91421 9.58579 9.25 10 9.25C10.4142 9.25 10.75 8.91421 10.75 8.5V5.5ZM9.99425 12.1989C9.97864 12.1998 9.96299 12.2001 9.94731 12.2C9.7991 12.1994 9.65438 12.1549 9.53143 12.0722C9.40847 11.9894 9.31279 11.8721 9.25646 11.735C9.20014 11.5979 9.1857 11.4472 9.21496 11.3019C9.24422 11.1566 9.31588 11.0233 9.42088 10.9187C9.52589 10.8141 9.65953 10.7429 9.80493 10.7142C9.95034 10.6855 10.101 10.7005 10.2379 10.7574C10.3747 10.8142 10.4917 10.9104 10.574 11.0336C10.6563 11.1569 10.7002 11.3018 10.7002 11.45C10.7007 11.5489 10.6816 11.6469 10.6439 11.7383C10.6062 11.8297 10.5507 11.9127 10.4807 11.9825C10.4106 12.0523 10.3274 12.1075 10.2358 12.1448C10.1597 12.1758 10.0791 12.194 9.99732 12.1988L9.99664 12.375L9.99464 12.375L9.99263 12.375L9.99425 12.1989Z" fill="#4C1691"/>
</svg>
