<svg width="12" height="4" viewBox="0 0 12 4" fill="none" xmlns="http://www.w3.org/2000/svg">
<path fill-rule="evenodd" clip-rule="evenodd" d="M2.20714 1.28459C1.81662 0.894068 1.18345 0.894068 0.792926 1.28459L0.784592 1.29293C0.394068 1.68345 0.394068 2.31662 0.784592 2.70714L0.792926 2.71547C1.18345 3.106 1.81662 3.106 2.20714 2.71547L2.21547 2.70714C2.606 2.31662 2.606 1.68345 2.21547 1.29293L2.20714 1.28459ZM10.5404 1.28459C10.1499 0.894068 9.5167 0.894068 9.12618 1.28459L9.11784 1.29293C8.72732 1.68345 8.72732 2.31662 9.11784 2.70714L9.12618 2.71547C9.5167 3.106 10.1499 3.106 10.5404 2.71547L10.5487 2.70714C10.9392 2.31662 10.9392 1.68345 10.5487 1.29293L10.5404 1.28459ZM4.95967 1.28459C5.3502 0.894068 5.98336 0.894068 6.37389 1.28459L6.38222 1.29293C6.77275 1.68345 6.77275 2.31662 6.38222 2.70714L6.37389 2.71547C5.98336 3.106 5.3502 3.106 4.95967 2.71547L4.95134 2.70714C4.56082 2.31662 4.56082 1.68345 4.95134 1.29293L4.95967 1.28459Z" fill="#4C1691"/>
<path d="M0.792926 1.28459L0.969703 1.46137H0.969703L0.792926 1.28459ZM2.20714 1.28459L2.03036 1.46137L2.03036 1.46137L2.20714 1.28459ZM0.784592 1.29293L0.961369 1.4697V1.4697L0.784592 1.29293ZM0.784592 2.70714L0.96137 2.53036L0.961369 2.53036L0.784592 2.70714ZM0.792926 2.71547L0.616149 2.89225L0.616149 2.89225L0.792926 2.71547ZM2.21547 1.29293L2.39225 1.11615L2.39225 1.11615L2.21547 1.29293ZM9.12618 1.28459L8.9494 1.10782L8.9494 1.10782L9.12618 1.28459ZM10.5404 1.28459L10.7172 1.10782L10.7172 1.10782L10.5404 1.28459ZM9.11784 1.29293L9.29462 1.4697L9.29462 1.4697L9.11784 1.29293ZM9.11784 2.70714L9.29463 2.53037L9.29462 2.53036L9.11784 2.70714ZM9.12618 2.71547L8.9494 2.89225L8.9494 2.89225L9.12618 2.71547ZM10.5404 2.71547L10.7172 2.89225L10.7172 2.89225L10.5404 2.71547ZM10.5487 2.70714L10.3719 2.53036L10.3719 2.53037L10.5487 2.70714ZM10.5487 1.29293L10.3719 1.4697L10.3719 1.4697L10.5487 1.29293ZM6.37389 1.28459L6.19711 1.46137L6.19711 1.46137L6.37389 1.28459ZM4.95967 1.28459L4.7829 1.10782L4.78289 1.10782L4.95967 1.28459ZM6.38222 1.29293L6.559 1.11615L6.559 1.11615L6.38222 1.29293ZM6.38222 2.70714L6.559 2.88392L6.559 2.88392L6.38222 2.70714ZM6.37389 2.71547L6.19711 2.5387L6.19711 2.5387L6.37389 2.71547ZM4.95967 2.71547L4.78289 2.89225L4.7829 2.89225L4.95967 2.71547ZM4.95134 2.70714L5.12812 2.53037L5.12812 2.53036L4.95134 2.70714ZM4.95134 1.29293L5.12812 1.4697L5.12812 1.4697L4.95134 1.29293ZM0.969703 1.46137C1.2626 1.16848 1.73747 1.16848 2.03036 1.46137L2.38392 1.10782C1.89576 0.61966 1.1043 0.61966 0.616149 1.10782L0.969703 1.46137ZM0.961369 1.4697L0.969703 1.46137L0.616149 1.10782L0.607816 1.11615L0.961369 1.4697ZM0.961369 2.53036C0.668476 2.23747 0.668476 1.7626 0.961369 1.4697L0.607816 1.11615C0.11966 1.6043 0.11966 2.39576 0.607816 2.88392L0.961369 2.53036ZM0.969703 2.5387L0.96137 2.53036L0.607815 2.88392L0.616149 2.89225L0.969703 2.5387ZM2.03036 2.5387C1.73747 2.83159 1.2626 2.83159 0.969703 2.5387L0.616149 2.89225C1.1043 3.38041 1.89576 3.38041 2.38392 2.89225L2.03036 2.5387ZM2.0387 2.53036L2.03036 2.5387L2.38392 2.89225L2.39225 2.88392L2.0387 2.53036ZM2.0387 1.4697C2.33159 1.7626 2.33159 2.23747 2.0387 2.53036L2.39225 2.88392C2.88041 2.39576 2.88041 1.6043 2.39225 1.11615L2.0387 1.4697ZM2.03036 1.46137L2.0387 1.4697L2.39225 1.11615L2.38392 1.10782L2.03036 1.46137ZM9.30295 1.46137C9.59585 1.16848 10.0707 1.16848 10.3636 1.46137L10.7172 1.10782C10.229 0.61966 9.43756 0.61966 8.9494 1.10782L9.30295 1.46137ZM9.29462 1.4697L9.30296 1.46137L8.9494 1.10782L8.94106 1.11615L9.29462 1.4697ZM9.29462 2.53036C9.00173 2.23747 9.00173 1.7626 9.29462 1.4697L8.94107 1.11615C8.45291 1.6043 8.45291 2.39576 8.94107 2.88392L9.29462 2.53036ZM9.30296 2.5387L9.29463 2.53037L8.94106 2.88391L8.9494 2.89225L9.30296 2.5387ZM10.3636 2.5387C10.0707 2.83159 9.59585 2.83159 9.30295 2.5387L8.9494 2.89225C9.43756 3.3804 10.229 3.3804 10.7172 2.89225L10.3636 2.5387ZM10.3719 2.53037L10.3636 2.5387L10.7172 2.89225L10.7255 2.88391L10.3719 2.53037ZM10.3719 1.4697C10.6648 1.7626 10.6648 2.23747 10.3719 2.53036L10.7255 2.88392C11.2137 2.39576 11.2137 1.6043 10.7255 1.11615L10.3719 1.4697ZM10.3636 1.46137L10.3719 1.4697L10.7255 1.11615L10.7172 1.10782L10.3636 1.46137ZM6.55066 1.10782C6.06251 0.61966 5.27105 0.61966 4.7829 1.10782L5.13645 1.46137C5.42934 1.16848 5.90422 1.16848 6.19711 1.46137L6.55066 1.10782ZM6.559 1.11615L6.55066 1.10781L6.19711 1.46137L6.20545 1.4697L6.559 1.11615ZM6.559 2.88392C7.04715 2.39576 7.04715 1.6043 6.559 1.11615L6.20544 1.4697C6.49834 1.7626 6.49834 2.23747 6.20544 2.53036L6.559 2.88392ZM6.55066 2.89225L6.559 2.88392L6.20545 2.53036L6.19711 2.5387L6.55066 2.89225ZM4.7829 2.89225C5.27105 3.38041 6.06251 3.38041 6.55066 2.89225L6.19711 2.5387C5.90422 2.83159 5.42934 2.83159 5.13645 2.5387L4.7829 2.89225ZM4.77456 2.88391L4.78289 2.89225L5.13645 2.5387L5.12812 2.53037L4.77456 2.88391ZM4.77456 1.11615C4.28641 1.6043 4.28641 2.39576 4.77456 2.88392L5.12812 2.53036C4.83522 2.23747 4.83522 1.7626 5.12812 1.4697L4.77456 1.11615ZM4.78289 1.10782L4.77456 1.11615L5.12812 1.4697L5.13645 1.46137L4.78289 1.10782Z" fill="#4C1691"/>
</svg>
